SplineFontDB: 3.0
FontName: Chilanka
FullName: Chilanka
FamilyName: Chilanka
Weight: Book
Copyright: Copyright 2014 Santhosh Thottingal, Kavya Manohar, Swathanthra Malayalam Computing (http://smc.org.in)
Version: 1.0.0-alpha
ItalicAngle: 0
UnderlinePosition: -600
UnderlineWidth: 100
Ascent: 1434
Descent: 614
sfntRevision: 0x00060000
LayerCount: 2
Layer: 0 1 "Back"  1
Layer: 1 1 "Fore"  0
XUID: [1021 393 960756424 4828222]
FSType: 0
OS2Version: 1
OS2_WeightWidthSlopeOnly: 0
OS2_UseTypoMetrics: 1
CreationTime: 1201144287
ModificationTime: 1413983596
PfmFamily: 65
TTFWeight: 400
TTFWidth: 5
LineGap: 0
VLineGap: 0
OS2TypoAscent: 0
OS2TypoAOffset: 1
OS2TypoDescent: 0
OS2TypoDOffset: 1
OS2TypoLinegap: 0
OS2WinAscent: 0
OS2WinAOffset: 1
OS2WinDescent: 0
OS2WinDOffset: 1
HheadAscent: 0
HheadAOffset: 1
HheadDescent: 0
HheadDOffset: 1
OS2SubXSize: 1327
OS2SubYSize: 1225
OS2SubXOff: 0
OS2SubYOff: 150
OS2SupXSize: 1327
OS2SupYSize: 1427
OS2SupXOff: 0
OS2SupYOff: 977
OS2StrikeYSize: 98
OS2StrikeYPos: 512
OS2Vendor: 'PfEd'
OS2CodePages: 00000001.00000000
OS2UnicodeRanges: 80800003.00002000.00000000.00000000
Lookup: 4 0 0 "'akhn' Akhand in Malay+AQEA-lam lookup 0"  {"'akhn' Akhand in Malay+AQEA-lam lookup 0 subtable"  } ['akhn' ('mlym' <'dflt' > ) ]
Lookup: 4 0 0 "'akhn' Akhand in Malay+AQEA-lam2 lookup 0"  {"'akhn' Akhand in Malay+AQEA-lam2 lookup 0 subtable"  } ['akhn' ('mlm2' <'dflt' > ) ]
Lookup: 4 0 0 "'pref' Pre Base Forms in Malay+AQEA-lam2 lookup 1"  {"'pref' Pre Base Forms in Malay+AQEA-lam2 lookup 1 subtable"  } ['pref' ('mlm2' <'dflt' > ) ]
Lookup: 4 0 0 "'half' Half Forms in Malay+AQEA-lam lookup 1"  {"'half' Half Forms in Malay+AQEA-lam lookup 1 subtable"  } ['half' ('mlym' <'dflt' > ) ]
Lookup: 4 0 0 "'blwf' Below Base Forms in Malay+AQEA-lam lookup 2"  {"'blwf' Below Base Forms in Malay+AQEA-lam lookup 2 subtable"  } ['blwf' ('mlym' <'dflt' > ) ]

StartChar: .notdef
Encoding: 0 -1 0
Width: 692
GlyphClass: 2
Flags: MW
LayerCount: 2
Fore
SplineSet
45 1 m 1,0,-1
 45 1119 l 1,1,-1
 606 1119 l 1,2,-1
 606 1 l 1,3,-1
 45 1 l 1,0,-1
102 55 m 1,4,-1
 552 55 l 1,5,-1
 552 1063 l 1,6,-1
 102 1063 l 1,7,-1
 102 55 l 1,4,-1
EndSplineSet
EndChar

StartChar: exclam
Encoding: 2 33 2
Width: 409
GlyphClass: 2
Flags: MW
LayerCount: 2
Fore
SplineSet
128 1163 m 0,0,1
 131 1192 131 1192 148 1208 c 128,-1,2
 165 1224 165 1224 188.5 1227.5 c 128,-1,3
 212 1231 212 1231 233.5 1214.5 c 128,-1,4
 255 1198 255 1198 259 1171 c 0,5,6
 311 828 311 828 292 434 c 1,7,8
 290 421 290 421 292 399 c 128,-1,9
 294 377 294 377 289.5 351 c 128,-1,10
 285 325 285 325 278 302 c 0,11,12
 260 249 260 249 195 253 c 0,13,14
 113 259 113 259 106 371 c 0,15,16
 105 388 105 388 105 411 c 128,-1,17
 105 434 105 434 105 442 c 0,18,19
 79 683 79 683 128 1163 c 0,0,1
125 11 m 0,20,21
 147 66 147 66 170 80 c 128,-1,22
 193 94 193 94 219.5 87 c 128,-1,23
 246 80 246 80 260 58 c 0,24,25
 341 -77 341 -77 303 -171 c 0,26,27
 288 -208 288 -208 250.5 -224 c 128,-1,28
 213 -240 213 -240 178 -225.5 c 128,-1,29
 143 -211 143 -211 124 -182 c 0,30,31
 77 -109 77 -109 125 11 c 0,20,21
EndSplineSet
EndChar

StartChar: numbersign
Encoding: 4 35 4
Width: 1590
GlyphClass: 2
Flags: MW
LayerCount: 2
Fore
SplineSet
100 376.5 m 128,-1,1
 100 403 100 403 119 422.5 c 128,-1,2
 138 442 138 442 165 442 c 2,3,-1
 422 442 l 1,4,-1
 566 843 l 1,5,-1
 312 843 l 2,6,7
 285 843 285 843 266 862.5 c 128,-1,8
 247 882 247 882 247 908.5 c 128,-1,9
 247 935 247 935 266 954 c 128,-1,10
 285 973 285 973 312 973 c 2,11,-1
 613 973 l 1,12,-1
 720 1272 l 2,13,14
 742 1333 742 1333 785 1317 c 0,15,16
 864 1289 864 1289 842 1228 c 2,17,-1
 751 973 l 1,18,-1
 1149 973 l 1,19,-1
 1259 1271 l 2,20,21
 1281 1332 1281 1332 1325 1316 c 0,22,23
 1404 1287 1404 1287 1381 1226 c 2,24,-1
 1288 973 l 1,25,-1
 1425 973 l 2,26,27
 1452 973 1452 973 1471 954 c 128,-1,28
 1490 935 1490 935 1490 908.5 c 128,-1,29
 1490 882 1490 882 1471 862.5 c 128,-1,30
 1452 843 1452 843 1425 843 c 2,31,-1
 1240 843 l 1,32,-1
 1092 442 l 1,33,-1
 1398 442 l 2,34,35
 1425 442 1425 442 1444 422.5 c 128,-1,36
 1463 403 1463 403 1463 376.5 c 128,-1,37
 1463 350 1463 350 1443.5 331 c 128,-1,38
 1424 312 1424 312 1398 312 c 2,39,-1
 1044 312 l 1,40,-1
 929 -1 l 2,41,42
 907 -62 907 -62 863 -46 c 0,43,44
 784 -17 784 -17 807 44 c 2,45,-1
 905 312 l 1,46,-1
 513 312 l 1,47,-1
 407 16 l 2,48,49
 385 -45 385 -45 341 -30 c 0,50,51
 262 -1 262 -1 284 60 c 2,52,-1
 375 312 l 1,53,-1
 165 312 l 2,54,55
 138 312 138 312 119 331 c 128,-1,0
 100 350 100 350 100 376.5 c 128,-1,1
953 442 m 1,56,-1
 1101 843 l 1,57,-1
 704 843 l 1,58,-1
 560 442 l 1,59,-1
 953 442 l 1,56,-1
EndSplineSet
EndChar

StartChar: dollar
Encoding: 5 36 5
Width: 1316
GlyphClass: 2
Flags: MW
LayerCount: 2
Fore
SplineSet
1033 996 m 128,-1,1
 994 944 994 944 942 983 c 0,2,3
 810 1082 810 1082 656 1135 c 1,4,5
 655 964 655 964 654 793 c 1,6,7
 659 793 659 793 711 789 c 0,8,9
 1116 766 1116 766 1199 489 c 0,10,11
 1249 320 1249 320 1158 155 c 0,12,13
 1046 -49 1046 -49 812 -115 c 0,14,15
 731 -138 731 -138 650 -137 c 1,16,-1
 649 -281 l 2,17,18
 649 -308 649 -308 629.5 -327 c 128,-1,19
 610 -346 610 -346 583.5 -346 c 128,-1,20
 557 -346 557 -346 538 -326.5 c 128,-1,21
 519 -307 519 -307 520 -122 c 1,22,23
 391 -91 391 -91 282 -1 c 128,-1,24
 173 89 173 89 119 218 c 0,25,26
 94 278 94 278 153.5 303.5 c 128,-1,27
 213 329 213 329 239 269 c 0,28,29
 320 76 320 76 520 13 c 1,30,31
 522 342 522 342 524 672 c 1,32,33
 329 693 329 693 238 771 c 0,34,35
 51 931 51 931 118 1114 c 0,36,37
 170 1255 170 1255 335 1296 c 0,38,39
 419 1316 419 1316 527 1300 c 1,40,41
 527 1330 527 1330 527 1358 c 128,-1,42
 527 1386 527 1386 546.5 1405 c 128,-1,43
 566 1424 566 1424 592.5 1424 c 128,-1,44
 619 1424 619 1424 638 1404.5 c 128,-1,45
 657 1385 657 1385 657 1359 c 2,46,-1
 657 1271 l 1,47,48
 855 1213 855 1213 1020 1087 c 0,49,0
 1072 1048 1072 1048 1033 996 c 128,-1,1
526 1169 m 1,50,51
 369 1197 369 1197 287 1133 c 0,52,53
 207 1070 207 1070 232.5 997 c 128,-1,54
 258 924 258 924 318 872.5 c 128,-1,55
 378 821 378 821 524 803 c 1,56,-1
 526 1169 l 1,50,51
650 -7 m 1,57,58
 833 -8 833 -8 965 115 c 0,59,60
 1129 269 1129 269 1074 452 c 0,61,62
 1026 615 1026 615 798 650 c 0,63,64
 750 657 750 657 702.5 659.5 c 128,-1,65
 655 662 655 662 654 663 c 1,66,67
 652 328 652 328 650 -7 c 1,57,58
EndSplineSet
EndChar

StartChar: percent
Encoding: 6 37 6
Width: 1237
GlyphClass: 2
Flags: MW
LayerCount: 2
Fore
SplineSet
438 1266 m 1,0,1
 524 1328 524 1328 597 1115 c 1,2,-1
 942 1280 l 2,3,4
 1001 1308 1001 1308 1022.5 1262.5 c 128,-1,5
 1044 1217 1044 1217 1025 1187 c 2,6,-1
 464 282 l 1,7,-1
 669 441 l 2,8,9
 717 478 717 478 758 432 c 1,10,11
 781 442 781 442 857 416 c 0,12,13
 1066 346 1066 346 1118.5 218 c 128,-1,14
 1171 90 1171 90 1080 6 c 128,-1,15
 989 -78 989 -78 858 -90 c 128,-1,16
 727 -102 727 -102 653.5 -11.5 c 128,-1,17
 580 79 580 79 596 220 c 1,18,-1
 259 -41 l 2,19,20
 224 -68 224 -68 176.5 -39.5 c 128,-1,21
 129 -11 129 -11 164 44 c 2,22,-1
 798 1067 l 1,23,-1
 652 997 l 2,24,25
 634 988 634 988 617 983 c 1,26,27
 610 882 610 882 551 833 c 0,28,29
 394 702 394 702 218 787 c 0,30,31
 101 843 101 843 100 946 c 0,32,33
 99 1120 99 1120 336 1301 c 0,34,35
 388 1340 388 1340 427 1288 c 0,36,37
 434 1278 434 1278 438 1266 c 1,0,1
487 995 m 1,38,39
 411 1046 411 1046 410 1194 c 1,40,41
 126 976 126 976 275 904 c 0,42,43
 332 877 332 877 382 890 c 0,44,45
 483 916 483 916 487 995 c 1,38,39
751 316 m 1,46,47
 694 145 694 145 739 89.5 c 128,-1,48
 784 34 784 34 858.5 40.5 c 128,-1,49
 933 47 933 47 977 87.5 c 128,-1,50
 1021 128 1021 128 1005 161 c 0,51,52
 967 241 967 241 763 310 c 0,53,54
 757 313 757 313 751 316 c 1,46,47
EndSplineSet
EndChar

StartChar: ampersand
Encoding: 7 38 7
Width: 1289
GlyphClass: 2
Flags: MW
LayerCount: 2
Fore
SplineSet
1145 629 m 128,-1,1
 1206 607 1206 607 1184 545 c 0,2,3
 1128 392 1128 392 994 267 c 1,4,5
 1100 151 1100 151 1091.5 113.5 c 128,-1,6
 1083 76 1083 76 1044 52 c 128,-1,7
 1005 28 1005 28 972 81.5 c 128,-1,8
 939 135 939 135 893 184 c 1,9,10
 715 55 715 55 517 16.5 c 128,-1,11
 319 -22 319 -22 208 76.5 c 128,-1,12
 97 175 97 175 177 393 c 0,13,14
 210 481 210 481 268 543.5 c 128,-1,15
 326 606 326 606 327 607 c 1,16,17
 177 736 177 736 139 842 c 0,18,19
 63 1054 63 1054 132.5 1180.5 c 128,-1,20
 202 1307 202 1307 357 1325 c 128,-1,21
 512 1343 512 1343 646 1274 c 128,-1,22
 780 1205 780 1205 810 1082 c 0,23,24
 854 903 854 903 639 724 c 0,25,26
 580 675 580 675 524 622 c 1,27,28
 566 593 566 593 691 511.5 c 128,-1,29
 816 430 816 430 900 357 c 1,30,31
 1016 463 1016 463 1062 590 c 0,32,0
 1084 651 1084 651 1145 629 c 128,-1,1
796 275 m 1,33,34
 716 340 716 340 600 415.5 c 128,-1,35
 484 491 484 491 431 528 c 1,36,37
 324 414 324 414 287 314 c 128,-1,38
 250 214 250 214 303.5 166 c 128,-1,39
 357 118 357 118 504 147 c 128,-1,40
 651 176 651 176 796 275 c 1,33,34
419 701 m 1,41,42
 485 765 485 765 556 824 c 0,43,44
 709 951 709 951 688.5 1033.5 c 128,-1,45
 668 1116 668 1116 578 1162.5 c 128,-1,46
 488 1209 488 1209 386 1197 c 0,47,48
 226 1179 226 1179 230 1033 c 0,49,50
 233 913 233 913 291.5 836 c 128,-1,51
 350 759 350 759 419 701 c 1,41,42
EndSplineSet
EndChar

StartChar: quotesingle
Encoding: 8 39 8
Width: 368
GlyphClass: 2
Flags: MW
LayerCount: 2
Fore
SplineSet
203.5 954 m 128,-1,1
 180 941 180 941 148.5 949.5 c 128,-1,2
 117 958 117 958 105 1006 c 0,3,4
 50 1234 50 1234 101 1335 c 0,5,6
 142 1416 142 1416 215 1375 c 0,7,8
 325 1315 325 1315 234 993 c 0,9,0
 227 967 227 967 203.5 954 c 128,-1,1
EndSplineSet
EndChar

StartChar: parenleft
Encoding: 9 40 9
Width: 721
GlyphClass: 2
Flags: MW
LayerCount: 2
Fore
SplineSet
569 1369 m 0,0,1
 618 1326 618 1326 562 1262 c 0,2,3
 331 998 331 998 264 769 c 128,-1,4
 197 540 197 540 245 368 c 0,5,6
 337 39 337 39 601 -251 c 0,7,8
 645 -299 645 -299 597 -343 c 128,-1,9
 549 -387 549 -387 505 -339 c 0,10,11
 -219 455 -219 455 351 1209 c 0,12,13
 482 1382 482 1382 515.5 1384 c 128,-1,14
 549 1386 549 1386 569 1369 c 0,0,1
EndSplineSet
EndChar

StartChar: asterisk
Encoding: 11 42 11
Width: 1182
GlyphClass: 2
Flags: MW
LayerCount: 2
Fore
SplineSet
258 598.5 m 128,-1,1
 239 617 239 617 239 644.5 c 128,-1,2
 239 672 239 672 258 691 c 2,3,-1
 486 919 l 1,4,-1
 137 1035 l 2,5,6
 112 1043 112 1043 99.5 1067.5 c 128,-1,7
 87 1092 87 1092 95.5 1117 c 128,-1,8
 104 1142 104 1142 128.5 1154.5 c 128,-1,9
 153 1167 153 1167 178 1158 c 2,10,-1
 524 1043 l 1,11,-1
 524 1353 l 2,12,13
 524 1386 524 1386 544.5 1406 c 128,-1,14
 565 1426 565 1426 592 1426 c 128,-1,15
 619 1426 619 1426 638 1407 c 128,-1,16
 657 1388 657 1388 657 1361 c 2,17,-1
 657 1051 l 1,18,-1
 1003 1166 l 2,19,20
 1028 1174 1028 1174 1052.5 1162 c 128,-1,21
 1077 1150 1077 1150 1085.5 1125 c 128,-1,22
 1094 1100 1094 1100 1081.5 1075.5 c 128,-1,23
 1069 1051 1069 1051 1044 1043 c 2,24,-1
 691 925 l 1,25,-1
 926 691 l 2,26,27
 945 672 945 672 944.5 644.5 c 128,-1,28
 944 617 944 617 925.5 598.5 c 128,-1,29
 907 580 907 580 880 580 c 128,-1,30
 853 580 853 580 834 599 c 2,31,-1
 592 841 l 1,32,-1
 350 599 l 2,33,34
 331 580 331 580 304 580 c 128,-1,0
 277 580 277 580 258 598.5 c 128,-1,1
EndSplineSet
EndChar

StartChar: plus
Encoding: 12 43 12
Width: 1408
GlyphClass: 2
Flags: MW
LayerCount: 2
Fore
SplineSet
1308 636.5 m 128,-1,1
 1308 610 1308 610 1289 590.5 c 128,-1,2
 1270 571 1270 571 1243 571 c 2,3,-1
 805 571 l 1,4,-1
 805 -8 l 2,5,6
 805 -35 805 -35 786 -54 c 128,-1,7
 767 -73 767 -73 740 -73 c 128,-1,8
 713 -73 713 -73 694 -54 c 128,-1,9
 675 -35 675 -35 675 -8 c 2,10,-1
 675 571 l 1,11,-1
 165 571 l 2,12,13
 138 571 138 571 119 590.5 c 128,-1,14
 100 610 100 610 100 636.5 c 128,-1,15
 100 663 100 663 119 682 c 128,-1,16
 138 701 138 701 165 701 c 2,17,-1
 675 701 l 1,18,-1
 675 1204 l 2,19,20
 675 1231 675 1231 694 1250 c 128,-1,21
 713 1269 713 1269 740 1269 c 128,-1,22
 767 1269 767 1269 786 1249.5 c 128,-1,23
 805 1230 805 1230 805 1204 c 2,24,-1
 805 701 l 1,25,-1
 1243 701 l 2,26,27
 1270 701 1270 701 1289 682 c 128,-1,0
 1308 663 1308 663 1308 636.5 c 128,-1,1
EndSplineSet
EndChar

StartChar: comma
Encoding: 13 44 13
Width: 445
GlyphClass: 2
Flags: MW
LayerCount: 2
Fore
SplineSet
234 -364 m 1,0,1
 222 -384 222 -384 200 -392 c 128,-1,2
 178 -400 178 -400 154.5 -392 c 128,-1,3
 131 -384 131 -384 119 -359.5 c 128,-1,4
 107 -335 107 -335 119 -303 c 0,5,6
 143 -233 143 -233 136 -188 c 0,7,8
 123 -105 123 -105 111 -67 c 0,9,10
 85 18 85 18 118 82 c 0,11,12
 136 117 136 117 168.5 140.5 c 128,-1,13
 201 164 201 164 243 157 c 0,14,15
 321 144 321 144 338 54.5 c 128,-1,16
 355 -35 355 -35 323 -148.5 c 128,-1,17
 291 -262 291 -262 267 -309 c 128,-1,18
 243 -356 243 -356 234 -364 c 1,0,1
EndSplineSet
EndChar

StartChar: hyphen
Encoding: 14 45 14
Width: 783
GlyphClass: 2
Flags: MW
LayerCount: 2
Fore
SplineSet
107 490 m 128,-1,1
 107 517 107 517 126 536 c 128,-1,2
 145 555 145 555 172 555 c 2,3,-1
 613 555 l 2,4,5
 640 555 640 555 659 536 c 128,-1,6
 678 517 678 517 678 490 c 128,-1,7
 678 463 678 463 659 444 c 128,-1,8
 640 425 640 425 613 425 c 2,9,-1
 172 425 l 2,10,11
 145 425 145 425 126 444 c 128,-1,0
 107 463 107 463 107 490 c 128,-1,1
EndSplineSet
EndChar

StartChar: period
Encoding: 15 46 15
Width: 422
GlyphClass: 2
Flags: MW
LayerCount: 2
Fore
SplineSet
100 89 m 128,-1,1
 99 115 99 115 107.5 150.5 c 128,-1,2
 116 186 116 186 145.5 228.5 c 128,-1,3
 175 271 175 271 207 266 c 0,4,5
 258 258 258 258 294 184 c 0,6,7
 330 110 330 110 319 66.5 c 128,-1,8
 308 23 308 23 281 1.5 c 128,-1,9
 254 -20 254 -20 218 -21.5 c 128,-1,10
 182 -23 182 -23 155 -6 c 128,-1,11
 128 11 128 11 114.5 37 c 128,-1,0
 101 63 101 63 100 89 c 128,-1,1
EndSplineSet
EndChar

StartChar: slash
Encoding: 16 47 16
Width: 1039
GlyphClass: 2
Flags: MW
LayerCount: 2
Fore
SplineSet
901 1398 m 0,0,1
 925 1388 925 1388 935 1362 c 128,-1,2
 945 1336 945 1336 933 1312 c 2,3,-1
 224 -140 l 2,4,5
 212 -164 212 -164 187 -173 c 0,6,7
 161 -182 161 -182 137.5 -170.5 c 0,8,9
 114 -160 114 -160 104 -134 c 0,10,11
 95 -109 95 -109 107 -84 c 2,12,-1
 815 1367 l 2,13,14
 827 1391 827 1391 852 1400 c 128,-1,15
 877 1409 877 1409 901 1398 c 0,0,1
EndSplineSet
EndChar

StartChar: zero
Encoding: 17 48 17
Width: 1144
GlyphClass: 2
Flags: MW
LayerCount: 2
Fore
SplineSet
656 1225 m 1,0,1
 838 1192 838 1192 951.5 954.5 c 128,-1,2
 1065 717 1065 717 1044.5 496 c 128,-1,3
 1024 275 1024 275 947 183 c 0,4,5
 811 19 811 19 609 18 c 0,6,7
 319 16 319 16 178 325 c 0,8,9
 87 527 87 527 102 775 c 128,-1,10
 117 1023 117 1023 214 1151 c 0,11,12
 387 1380 387 1380 632 1345 c 0,13,14
 658 1341 658 1341 675 1320 c 0,15,16
 717 1263 717 1263 656 1225 c 1,0,1
585 1220 m 1,17,18
 436 1230 436 1230 340.5 1103 c 128,-1,19
 245 976 245 976 232 763.5 c 128,-1,20
 219 551 219 551 296 382 c 0,21,22
 403 146 403 146 605 147.5 c 128,-1,23
 807 149 807 149 879 333 c 128,-1,24
 951 517 951 517 887 755.5 c 128,-1,25
 823 994 823 994 692 1074 c 0,26,27
 654 1097 654 1097 622 1099 c 0,28,29
 551 1103 551 1103 554 1167 c 0,30,31
 556 1202 556 1202 585 1220 c 1,17,18
EndSplineSet
EndChar

StartChar: one
Encoding: 18 49 18
Width: 476
GlyphClass: 2
Flags: MW
LayerCount: 2
Fore
SplineSet
102.5 1288.5 m 128,-1,1
 95 1314 95 1314 109 1338 c 0,2,3
 127 1370 127 1370 161 1372.5 c 128,-1,4
 195 1375 195 1375 221.5 1368.5 c 128,-1,5
 248 1362 248 1362 273.5 1339 c 128,-1,6
 299 1316 299 1316 314.5 1286.5 c 128,-1,7
 330 1257 330 1257 340 1212 c 0,8,9
 357 1142 357 1142 366 1030 c 0,10,11
 390 712 390 712 358 379 c 2,12,-1
 326 52 l 2,13,14
 323 26 323 26 302 8.5 c 128,-1,15
 281 -9 281 -9 254.5 -6.5 c 128,-1,16
 228 -4 228 -4 211 17 c 128,-1,17
 194 38 194 38 196 64 c 2,18,-1
 228 392 l 2,19,20
 259 714 259 714 236 1020 c 0,21,22
 226 1146 226 1146 208 1192 c 0,23,24
 187 1245 187 1245 182 1243 c 0,25,26
 156 1236 156 1236 133 1249.5 c 128,-1,0
 110 1263 110 1263 102.5 1288.5 c 128,-1,1
EndSplineSet
EndChar

StartChar: two
Encoding: 19 50 19
Width: 1331
GlyphClass: 2
Flags: MW
LayerCount: 2
Fore
SplineSet
122.5 1032 m 128,-1,1
 73 1074 73 1074 115 1123 c 0,2,3
 314 1358 314 1358 514.5 1374 c 128,-1,4
 715 1390 715 1390 834.5 1282 c 128,-1,5
 954 1174 954 1174 965.5 1034.5 c 128,-1,6
 977 895 977 895 906 779 c 0,7,8
 744 516 744 516 439 185 c 1,9,10
 596 216 596 216 811.5 182.5 c 128,-1,11
 1027 149 1027 149 1117.5 179 c 128,-1,12
 1208 209 1208 209 1228 147 c 128,-1,13
 1248 85 1248 85 1183 64 c 0,14,15
 1058 23 1058 23 957 33.5 c 128,-1,16
 856 44 856 44 673.5 72.5 c 128,-1,17
 491 101 491 101 270 -3 c 0,18,19
 193 -40 193 -40 167 -14 c 0,20,21
 115 40 115 40 161 85 c 2,22,-1
 203 126 l 2,23,24
 559 474 559 474 798 849 c 1,25,26
 844 927 844 927 836.5 1019.5 c 128,-1,27
 829 1112 829 1112 749 1184 c 128,-1,28
 669 1256 669 1256 524 1244.5 c 128,-1,29
 379 1233 379 1233 214 1039 c 0,30,0
 172 990 172 990 122.5 1032 c 128,-1,1
EndSplineSet
EndChar

StartChar: three
Encoding: 20 51 20
Width: 1181
GlyphClass: 2
Flags: MW
LayerCount: 2
Fore
SplineSet
147.5 1021.5 m 132,-1,1
 129 1041 129 1041 129.5 1068 c 132,-1,2
 130 1095 130 1095 149 1114 c 4,3,4
 403 1358 403 1358 629 1377 c 4,5,6
 805 1392 805 1392 902 1275 c 132,-1,7
 999 1158 999 1158 971 985 c 132,-1,8
 943 812 943 812 795 656 c 5,9,10
 852 645 852 645 903 613 c 4,11,12
 1017 543 1017 543 1062.5 404 c 132,-1,13
 1108 265 1108 265 1047 146 c 4,14,15
 971 -2 971 -2 775 -15 c 4,16,17
 523 -33 523 -33 132 193 c 4,18,19
 109 206 109 206 102 232.5 c 132,-1,20
 95 259 95 259 108.5 282 c 132,-1,21
 122 305 122 305 148.5 312 c 132,-1,22
 175 319 175 319 198 305 c 4,23,24
 554 99 554 99 766 114 c 4,25,26
 889 123 889 123 928.5 199.5 c 132,-1,27
 968 276 968 276 938.5 366.5 c 132,-1,28
 909 457 909 457 835 502 c 4,29,30
 737 562 737 562 603 499 c 4,31,32
 581 488 581 488 557.5 495 c 132,-1,33
 534 502 534 502 520 523 c 132,-1,34
 506 544 506 544 511.5 570.5 c 132,-1,35
 517 597 517 597 539 612 c 4,36,37
 611 659 611 659 667 712 c 4,38,39
 818 854 818 854 843 1008 c 4,40,41
 861 1120 861 1120 805 1189 c 4,42,43
 748 1256 748 1256 640 1247 c 4,44,45
 460 1231 460 1231 239 1020 c 4,46,47
 220 1002 220 1002 193 1002 c 132,-1,0
 166 1002 166 1002 147.5 1021.5 c 132,-1,1
EndSplineSet
EndChar

StartChar: four
Encoding: 21 52 21
Width: 1496
GlyphClass: 2
Flags: MW
LayerCount: 2
Fore
SplineSet
757.5 1104 m 128,-1,1
 784 1104 784 1104 803 1085 c 128,-1,2
 822 1066 822 1066 822 1039 c 2,3,-1
 822 723 l 1,4,5
 1213 771 1213 771 1282 744 c 0,6,7
 1393 701 1393 701 1396 624 c 0,8,9
 1397 597 1397 597 1378.5 577 c 128,-1,10
 1360 557 1360 557 1335 556 c 0,11,12
 1280 554 1280 554 1268 608 c 1,13,14
 1200 639 1200 639 822 592 c 1,15,-1
 822 89 l 2,16,17
 822 62 822 62 803 43 c 128,-1,18
 784 24 784 24 757.5 24 c 128,-1,19
 731 24 731 24 711.5 43.5 c 128,-1,20
 692 63 692 63 692 89 c 2,21,-1
 692 575 l 1,22,23
 685 574 685 574 519 552.5 c 128,-1,24
 353 531 353 531 287 538 c 0,25,26
 200 548 200 548 166 561 c 0,27,28
 91 592 91 592 98.5 655.5 c 128,-1,29
 106 719 106 719 152 773 c 0,30,31
 348 1003 348 1003 399.5 1070.5 c 128,-1,32
 451 1138 451 1138 572 1317 c 0,33,34
 608 1371 608 1371 646 1346 c 0,35,36
 716 1299 716 1299 680 1245 c 0,37,38
 557 1062 557 1062 502.5 991.5 c 128,-1,39
 448 921 448 921 346 801.5 c 128,-1,40
 244 682 244 682 240 675 c 1,41,42
 324 658 324 658 501 681.5 c 128,-1,43
 678 705 678 705 692 706 c 1,44,-1
 692 1039 l 2,45,46
 692 1066 692 1066 711.5 1085 c 128,-1,0
 731 1104 731 1104 757.5 1104 c 128,-1,1
EndSplineSet
EndChar

StartChar: five
Encoding: 22 53 22
Width: 1306
GlyphClass: 2
Flags: MW
LayerCount: 2
Fore
SplineSet
1203 1381.5 m 132,-1,1
 1212 1356 1212 1356 1200 1331.5 c 132,-1,2
 1188 1307 1188 1307 1163 1299 c 4,3,4
 975 1234 975 1234 703 1248 c 4,5,6
 596 1254 596 1254 450.5 1264.5 c 132,-1,7
 305 1275 305 1275 255 1253 c 5,8,9
 241 1226 241 1226 231 1096 c 132,-1,10
 221 966 221 966 246 763 c 5,11,12
 633 932 633 932 870 864 c 4,13,14
 1044 814 1044 814 1095.5 661.5 c 132,-1,15
 1147 509 1147 509 1074 344.5 c 132,-1,16
 1001 180 1001 180 845 86 c 4,17,18
 625 -48 625 -48 347 26 c 4,19,20
 254 50 254 50 160 98 c 4,21,22
 136 110 136 110 127.5 136 c 132,-1,23
 119 162 119 162 131 185.5 c 132,-1,24
 143 209 143 209 169 217.5 c 132,-1,25
 195 226 195 226 219 214 c 4,26,27
 538 52 538 52 778 197 c 4,28,29
 899 270 899 270 953.5 393 c 132,-1,30
 1008 516 1008 516 975.5 612 c 132,-1,31
 943 708 943 708 834 739 c 4,32,33
 621 800 621 800 224 610 c 4,34,35
 191 594 191 594 164 611.5 c 132,-1,36
 137 629 137 629 132 655 c 4,37,38
 115 738 115 738 104 893 c 132,-1,39
 93 1048 93 1048 104.5 1158 c 132,-1,40
 116 1268 116 1268 132.5 1304.5 c 132,-1,41
 149 1341 149 1341 190 1366 c 4,42,43
 259 1408 259 1408 521.5 1388.5 c 132,-1,44
 784 1369 784 1369 909.5 1380.5 c 132,-1,45
 1035 1392 1035 1392 1120 1421 c 4,46,47
 1145 1430 1145 1430 1169.5 1418.5 c 132,-1,0
 1194 1407 1194 1407 1203 1381.5 c 132,-1,1
EndSplineSet
EndChar

StartChar: six
Encoding: 23 54 23
Width: 1177
GlyphClass: 2
Flags: MW
LayerCount: 2
Fore
SplineSet
663 1314 m 0,0,1
 697 1259 697 1259 635 1221 c 0,2,3
 435 1098 435 1098 305 817 c 0,4,5
 234 664 234 664 231 540 c 0,6,7
 224 150 224 150 618 156 c 0,8,9
 828 159 828 159 894.5 243 c 128,-1,10
 961 327 961 327 942 412 c 128,-1,11
 923 497 923 497 844 552.5 c 128,-1,12
 765 608 765 608 655.5 574.5 c 128,-1,13
 546 541 546 541 472 470.5 c 128,-1,14
 398 400 398 400 353 447 c 128,-1,15
 308 494 308 494 355 539 c 0,16,17
 479 657 479 657 633 704.5 c 128,-1,18
 787 752 787 752 913 663 c 128,-1,19
 1039 574 1039 574 1070.5 434.5 c 128,-1,20
 1102 295 1102 295 997 162 c 128,-1,21
 892 29 892 29 620 26 c 0,22,23
 245 21 245 21 132 308 c 0,24,25
 75 452 75 452 108 613 c 0,26,27
 184 977 184 977 396.5 1189.5 c 128,-1,28
 609 1402 609 1402 663 1314 c 0,0,1
EndSplineSet
EndChar

StartChar: seven
Encoding: 24 55 24
Width: 1200
GlyphClass: 2
Flags: MW
LayerCount: 2
Fore
SplineSet
102.5 1205 m 128,-1,1
 93 1230 93 1230 104 1255 c 128,-1,2
 115 1280 115 1280 140 1289 c 0,3,4
 631 1474 631 1474 857 1416 c 0,5,6
 1148 1342 1148 1342 1088 911 c 0,7,8
 1070 785 1070 785 993.5 490 c 128,-1,9
 917 195 917 195 904 65 c 0,10,11
 901 39 901 39 880.5 21.5 c 128,-1,12
 860 4 860 4 833.5 6.5 c 128,-1,13
 807 9 807 9 789.5 30 c 128,-1,14
 772 51 772 51 775 77 c 0,15,16
 789 217 789 217 865.5 513.5 c 128,-1,17
 942 810 942 810 957 913 c 0,18,19
 994 1168 994 1168 910 1247 c 0,20,21
 847 1306 847 1306 667 1293.5 c 128,-1,22
 487 1281 487 1281 186 1167 c 0,23,24
 161 1158 161 1158 136.5 1169 c 128,-1,0
 112 1180 112 1180 102.5 1205 c 128,-1,1
EndSplineSet
EndChar

StartChar: eight
Encoding: 25 56 25
Width: 1189
GlyphClass: 2
Flags: MW
LayerCount: 2
Fore
SplineSet
820.5 1001.5 m 128,-1,1
 759 1023 759 1023 775 1070.5 c 128,-1,2
 791 1118 791 1118 718.5 1157 c 128,-1,3
 646 1196 646 1196 466 1193.5 c 128,-1,4
 286 1191 286 1191 243 1106.5 c 128,-1,5
 200 1022 200 1022 307 883 c 1,6,7
 417 795 417 795 528 729 c 1,8,9
 590 776 590 776 729.5 873 c 128,-1,10
 869 970 869 970 918 1022 c 128,-1,11
 967 1074 967 1074 1014.5 1029.5 c 128,-1,12
 1062 985 1062 985 1008 928 c 128,-1,13
 954 871 954 871 822.5 779.5 c 128,-1,14
 691 688 691 688 656 662 c 1,15,16
 679 651 679 651 787 602.5 c 128,-1,17
 895 554 895 554 967 472.5 c 128,-1,18
 1039 391 1039 391 1071.5 325 c 128,-1,19
 1104 259 1104 259 1081 185.5 c 128,-1,20
 1058 112 1058 112 959.5 51 c 128,-1,21
 861 -10 861 -10 657 -12 c 128,-1,22
 453 -14 453 -14 344 44 c 0,23,24
 -32 246 -32 246 420 643 c 1,25,26
 243 755 243 755 206 802 c 0,27,28
 114 918 114 918 100.5 1036.5 c 128,-1,29
 87 1155 87 1155 196.5 1238.5 c 128,-1,30
 306 1322 306 1322 492 1324 c 128,-1,31
 678 1326 678 1326 771 1276 c 0,32,33
 951 1179 951 1179 903 1042 c 0,34,0
 882 980 882 980 820.5 1001.5 c 128,-1,1
540 574 m 1,35,36
 343 414 343 414 310 292 c 0,37,38
 291 221 291 221 388 168.5 c 128,-1,39
 485 116 485 116 654 117.5 c 128,-1,40
 823 119 823 119 888.5 159.5 c 128,-1,41
 954 200 954 200 961 221.5 c 128,-1,42
 968 243 968 243 941 290 c 0,43,44
 867 418 867 418 741 480 c 0,45,46
 701 500 701 500 648.5 523 c 128,-1,47
 596 546 596 546 540 574 c 1,35,36
EndSplineSet
EndChar

StartChar: nine
Encoding: 26 57 26
Width: 1114
GlyphClass: 2
Flags: MW
LayerCount: 2
Fore
SplineSet
1008 1175 m 128,-1,1
 996 1151 996 1151 970.5 1142.5 c 128,-1,2
 945 1134 945 1134 921 1145 c 0,3,4
 606 1299 606 1299 413 1215 c 0,5,6
 302 1167 302 1167 258 1056.5 c 128,-1,7
 214 946 214 946 238.5 853.5 c 128,-1,8
 263 761 263 761 321 736 c 0,9,10
 411 697 411 697 557 810 c 0,11,12
 669 897 669 897 793 1065 c 0,13,14
 809 1086 809 1086 836 1090 c 128,-1,15
 863 1094 863 1094 883.5 1079 c 128,-1,16
 904 1064 904 1064 909 1040 c 0,17,18
 979 725 979 725 897 29 c 0,19,20
 894 3 894 3 872.5 -14 c 128,-1,21
 851 -31 851 -31 824.5 -28 c 128,-1,22
 798 -25 798 -25 781 -3.5 c 128,-1,23
 764 18 764 18 767 44 c 0,24,25
 827 550 827 550 802 868 c 1,26,27
 717 771 717 771 637 708 c 0,28,29
 430 547 430 547 269 617 c 0,30,31
 154 667 154 667 115.5 810.5 c 128,-1,32
 77 954 77 954 139.5 1109.5 c 128,-1,33
 202 1265 202 1265 362 1335 c 0,34,35
 610 1443 610 1443 978 1262 c 0,36,37
 1002 1250 1002 1250 1011 1224.5 c 128,-1,0
 1020 1199 1020 1199 1008 1175 c 128,-1,1
EndSplineSet
EndChar

StartChar: less
Encoding: 29 60 29
Width: 1250
GlyphClass: 2
Flags: MW
LayerCount: 2
Fore
SplineSet
1143.5 929.5 m 128,-1,1
 1153 905 1153 905 1142 880 c 128,-1,2
 1131 855 1131 855 1106 846 c 0,3,4
 973 794 973 794 749 710 c 0,5,6
 397 578 397 578 307 533 c 0,7,8
 261 510 261 510 238 490 c 1,9,10
 264 469 264 469 320 443 c 0,11,12
 422 396 422 396 820 256 c 2,13,-1
 824 255 l 2,14,15
 1004 192 1004 192 1108 156 c 0,16,17
 1133 147 1133 147 1144.5 122.5 c 128,-1,18
 1156 98 1156 98 1147 73 c 128,-1,19
 1138 48 1138 48 1113.5 36 c 128,-1,20
 1089 24 1089 24 1064 33 c 0,21,22
 961 69 961 69 782 132 c 2,23,-1
 777 134 l 2,24,25
 373 275 373 275 266 325 c 0,26,27
 235 340 235 340 217.5 348.5 c 128,-1,28
 200 357 200 357 174.5 373.5 c 128,-1,29
 149 390 149 390 135.5 405 c 128,-1,30
 122 420 122 420 111 442 c 128,-1,31
 100 464 100 464 100 488 c 0,32,33
 100 512 100 512 109 533.5 c 128,-1,34
 118 555 118 555 130.5 570 c 128,-1,35
 143 585 143 585 165.5 601 c 128,-1,36
 188 617 188 617 204.5 626 c 128,-1,37
 221 635 221 635 248 649 c 0,38,39
 344 697 344 697 703 832 c 0,40,41
 927 916 927 916 1060 967 c 0,42,43
 1085 977 1085 977 1109.5 965.5 c 128,-1,0
 1134 954 1134 954 1143.5 929.5 c 128,-1,1
EndSplineSet
EndChar

StartChar: question
Encoding: 32 63 32
Width: 984
GlyphClass: 2
Flags: MW
LayerCount: 2
Fore
SplineSet
189 971.5 m 132,-1,1
 163 966 163 966 140.5 980.5 c 132,-1,2
 118 995 118 995 112 1021 c 4,3,4
 71 1214 71 1214 166 1315 c 4,5,6
 303 1461 303 1461 573.5 1374.5 c 132,-1,7
 844 1288 844 1288 880 1142 c 4,8,9
 912 1011 912 1011 687 827 c 4,10,11
 588 746 588 746 546.5 684.5 c 132,-1,12
 505 623 505 623 507 555 c 4,13,14
 509 443 509 443 577 353 c 4,15,16
 593 332 593 332 589.5 305 c 132,-1,17
 586 278 586 278 564.5 261.5 c 132,-1,18
 543 245 543 245 516 249 c 132,-1,19
 489 253 489 253 473 274 c 4,20,21
 379 398 379 398 377 553 c 4,22,23
 375 662 375 662 450 774 c 4,24,25
 491 834 491 834 591 916 c 132,-1,26
 691 998 691 998 741 1067 c 5,27,28
 764 1093 764 1093 758 1114 c 4,29,30
 750 1147 750 1147 678 1187 c 132,-1,31
 606 1227 606 1227 529 1252 c 4,32,33
 342 1312 342 1312 261 1226 c 4,34,35
 213 1174 213 1174 240 1048 c 4,36,37
 246 1022 246 1022 230.5 999.5 c 132,-1,0
 215 977 215 977 189 971.5 c 132,-1,1
412 2 m 132,-1,39
 412 57 412 57 443 96 c 132,-1,40
 474 135 474 135 517.5 135 c 132,-1,41
 561 135 561 135 592 96 c 132,-1,42
 623 57 623 57 623 2 c 132,-1,43
 623 -53 623 -53 592 -92 c 132,-1,44
 561 -131 561 -131 517.5 -131 c 132,-1,45
 474 -131 474 -131 443 -92 c 132,-1,38
 412 -53 412 -53 412 2 c 132,-1,39
EndSplineSet
EndChar

StartChar: at
Encoding: 33 64 33
Width: 1555
GlyphClass: 2
Flags: MW
LayerCount: 2
Fore
SplineSet
987 581 m 0,0,1
 1013 553 1013 553 1043.5 486 c 128,-1,2
 1074 419 1074 419 1053 330 c 0,3,4
 1051 323 1051 323 1054.5 272.5 c 128,-1,5
 1058 222 1058 222 1080.5 166 c 128,-1,6
 1103 110 1103 110 1131 94 c 1,7,8
 1158 71 1158 71 1216.5 115.5 c 128,-1,9
 1275 160 1275 160 1303 254 c 0,10,11
 1353 425 1353 425 1290 587 c 0,12,13
 1213 786 1213 786 957 845 c 0,14,15
 451 961 451 961 287 572 c 0,16,17
 250 485 250 485 234 376 c 0,18,19
 234 374 234 374 230 356 c 128,-1,20
 226 338 226 338 233 268 c 0,21,22
 253 60 253 60 383 -78 c 0,23,24
 532 -237 532 -237 803 -217 c 0,25,26
 829 -215 829 -215 849.5 -233 c 128,-1,27
 870 -251 870 -251 872 -277.5 c 128,-1,28
 874 -304 874 -304 856.5 -324.5 c 128,-1,29
 839 -345 839 -345 812 -347 c 0,30,31
 640 -360 640 -360 507.5 -310.5 c 128,-1,32
 375 -261 375 -261 288 -167 c 0,33,34
 128 4 128 4 104 255 c 0,35,36
 95 343 95 343 106 397 c 1,37,38
 125 522 125 522 168 623 c 0,39,40
 270 865 270 865 483 951.5 c 128,-1,41
 696 1038 696 1038 1002.5 967.5 c 128,-1,42
 1309 897 1309 897 1411 634 c 0,43,44
 1490 430 1490 430 1428 217 c 0,45,46
 1388 82 1388 82 1282 2 c 128,-1,47
 1176 -78 1176 -78 1065 -18 c 1,48,49
 998 21 998 21 962 111 c 1,50,51
 877 -19 877 -19 763.5 -35.5 c 128,-1,52
 650 -52 650 -52 549 -2.5 c 128,-1,53
 448 47 448 47 416 162 c 128,-1,54
 384 277 384 277 415.5 397.5 c 128,-1,55
 447 518 447 518 551 599.5 c 128,-1,56
 655 681 655 681 827 660 c 0,57,58
 927 647 927 647 987 581 c 0,0,1
926 340.5 m 0,59,60
 927 343 927 343 926.5 348.5 c 128,-1,61
 926 354 926 354 930 384 c 128,-1,62
 934 414 934 414 918.5 447.5 c 128,-1,63
 903 481 903 481 883 502.5 c 128,-1,64
 863 524 863 524 811 531 c 0,65,66
 692 546 692 546 626.5 494.5 c 128,-1,67
 561 443 561 443 540 360.5 c 128,-1,68
 519 278 519 278 538 208.5 c 128,-1,69
 557 139 557 139 600 118 c 1,70,71
 682 81 682 81 732 88 c 0,72,73
 844 104 844 104 925 338 c 0,74,-1
 926 340.5 l 0,59,60
EndSplineSet
EndChar

StartChar: braceleft
Encoding: 34 123 34
Width: 1096
GlyphClass: 2
Flags: MW
LayerCount: 2
Fore
SplineSet
409 502 m 1,0,1
 544 415 544 415 558 219 c 1,2,3
 564 170 564 170 555 83 c 128,-1,4
 546 -4 546 -4 544 -23 c 0,5,6
 532 -169 532 -169 554 -244 c 0,7,8
 595 -383 595 -383 685 -432 c 0,9,10
 735 -459 735 -459 791.5 -457.5 c 128,-1,11
 848 -456 848 -456 883.5 -433.5 c 128,-1,12
 919 -411 919 -411 945.5 -417 c 128,-1,13
 972 -423 972 -423 986 -445 c 128,-1,14
 1000 -467 1000 -467 994.5 -493.5 c 128,-1,15
 989 -520 989 -520 966 -535 c 0,16,17
 888 -585 888 -585 796 -588 c 128,-1,18
 704 -591 704 -591 629 -550 c 0,19,20
 381 -414 381 -414 415 -12 c 0,21,22
 417 8 417 8 425 89.5 c 128,-1,23
 433 171 433 171 430.5 188.5 c 128,-1,24
 428 206 428 206 426.5 233.5 c 128,-1,25
 425 261 425 261 409 303 c 0,26,27
 372 399 372 399 280 414 c 1,28,29
 223 394 223 394 179.5 395.5 c 128,-1,30
 136 397 136 397 117.5 417 c 128,-1,31
 99 437 99 437 100.5 470 c 128,-1,32
 102 503 102 503 138 520 c 0,33,34
 196 546 196 546 258 546 c 1,35,36
 336 587 336 587 353 676 c 0,37,38
 361 718 361 718 353.5 759.5 c 128,-1,39
 346 801 346 801 304 894.5 c 128,-1,40
 262 988 262 988 252 1057 c 128,-1,41
 242 1126 242 1126 266 1202.5 c 128,-1,42
 290 1279 290 1279 346 1335 c 128,-1,43
 402 1391 402 1391 479.5 1414 c 128,-1,44
 557 1437 557 1437 637 1417.5 c 128,-1,45
 717 1398 717 1398 775 1338 c 0,46,47
 794 1319 794 1319 793.5 1292 c 128,-1,48
 793 1265 793 1265 774 1246 c 128,-1,49
 755 1227 755 1227 728 1227.5 c 128,-1,50
 701 1228 701 1228 675.5 1254 c 128,-1,51
 650 1280 650 1280 605 1291 c 0,52,53
 509 1315 509 1315 438 1243.5 c 128,-1,54
 367 1172 367 1172 382 1068 c 0,55,56
 388 1025 388 1025 429.5 932.5 c 128,-1,57
 471 840 471 840 482 779 c 0,58,59
 512 621 512 621 409 502 c 1,0,1
EndSplineSet
EndChar

StartChar: asciitilde
Encoding: 37 126 37
Width: 1531
GlyphClass: 2
Flags: MW
LayerCount: 2
Fore
SplineSet
141.5 573.5 m 128,-1,1
 117 583 117 583 106 608 c 128,-1,2
 95 633 95 633 105 658 c 0,3,4
 147 766 147 766 243 829 c 0,5,6
 402 935 402 935 593 864 c 0,7,8
 659 839 659 839 751.5 787 c 128,-1,9
 844 735 844 735 877 721 c 0,10,11
 1024 660 1024 660 1139 707 c 128,-1,12
 1254 754 1254 754 1312 846 c 0,13,14
 1326 868 1326 868 1352.5 874 c 128,-1,15
 1379 880 1379 880 1401.5 866 c 128,-1,16
 1424 852 1424 852 1430 825.5 c 128,-1,17
 1436 799 1436 799 1422 776 c 0,18,19
 1342 649 1342 649 1203 593 c 0,20,21
 1023 520 1023 520 827 601 c 0,22,23
 787 618 787 618 696 669.5 c 128,-1,24
 605 721 605 721 548 742 c 0,25,26
 419 790 419 790 315 721 c 0,27,28
 253 680 253 680 226 610 c 0,29,30
 216 585 216 585 191 574.5 c 128,-1,0
 166 564 166 564 141.5 573.5 c 128,-1,1
EndSplineSet
EndChar

StartChar: anuswara
Encoding: 39 3330 39
Width: 852
GlyphClass: 2
Flags: MW
LayerCount: 2
Fore
SplineSet
615 225 m 0,0,1
 632 267 632 267 618 311 c 0,2,3
 571 465 571 465 385 444 c 0,4,5
 328 438 328 438 291.5 410.5 c 128,-1,6
 255 383 255 383 242 356 c 128,-1,7
 229 329 229 329 230 290 c 0,8,9
 232 218 232 218 292 159 c 128,-1,10
 352 100 352 100 465 116.5 c 128,-1,11
 578 133 578 133 615 225 c 0,0,1
196 72 m 0,12,13
 105 162 105 162 100.5 294 c 128,-1,14
 96 426 96 426 206 509 c 0,15,16
 277 563 277 563 363 572 c 0,17,18
 570 595 570 595 685 461 c 0,19,20
 746 390 746 390 752.5 284.5 c 128,-1,21
 759 179 759 179 685.5 92.5 c 128,-1,22
 612 6 612 6 460 -15.5 c 128,-1,23
 308 -37 308 -37 196 72 c 0,12,13
EndSplineSet
EndChar

StartChar: ml_a
Encoding: 41 3333 41
Width: 3025
GlyphClass: 2
Flags: MW
LayerCount: 2
Fore
SplineSet
1652 42 m 1,0,1
 1631 210 1631 210 1649 350 c 1,2,3
 1622 731 1622 731 1457 842 c 0,4,5
 1333 925 1333 925 1140 844 c 0,6,7
 1019 793 1019 793 914 700 c 1,8,9
 1072 698 1072 698 1166 649 c 0,10,11
 1350 554 1350 554 1345 359 c 128,-1,12
 1340 164 1340 164 1198 57 c 0,13,14
 1081 -32 1081 -32 928 -17.5 c 128,-1,15
 775 -3 775 -3 681 113 c 0,16,17
 568 253 568 253 608 476 c 0,18,19
 632 609 632 609 796 768 c 1,20,21
 829 824 829 824 822 841 c 0,22,23
 794 910 794 910 648.5 904 c 128,-1,24
 503 898 503 898 376.5 820.5 c 128,-1,25
 250 743 250 743 233 616 c 0,26,27
 203 399 203 399 519 105 c 0,28,29
 538 87 538 87 539 60 c 128,-1,30
 540 33 540 33 522 13.5 c 128,-1,31
 504 -6 504 -6 477 -7 c 128,-1,32
 450 -8 450 -8 430 10 c 0,33,34
 65 350 65 350 104 634 c 0,35,36
 130 821 130 821 317 936 c 0,37,38
 464 1026 464 1026 638.5 1033.5 c 128,-1,39
 813 1041 813 1041 896 960 c 0,40,41
 930 927 930 927 943 885 c 1,42,43
 1014 931 1014 931 1090 964 c 0,44,45
 1348 1071 1348 1071 1529 950 c 0,46,47
 1671 855 1671 855 1734 634 c 1,48,49
 1868 899 1868 899 2131 990 c 0,50,51
 2341 1062 2341 1062 2544 990 c 0,52,53
 2801 898 2801 898 2897 619 c 1,54,55
 2955 439 2955 439 2892 284 c 1,56,57
 2893 249 2893 249 2865 228 c 1,58,59
 2811 136 2811 136 2728 76 c 0,60,61
 2582 -29 2582 -29 2413.5 -28.5 c 128,-1,62
 2245 -28 2245 -28 2154 55 c 0,63,64
 2042 158 2042 158 2089 316 c 0,65,66
 2112 394 2112 394 2167.5 468 c 128,-1,67
 2223 542 2223 542 2303 578 c 128,-1,68
 2383 614 2383 614 2455 614 c 0,69,70
 2657 616 2657 616 2795 469 c 1,71,72
 2790 563 2790 563 2739 658 c 0,73,74
 2657 812 2657 812 2499 868 c 128,-1,75
 2341 924 2341 924 2170 865 c 128,-1,76
 1999 806 1999 806 1891 645 c 0,77,78
 1804 515 1804 515 1780 346 c 1,79,80
 1788 212 1788 212 1781 54 c 0,81,82
 1780 27 1780 27 1759.5 9 c 128,-1,83
 1739 -9 1739 -9 1716 -8 c 0,84,85
 1669 -6 1669 -6 1652 42 c 1,0,1
788 563 m 1,86,87
 744 501 744 501 736 453 c 0,88,89
 707 288 707 288 782 194 c 0,90,91
 841 121 841 121 941.5 112 c 128,-1,92
 1042 103 1042 103 1126.5 166.5 c 128,-1,93
 1211 230 1211 230 1215 362 c 0,94,95
 1217 422 1217 422 1194 461 c 128,-1,96
 1171 500 1171 500 1118 527 c 0,97,98
 1003 587 1003 587 788 563 c 1,86,87
2754 297 m 1,99,100
 2725 370 2725 370 2645 427.5 c 128,-1,101
 2565 485 2565 485 2459 484.5 c 128,-1,102
 2353 484 2353 484 2279 399 c 1,103,104
 2155 231 2155 231 2242 151 c 0,105,106
 2295 102 2295 102 2417.5 101.5 c 128,-1,107
 2540 101 2540 101 2646 178 c 0,108,109
 2714 227 2714 227 2754 297 c 1,99,100
EndSplineSet
EndChar

StartChar: ml_aa
Encoding: 42 3334 42
Width: 3282
GlyphClass: 2
Flags: MW
LayerCount: 2
Fore
SplineSet
1734 631 m 1,0,1
 1868 897 1868 897 2130 988 c 0,2,3
 2340 1061 2340 1061 2542 990 c 0,4,5
 2787 903 2787 903 2887 643 c 1,6,7
 2962 605 2962 605 3025 540 c 0,8,9
 3155 408 3155 408 3179 213 c 128,-1,10
 3203 18 3203 18 3065 -148 c 0,11,12
 2817 -446 2817 -446 2174 -430 c 0,13,14
 2147 -429 2147 -429 2128.5 -409.5 c 128,-1,15
 2110 -390 2110 -390 2110.5 -363.5 c 128,-1,16
 2111 -337 2111 -337 2131 -318 c 128,-1,17
 2151 -299 2151 -299 2177 -300 c 0,18,19
 2756 -315 2756 -315 2965 -65 c 0,20,21
 3067 57 3067 57 3049 205 c 128,-1,22
 3031 353 3031 353 2925 457 c 1,23,24
 2927 318 2927 318 2864 219 c 0,25,26
 2746 37 2746 37 2553 -17 c 0,27,28
 2405 -58 2405 -58 2271 -18 c 0,29,30
 2202 2 2202 2 2153 48 c 0,31,32
 2043 150 2043 150 2089 310 c 0,33,34
 2112 388 2112 388 2176 474 c 0,35,36
 2179 479 2179 479 2183 483 c 0,37,38
 2440 724 2440 724 2716 693 c 1,39,40
 2635 819 2635 819 2487 871.5 c 128,-1,41
 2339 924 2339 924 2168.5 864.5 c 128,-1,42
 1998 805 1998 805 1891 643 c 0,43,44
 1804 511 1804 511 1780 340 c 1,45,46
 1788 205 1788 205 1781 46 c 0,47,48
 1780 19 1780 19 1759.5 1 c 128,-1,49
 1739 -17 1739 -17 1714 -16 c 128,-1,50
 1689 -15 1689 -15 1671.5 2 c 128,-1,51
 1654 19 1654 19 1651 41 c 0,52,53
 1631 203 1631 203 1649 344 c 1,54,55
 1622 732 1622 732 1455 842 c 0,56,57
 1331 923 1331 923 1139 842 c 0,58,59
 1018 791 1018 791 912 696 c 1,60,61
 1071 694 1071 694 1166 645 c 0,62,63
 1350 549 1350 549 1345 353.5 c 128,-1,64
 1340 158 1340 158 1198 50 c 0,65,66
 1081 -39 1081 -39 927.5 -25 c 128,-1,67
 774 -11 774 -11 681 106 c 0,68,69
 568 247 568 247 608 471 c 0,70,71
 632 605 632 605 795 765 c 1,72,73
 829 823 829 823 822 840 c 0,74,75
 794 911 794 911 647.5 903.5 c 128,-1,76
 501 896 501 896 375 818 c 128,-1,77
 249 740 249 740 232 612 c 0,78,79
 203 393 203 393 519 97 c 0,80,81
 538 79 538 79 539 51.5 c 128,-1,82
 540 24 540 24 522 4.5 c 128,-1,83
 504 -15 504 -15 476.5 -15.5 c 128,-1,84
 449 -16 449 -16 430 2 c 0,85,86
 66 344 66 344 104 630 c 0,87,88
 129 818 129 818 314 933 c 0,89,90
 461 1024 461 1024 635.5 1032.5 c 128,-1,91
 810 1041 810 1041 895 961 c 0,92,93
 930 928 930 928 943 884 c 1,94,95
 1013 930 1013 930 1088 962 c 0,96,97
 1344 1070 1344 1070 1526 951 c 0,98,99
 1670 856 1670 856 1734 631 c 1,0,1
788 560 m 1,100,101
 744 498 744 498 736 449 c 0,102,103
 707 282 707 282 783 187 c 0,104,105
 842 113 842 113 942 103.5 c 128,-1,106
 1042 94 1042 94 1126.5 158.5 c 128,-1,107
 1211 223 1211 223 1215 357 c 0,108,109
 1217 418 1217 418 1194 457 c 128,-1,110
 1171 496 1171 496 1117 524 c 0,111,112
 1003 584 1003 584 788 560 c 1,100,101
2781 546 m 1,113,114
 2533 630 2533 630 2277 392 c 1,115,116
 2155 224 2155 224 2242 143 c 0,117,118
 2295 93 2295 93 2417 93 c 128,-1,119
 2539 93 2539 93 2656.5 178 c 128,-1,120
 2774 263 2774 263 2792 409 c 0,121,122
 2800 472 2800 472 2781 546 c 1,113,114
EndSplineSet
EndChar

StartChar: ml_i
Encoding: 43 3335 43
Width: 1680
GlyphClass: 2
Flags: MW
LayerCount: 2
Fore
SplineSet
232 417 m 1,0,1
 360 521 360 521 518 433 c 0,2,3
 598 389 598 389 642.5 276.5 c 128,-1,4
 687 164 687 164 627 75 c 0,5,6
 591 21 591 21 528 3 c 0,7,8
 424 -28 424 -28 327 13 c 0,9,10
 157 85 157 85 106 361 c 0,11,12
 92 435 92 435 111 535 c 0,13,14
 147 727 147 727 265 861.5 c 128,-1,15
 383 996 383 996 533 983 c 0,16,17
 615 976 615 976 687 917 c 1,18,19
 787 843 787 843 831 707 c 1,20,21
 904 882 904 882 1022 950 c 0,22,23
 1161 1029 1161 1029 1291 949.5 c 128,-1,24
 1421 870 1421 870 1478 711 c 0,25,26
 1553 503 1553 503 1479 276 c 0,27,28
 1428 118 1428 118 1318 6 c 0,29,30
 1242 -71 1242 -71 1076 -123 c 0,31,32
 982 -153 982 -153 866.5 -158 c 128,-1,33
 751 -163 751 -163 595 -167 c 0,34,35
 280 -175 280 -175 243 -253 c 1,36,37
 248 -278 248 -278 314 -310 c 128,-1,38
 380 -342 380 -342 507 -344 c 1,39,40
 631 -334 631 -334 890 -296 c 0,41,42
 1313 -233 1313 -233 1525 -262 c 0,43,44
 1551 -266 1551 -266 1567.5 -287.5 c 128,-1,45
 1584 -309 1584 -309 1580.5 -335 c 128,-1,46
 1577 -361 1577 -361 1555.5 -377.5 c 128,-1,47
 1534 -394 1534 -394 1488 -388 c 0,48,49
 1314 -365 1314 -365 848 -434 c 0,50,51
 571 -475 571 -475 501 -474 c 0,52,53
 268 -472 268 -472 163 -363 c 0,54,55
 112 -311 112 -311 113 -261 c 0,56,57
 116 -114 116 -114 333 -63 c 0,58,59
 424 -42 424 -42 684 -35 c 128,-1,60
 944 -28 944 -28 1058.5 8 c 128,-1,61
 1173 44 1173 44 1217 89 c 0,62,63
 1316 189 1316 189 1356 317 c 0,64,65
 1415 503 1415 503 1356 667 c 0,66,67
 1314 783 1314 783 1236 831 c 128,-1,68
 1158 879 1158 879 1087 837 c 0,69,70
 967 768 967 768 904 510 c 0,71,72
 904 508 904 508 890 464.5 c 128,-1,73
 876 421 876 421 886.5 299.5 c 128,-1,74
 897 178 897 178 887 70 c 0,75,76
 885 46 885 46 866 28.5 c 128,-1,77
 847 11 847 11 821 11 c 128,-1,78
 795 11 795 11 776 30 c 128,-1,79
 757 49 757 49 757 76 c 0,80,81
 757 412 757 412 736 545 c 128,-1,82
 715 678 715 678 680 732.5 c 128,-1,83
 645 787 645 787 609 813 c 0,84,85
 608 814 608 814 607 815 c 0,86,87
 485 914 485 914 355 766 c 0,88,89
 268 667 268 667 240 520 c 0,90,91
 231 467 231 467 232 417 c 1,0,1
254 305 m 1,92,93
 285 211 285 211 342 156.5 c 128,-1,94
 399 102 399 102 485 125 c 1,95,96
 554 147 554 147 518 237 c 0,97,98
 494 298 494 298 436.5 331 c 128,-1,99
 379 364 379 364 312 315 c 0,100,101
 286 296 286 296 254 305 c 1,92,93
EndSplineSet
EndChar

StartChar: ml_u
Encoding: 45 3337 45
Width: 1211
GlyphClass: 2
Flags: MW
LayerCount: 2
Fore
SplineSet
290 607 m 1,0,1
 265 506 265 506 295 454 c 128,-1,2
 325 402 325 402 361.5 390 c 128,-1,3
 398 378 398 378 440 403 c 128,-1,4
 482 428 482 428 501.5 484.5 c 128,-1,5
 521 541 521 541 500 570.5 c 128,-1,6
 479 600 479 600 375 563 c 0,7,8
 350 554 350 554 324 566 c 128,-1,9
 298 578 298 578 290 607 c 1,0,1
315 677 m 1,10,11
 322 682 322 682 331 685 c 0,12,13
 527 755 527 755 608 643 c 0,14,15
 666 563 666 563 627.5 452 c 128,-1,16
 589 341 589 341 501 288.5 c 128,-1,17
 413 236 413 236 325 265.5 c 128,-1,18
 237 295 237 295 190 376 c 0,19,20
 114 509 114 509 179 687 c 0,21,22
 219 799 219 799 312 881 c 0,23,24
 442 994 442 994 619 996.5 c 128,-1,25
 796 999 796 999 933 860 c 128,-1,26
 1070 721 1070 721 1082 455 c 0,27,28
 1089 308 1089 308 1022 196 c 0,29,30
 974 116 974 116 838 54 c 0,31,32
 762 19 762 19 662.5 4.5 c 128,-1,33
 563 -10 563 -10 483 -20 c 0,34,35
 187 -57 187 -57 133 -113 c 1,36,37
 157 -132 157 -132 221 -143.5 c 128,-1,38
 285 -155 285 -155 332 -153 c 128,-1,39
 379 -151 379 -151 482 -143 c 0,40,41
 1008 -99 1008 -99 1306 -131 c 0,42,43
 1332 -134 1332 -134 1349 -155 c 128,-1,44
 1366 -176 1366 -176 1363.5 -202.5 c 128,-1,45
 1361 -229 1361 -229 1339.5 -246 c 128,-1,46
 1318 -263 1318 -263 1292 -260 c 0,47,48
 1007 -229 1007 -229 486 -273 c 0,49,50
 376 -282 376 -282 326 -283.5 c 128,-1,51
 276 -285 276 -285 198 -271 c 0,52,53
 21 -239 21 -239 2 -134 c 0,54,55
 -19 -19 -19 -19 161 48 c 0,56,57
 236 76 236 76 310.5 87.5 c 128,-1,58
 385 99 385 99 549 119.5 c 128,-1,59
 713 140 713 140 798 179 c 128,-1,60
 883 218 883 218 906 256 c 0,61,62
 957 341 957 341 952 449 c 0,63,64
 942 666 942 666 832 778 c 0,65,66
 742 869 742 869 616.5 867 c 128,-1,67
 491 865 491 865 398 783 c 0,68,69
 344 737 344 737 315 677 c 1,10,11
EndSplineSet
EndChar

StartChar: ml_r
Encoding: 47 3339 47
Width: 1863
GlyphClass: 2
Flags: MW
LayerCount: 2
Fore
SplineSet
760 539 m 5,0,1
 854 500 854 500 1028 433 c 5,2,3
 1162 490 1162 490 1279 542 c 5,4,5
 1053 722 1053 722 1071 843.5 c 132,-1,6
 1089 965 1089 965 1228 986 c 132,-1,7
 1367 1007 1367 1007 1509.5 957 c 132,-1,8
 1652 907 1652 907 1690 806 c 4,9,10
 1748 652 1748 652 1514 508 c 4,11,12
 1476 485 1476 485 1200 365 c 5,13,14
 1555 220 1555 220 1653 136.5 c 132,-1,15
 1751 53 1751 53 1761 -34 c 4,16,17
 1783 -215 1783 -215 1581.5 -313 c 132,-1,18
 1380 -411 1380 -411 1095.5 -411 c 132,-1,19
 811 -411 811 -411 580 -313.5 c 132,-1,20
 349 -216 349 -216 344 -23 c 4,21,22
 341 92 341 92 564 216 c 4,23,24
 674 277 674 277 857 359 c 5,25,26
 232 605 232 605 134 743 c 4,27,28
 74 828 74 828 121.5 888.5 c 132,-1,29
 169 949 169 949 234.5 966.5 c 132,-1,30
 300 984 300 984 446.5 987.5 c 132,-1,31
 593 991 593 991 714 952 c 4,32,33
 1010 856 1010 856 946 709 c 4,34,35
 906 616 906 616 760 539 c 5,0,1
1030 293 m 5,36,37
 498 67 498 67 474 -20 c 5,38,39
 478 -130 478 -130 657.5 -205.5 c 132,-1,40
 837 -281 837 -281 1094 -281 c 132,-1,41
 1351 -281 1351 -281 1467 -224 c 4,42,43
 1727 -98 1727 -98 1599.5 11 c 132,-1,44
 1472 120 1472 120 1030 293 c 5,36,37
239 826 m 5,45,46
 286 752 286 752 602 608 c 5,47,48
 607 611 607 611 634 622.5 c 132,-1,49
 661 634 661 634 712 662.5 c 132,-1,50
 763 691 763 691 794.5 721 c 132,-1,51
 826 751 826 751 815 762 c 4,52,53
 715 864 715 864 405 856 c 4,54,55
 278 854 278 854 239 826 c 5,45,46
1413 603 m 5,56,57
 1529 658 1529 658 1564 725 c 4,58,59
 1571 738 1571 738 1570 746 c 132,-1,60
 1569 754 1569 754 1568 761 c 5,61,62
 1552 805 1552 805 1453 839 c 132,-1,63
 1354 873 1354 873 1278.5 862 c 132,-1,64
 1203 851 1203 851 1202 839 c 4,65,66
 1191 766 1191 766 1413 603 c 5,56,57
EndSplineSet
EndChar

StartChar: ml_l
Encoding: 48 3340 48
Width: 1909
GlyphClass: 2
Flags: MW
LayerCount: 2
Fore
SplineSet
898 71 m 1,0,1
 879 202 879 202 896 499 c 1,2,3
 895 517 895 517 878 577 c 0,4,5
 813 809 813 809 674 869 c 0,6,7
 588 905 588 905 491 857 c 0,8,9
 340 782 340 782 257 559 c 1,10,11
 371 631 371 631 472 599 c 0,12,13
 594 561 594 561 622 431 c 0,14,15
 635 369 635 369 623 295 c 0,16,17
 586 80 586 80 458 28 c 1,18,19
 344 -13 344 -13 243 73.5 c 128,-1,20
 142 160 142 160 113 300.5 c 128,-1,21
 84 441 84 441 116 546 c 0,22,23
 180 754 180 754 304.5 878.5 c 128,-1,24
 429 1003 429 1003 580 1014 c 128,-1,25
 731 1025 731 1025 854 897 c 0,26,27
 918 831 918 831 966 720 c 1,28,29
 1034 859 1034 859 1147 937 c 0,30,31
 1298 1042 1298 1042 1463 1006.5 c 128,-1,32
 1628 971 1628 971 1724.5 831.5 c 128,-1,33
 1821 692 1821 692 1809.5 510 c 128,-1,34
 1798 328 1798 328 1760 217 c 128,-1,35
 1722 106 1722 106 1646 51 c 0,36,37
 1596 14 1596 14 1536.5 13 c 128,-1,38
 1477 12 1477 12 1424 46 c 0,39,40
 1336 101 1336 101 1303 205 c 128,-1,41
 1270 309 1270 309 1302 388 c 0,42,43
 1363 537 1363 537 1460 583.5 c 128,-1,44
 1557 630 1557 630 1663 592 c 0,45,46
 1676 588 1676 588 1678 587 c 1,47,48
 1668 685 1668 685 1609 769.5 c 128,-1,49
 1550 854 1550 854 1438 878.5 c 128,-1,50
 1326 903 1326 903 1214 825 c 0,51,52
 1080 732 1080 732 1027 498 c 1,53,54
 1048 150 1048 150 1035 64 c 1,55,56
 1050 38 1050 38 1020 14 c 0,57,58
 1008 5 1008 5 987 -1 c 0,59,60
 905 -26 905 -26 897 41 c 1,61,-1
 898 71 l 1,0,1
1674 445 m 1,62,63
 1670 447 1670 447 1659 454 c 0,64,65
 1584 499 1584 499 1511 464 c 0,66,67
 1464 442 1464 442 1428 353 c 0,68,69
 1408 304 1408 304 1427 244.5 c 128,-1,70
 1446 185 1446 185 1482.5 162.5 c 128,-1,71
 1519 140 1519 140 1534 140.5 c 128,-1,72
 1549 141 1549 141 1577 161 c 128,-1,73
 1605 181 1605 181 1633.5 254 c 128,-1,74
 1662 327 1662 327 1674 445 c 1,62,63
231 437 m 1,75,76
 228 386 228 386 238 337 c 0,77,78
 260 230 260 230 318.5 180 c 128,-1,79
 377 130 377 130 409 149 c 1,80,81
 470 174 470 174 493.5 311.5 c 128,-1,82
 517 449 517 449 433 475 c 0,83,84
 382 491 382 491 309 437 c 0,85,86
 271 408 271 408 231 437 c 1,75,76
EndSplineSet
EndChar

StartChar: ml_e
Encoding: 49 3342 49
Width: 2739
GlyphClass: 2
Flags: MW
LayerCount: 2
Fore
SplineSet
338 26.5 m 132,-1,1
 319 8 319 8 292 8 c 132,-1,2
 265 8 265 8 246 27 c 4,3,4
 53 222 53 222 115 410 c 4,5,6
 157 534 157 534 290 603 c 132,-1,7
 423 672 423 672 553 654 c 4,8,9
 703 633 703 633 749 508 c 4,10,11
 804 359 804 359 662 123 c 5,12,13
 938 109 938 109 1101 102 c 5,14,15
 1100 249 1100 249 1149 397 c 4,16,17
 1266 744 1266 744 1530 912 c 4,18,19
 1752 1052 1752 1052 1999 1029 c 132,-1,20
 2246 1006 2246 1006 2426 849 c 132,-1,21
 2606 692 2606 692 2634 439 c 4,22,23
 2684 -16 2684 -16 2197 -530 c 4,24,25
 2179 -549 2179 -549 2152 -550 c 132,-1,26
 2125 -551 2125 -551 2105.5 -532.5 c 132,-1,27
 2086 -514 2086 -514 2085.5 -487 c 132,-1,28
 2085 -460 2085 -460 2103 -440 c 4,29,30
 2549 30 2549 30 2505 425 c 4,31,32
 2483 628 2483 628 2338 754.5 c 132,-1,33
 2193 881 2193 881 1988.5 899.5 c 132,-1,34
 1784 918 1784 918 1600 802 c 4,35,36
 1375 660 1375 660 1272 356 c 4,37,38
 1228 225 1228 225 1231 96 c 5,39,40
 1624 81 1624 81 1764 128 c 4,41,42
 1866 162 1866 162 1889 253 c 4,43,44
 1890 258 1890 258 1891 262 c 4,45,46
 1917 384 1917 384 1853 749 c 4,47,48
 1848 775 1848 775 1863.5 797 c 132,-1,49
 1879 819 1879 819 1905 824 c 132,-1,50
 1931 829 1931 829 1953.5 813 c 132,-1,51
 1976 797 1976 797 1981 771 c 4,52,53
 2002 651 2002 651 2013 573 c 4,54,55
 2043 354 2043 354 2017 233 c 5,56,57
 1984 -220 1984 -220 1803 -410 c 4,58,59
 1666 -553 1666 -553 1489 -512 c 4,60,61
 1341 -478 1341 -478 1239.5 -337.5 c 132,-1,62
 1138 -197 1138 -197 1111 -29 c 5,63,64
 913 -20 913 -20 541 -1 c 4,65,66
 522 0 522 0 503.5 13.5 c 132,-1,67
 485 27 485 27 480.5 53.5 c 132,-1,68
 476 80 476 80 492 102 c 4,69,70
 583 229 583 229 614 321 c 132,-1,71
 645 413 645 413 631 451.5 c 132,-1,72
 617 490 617 490 596.5 504.5 c 132,-1,73
 576 519 576 519 535 525 c 4,74,75
 447 537 447 537 355.5 490 c 132,-1,76
 264 443 264 443 239 368 c 4,77,78
 202 256 202 256 338 118 c 4,79,80
 357 99 357 99 357 72 c 132,-1,0
 357 45 357 45 338 26.5 c 132,-1,1
1861 29 m 5,81,82
 1707 -51 1707 -51 1244 -34 c 5,83,84
 1269 -156 1269 -156 1343 -259.5 c 132,-1,85
 1417 -363 1417 -363 1518 -386 c 4,86,87
 1623 -410 1623 -410 1719 -309.5 c 132,-1,88
 1815 -209 1815 -209 1861 29 c 5,81,82
EndSplineSet
EndChar

StartChar: ml_ee
Encoding: 50 3343 50
Width: 2796
GlyphClass: 2
Flags: MW
LayerCount: 2
Fore
SplineSet
2399 596 m 1,0,1
 2417 772 2417 772 2295 855.5 c 128,-1,2
 2173 939 2173 939 1973.5 922.5 c 128,-1,3
 1774 906 1774 906 1588 776 c 0,4,5
 1362 617 1362 617 1272 349 c 0,6,7
 1228 218 1228 218 1231 89 c 1,8,9
 1624 74 1624 74 1764 121 c 0,10,11
 1866 155 1866 155 1889 246 c 0,12,13
 1890 251 1890 251 1891 255 c 0,14,15
 1917 377 1917 377 1853 742 c 0,16,17
 1848 768 1848 768 1863.5 790 c 128,-1,18
 1879 812 1879 812 1905 817 c 128,-1,19
 1931 822 1931 822 1953.5 806 c 128,-1,20
 1976 790 1976 790 1981 764 c 0,21,22
 2002 644 2002 644 2013 566 c 0,23,24
 2043 347 2043 347 2017 226 c 1,25,26
 1984 -227 1984 -227 1803 -417 c 0,27,28
 1666 -560 1666 -560 1489 -519 c 0,29,30
 1341 -485 1341 -485 1239.5 -344.5 c 128,-1,31
 1138 -204 1138 -204 1111 -36 c 1,32,33
 913 -27 913 -27 541 -8 c 0,34,35
 522 -7 522 -7 503.5 6.5 c 128,-1,36
 485 20 485 20 480.5 46.5 c 128,-1,37
 476 73 476 73 492 95 c 0,38,39
 583 222 583 222 614 314 c 128,-1,40
 645 406 645 406 631 444.5 c 128,-1,41
 617 483 617 483 596.5 497.5 c 128,-1,42
 576 512 576 512 535 518 c 0,43,44
 447 530 447 530 355.5 483 c 128,-1,45
 264 436 264 436 239 361 c 0,46,47
 202 249 202 249 338 111 c 0,48,49
 357 92 357 92 357 65 c 128,-1,50
 357 38 357 38 338 19.5 c 128,-1,51
 319 1 319 1 292 1 c 128,-1,52
 265 1 265 1 246 20 c 0,53,54
 53 215 53 215 115 403 c 0,55,56
 157 527 157 527 290 596 c 128,-1,57
 423 665 423 665 553 647 c 0,58,59
 703 626 703 626 749 501 c 0,60,61
 804 352 804 352 662 116 c 1,62,63
 938 102 938 102 1101 95 c 1,64,65
 1100 242 1100 242 1149 390 c 0,66,67
 1253 698 1253 698 1514 882 c 0,68,69
 1729 1033 1729 1033 1968.5 1052.5 c 128,-1,70
 2208 1072 2208 1072 2363 967 c 0,71,72
 2555 837 2555 837 2529 587 c 1,73,74
 2521 426 2521 426 2374 282 c 1,75,76
 2677 204 2677 204 2696 -56 c 1,77,78
 2707 -220 2707 -220 2544 -384 c 0,79,80
 2475 -454 2475 -454 2372.5 -500.5 c 128,-1,81
 2270 -547 2270 -547 2156 -557 c 0,82,83
 2130 -559 2130 -559 2109 -542 c 128,-1,84
 2088 -525 2088 -525 2085.5 -498.5 c 128,-1,85
 2083 -472 2083 -472 2100.5 -451 c 128,-1,86
 2118 -430 2118 -430 2144 -427 c 0,87,88
 2236 -419 2236 -419 2318 -382 c 0,89,90
 2463 -316 2463 -316 2540 -174 c 0,91,92
 2598 -67 2598 -67 2533 42 c 0,93,94
 2506 87 2506 87 2428 125.5 c 128,-1,95
 2350 164 2350 164 2225 176 c 0,96,97
 2211 178 2211 178 2195 190 c 0,98,99
 2163 213 2163 213 2166 246.5 c 128,-1,100
 2169 280 2169 280 2179 294.5 c 128,-1,101
 2189 309 2189 309 2207.5 317 c 128,-1,102
 2226 325 2226 325 2230 328 c 0,103,104
 2393 460 2393 460 2399 596 c 1,0,1
1861 22 m 1,105,106
 1707 -58 1707 -58 1244 -41 c 1,107,108
 1269 -163 1269 -163 1343 -266.5 c 128,-1,109
 1417 -370 1417 -370 1518 -393 c 0,110,111
 1623 -417 1623 -417 1719 -316.5 c 128,-1,112
 1815 -216 1815 -216 1861 22 c 1,105,106
EndSplineSet
EndChar

StartChar: ml_n
Encoding: 52 3346 52
Width: 1362
GlyphClass: 2
Flags: MW
LayerCount: 2
Fore
SplineSet
234 503 m 1,0,1
 284 543 284 543 344 560 c 0,2,3
 453 590 453 590 541 526.5 c 128,-1,4
 629 463 629 463 630 352 c 0,5,6
 632 177 632 177 539.5 78.5 c 128,-1,7
 447 -20 447 -20 330 2.5 c 128,-1,8
 213 25 213 25 150 171 c 0,9,10
 100 287 100 287 100 462 c 0,11,12
 100 464 100 464 100 466 c 0,13,14
 116 731 116 731 321 885 c 0,15,16
 480 1005 480 1005 685.5 1016 c 128,-1,17
 891 1027 891 1027 1026 939 c 0,18,19
 1195 828 1195 828 1168 631 c 0,20,21
 1168 627 1168 627 1167 623 c 0,22,23
 1141 522 1141 522 1069 453 c 1,24,25
 1127 430 1127 430 1171 392 c 0,26,27
 1269 308 1269 308 1262.5 195.5 c 128,-1,28
 1256 83 1256 83 1151 28 c 0,29,30
 1000 -52 1000 -52 754 56 c 0,31,32
 730 67 730 67 720 92 c 128,-1,33
 710 117 710 117 720.5 141.5 c 128,-1,34
 731 166 731 166 756.5 176 c 128,-1,35
 782 186 782 186 803 176 c 0,36,37
 994 92 994 92 1090 143 c 0,38,39
 1130 164 1130 164 1133 207.5 c 128,-1,40
 1136 251 1136 251 1077 301.5 c 128,-1,41
 1018 352 1018 352 895 358 c 1,42,43
 851 347 851 347 831.5 348.5 c 128,-1,44
 812 350 812 350 798 351 c 0,45,46
 784 352 784 352 762 368 c 128,-1,47
 740 384 740 384 744 417 c 0,48,49
 753 483 753 483 807 487 c 0,50,51
 844 489 844 489 879 489 c 1,52,53
 1009 534 1009 534 1040 652 c 1,54,55
 1053 766 1053 766 954 830.5 c 128,-1,56
 855 895 855 895 691 886.5 c 128,-1,57
 527 878 527 878 393 777 c 128,-1,58
 259 676 259 676 234 503 c 1,0,1
232 405 m 1,59,60
 239 295 239 295 272 217.5 c 128,-1,61
 305 140 305 140 358 130 c 0,62,63
 401 122 401 122 440 163 c 0,64,65
 501 228 501 228 500 350 c 0,66,67
 500 395 500 395 474 414 c 0,68,69
 400 467 400 467 315 401 c 0,70,71
 297 387 297 387 273.5 388.5 c 128,-1,72
 250 390 250 390 232 405 c 1,59,60
EndSplineSet
EndChar

StartChar: k1
Encoding: 55 3349 55
Width: 1605
GlyphClass: 2
Flags: MW
AnchorPoint: "dotreph" 758 1195 basechar 0
LayerCount: 2
Fore
SplineSet
472 266 m 1,0,1
 454 329 454 329 489 371 c 0,2,3
 506 391 506 391 533.5 393.5 c 128,-1,4
 561 396 561 396 582 378 c 128,-1,5
 603 360 603 360 604 334 c 128,-1,6
 605 308 605 308 605 294 c 0,7,8
 605 279 605 279 629.5 243 c 128,-1,9
 654 207 654 207 728 154 c 128,-1,10
 802 101 802 101 856 124 c 128,-1,11
 910 147 910 147 944.5 245 c 128,-1,12
 979 343 979 343 981 526 c 0,13,14
 982 573 982 573 976 617 c 1,15,16
 763 637 763 637 570 554 c 1,17,18
 564 533 564 533 541 516 c 0,19,20
 518 500 518 500 486 511 c 1,21,22
 415 469 415 469 350 413 c 1,23,24
 309 370 309 370 282 329 c 0,25,26
 209 220 209 220 240 155 c 0,27,28
 258 118 258 118 309 108 c 128,-1,29
 360 98 360 98 411 138 c 128,-1,30
 462 178 462 178 472 266 c 1,0,1
587 699 m 1,31,32
 758 757 758 757 942 750 c 1,33,34
 888 883 888 883 798 922 c 0,35,36
 733 950 733 950 673 898.5 c 128,-1,37
 613 847 613 847 587 699 c 1,31,32
447 638 m 1,38,39
 472 897 472 897 591 1000 c 0,40,41
 710 1102 710 1102 839 1046 c 0,42,43
 1020 968 1020 968 1085 732 c 1,44,45
 1175 713 1175 713 1257 673 c 0,46,47
 1425 593 1425 593 1482 465 c 1,48,49
 1554 295 1554 295 1414 145 c 0,50,51
 1329 54 1329 54 1170 -19 c 0,52,53
 1146 -30 1146 -30 1120.5 -20.5 c 128,-1,54
 1095 -11 1095 -11 1084 13.5 c 128,-1,55
 1073 38 1073 38 1082.5 63 c 128,-1,56
 1092 88 1092 88 1116 99 c 0,57,58
 1251 160 1251 160 1308 221.5 c 128,-1,59
 1365 283 1365 283 1374.5 326 c 128,-1,60
 1384 369 1384 369 1363 412 c 1,61,62
 1310 531 1310 531 1109 591 c 1,63,64
 1111 558 1111 558 1111 525 c 0,65,66
 1109 314 1109 314 1063.5 182.5 c 128,-1,67
 1018 51 1018 51 912 7 c 0,68,69
 786 -46 786 -46 637 60 c 0,70,71
 596 89 596 89 563 123 c 1,72,73
 534 70 534 70 487 33 c 0,74,75
 393 -41 393 -41 281 -19 c 0,76,77
 169 4 169 4 123 99 c 0,78,79
 38 275 38 275 258 504 c 0,80,81
 260 506 260 506 262 508 c 0,82,83
 349 585 349 585 447 638 c 1,38,39
EndSplineSet
EndChar

StartChar: k2
Encoding: 56 3350 56
Width: 1733
GlyphClass: 2
Flags: MW
AnchorPoint: "dotreph" 876 1195 basechar 0
LayerCount: 2
Fore
SplineSet
302 561 m 0,0,1
 447 624 447 624 559 485 c 0,2,3
 589 448 589 448 601 419 c 0,4,5
 673 239 673 239 612 112 c 1,6,7
 560 6 560 6 445.5 -11.5 c 128,-1,8
 331 -29 331 -29 234 60 c 0,9,10
 107 176 107 176 100 406 c 0,11,12
 95 558 95 558 199 700 c 128,-1,13
 303 842 303 842 491.5 924 c 128,-1,14
 680 1006 680 1006 843 973 c 0,15,16
 933 954 933 954 996 899 c 0,17,18
 1241 684 1241 684 952 111 c 1,19,20
 1326 103 1326 103 1426 147 c 0,21,22
 1480 171 1480 171 1494.5 230.5 c 128,-1,23
 1509 290 1509 290 1498.5 530.5 c 128,-1,24
 1488 771 1488 771 1490 923 c 0,25,26
 1491 950 1491 950 1510.5 969 c 128,-1,27
 1530 988 1530 988 1556.5 987 c 128,-1,28
 1583 986 1583 986 1602 966.5 c 128,-1,29
 1621 947 1621 947 1620 921 c 0,30,31
 1617 773 1617 773 1628.5 525 c 128,-1,32
 1640 277 1640 277 1623 208 c 0,33,34
 1590 77 1590 77 1479 28 c 128,-1,35
 1368 -21 1368 -21 1077 -21 c 0,36,37
 984 -21 984 -21 844 -16 c 0,38,39
 817 -15 817 -15 791.5 12 c 128,-1,40
 766 39 766 39 789 80 c 0,41,42
 1027 512 1027 512 961 719 c 0,43,44
 944 773 944 773 910 803 c 128,-1,45
 876 833 876 833 816 845 c 0,46,47
 693 870 693 870 540 803.5 c 128,-1,48
 387 737 387 737 301 619 c 0,49,50
 270 577 270 577 252 533 c 1,51,52
 277 550 277 550 302 561 c 0,0,1
232 382 m 1,53,54
 243 228 243 228 322 156 c 0,55,56
 373 109 373 109 423.5 116.5 c 128,-1,57
 474 124 474 124 495 169 c 0,58,59
 530 242 530 242 481 367 c 1,60,61
 404 510 404 510 296 399 c 0,62,63
 269 372 269 372 232 382 c 1,53,54
EndSplineSet
EndChar

StartChar: k3
Encoding: 57 3351 57
Width: 1595
GlyphClass: 2
Flags: MW
AnchorPoint: "dotreph" 758 1195 basechar 0
LayerCount: 2
Fore
SplineSet
373 914.5 m 128,-1,1
 391 895 391 895 390.5 868 c 128,-1,2
 390 841 390 841 370 823 c 0,3,4
 230 692 230 692 230 437 c 0,5,6
 230 306 230 306 287 196 c 0,7,8
 327 118 327 118 383 123 c 0,9,10
 492 133 492 133 548 215.5 c 128,-1,11
 604 298 604 298 629.5 401.5 c 128,-1,12
 655 505 655 505 683 621 c 0,13,14
 764 962 764 962 1001.5 986 c 128,-1,15
 1239 1010 1239 1010 1398 786 c 0,16,17
 1479 672 1479 672 1493 506 c 128,-1,18
 1507 340 1507 340 1410 194 c 128,-1,19
 1313 48 1313 48 1100 -5 c 0,20,21
 1074 -11 1074 -11 1051 2.5 c 128,-1,22
 1028 16 1028 16 1021.5 42 c 128,-1,23
 1015 68 1015 68 1029 91.5 c 128,-1,24
 1043 115 1043 115 1069 121 c 0,25,26
 1233 162 1233 162 1303.5 268 c 128,-1,27
 1374 374 1374 374 1364 486 c 0,28,29
 1347 684 1347 684 1214 797 c 0,30,31
 1130 869 1130 869 1028 858.5 c 128,-1,32
 926 848 926 848 879 768.5 c 128,-1,33
 832 689 832 689 807 582 c 0,34,35
 750 343 750 343 721.5 270.5 c 128,-1,36
 693 198 693 198 653.5 139.5 c 128,-1,37
 614 81 614 81 546.5 41 c 128,-1,38
 479 1 479 1 400.5 -6 c 128,-1,39
 322 -13 322 -13 265 27 c 0,40,41
 167 96 167 96 124 257.5 c 128,-1,42
 81 419 81 419 116 607 c 128,-1,43
 151 795 151 795 281 917 c 0,44,45
 300 935 300 935 327.5 934.5 c 128,-1,0
 355 934 355 934 373 914.5 c 128,-1,1
EndSplineSet
EndChar

StartChar: k4
Encoding: 58 3352 58
Width: 2692
GlyphClass: 2
Flags: MW
AnchorPoint: "dotreph" 1419 1195 basechar 0
LayerCount: 2
Fore
SplineSet
1212 5 m 1,0,1
 1251 -85 1251 -85 1355 -132 c 0,2,3
 1411 -157 1411 -157 1535.5 -168 c 128,-1,4
 1660 -179 1660 -179 1801 -168 c 1,5,6
 1889 -165 1889 -165 1959 -164 c 128,-1,7
 2029 -163 2029 -163 2135.5 -149 c 128,-1,8
 2242 -135 2242 -135 2335 -77 c 0,9,10
 2400 -37 2400 -37 2438 60 c 0,11,12
 2498 212 2498 212 2411 622 c 0,13,14
 2392 711 2392 711 2364 827 c 0,15,16
 2358 853 2358 853 2372 876.5 c 128,-1,17
 2386 900 2386 900 2412 906 c 128,-1,18
 2438 912 2438 912 2461 898 c 128,-1,19
 2484 884 2484 884 2490 858 c 0,20,21
 2583 478 2583 478 2591 295 c 0,22,23
 2606 -62 2606 -62 2404 -187 c 0,24,25
 2238 -290 2238 -290 1934 -295 c 0,26,27
 1893 -296 1893 -296 1805 -300 c 0,28,29
 1455 -319 1455 -319 1302 -250 c 0,30,31
 1226 -216 1226 -216 1166 -158 c 128,-1,32
 1106 -100 1106 -100 1074 4 c 1,33,-1
 541 1 l 2,34,35
 516 1 516 1 497 18.5 c 128,-1,36
 478 36 478 36 476.5 63 c 128,-1,37
 475 90 475 90 493 110 c 0,38,39
 746 390 746 390 742 541 c 0,40,41
 739 635 739 635 618 640 c 128,-1,42
 497 645 497 645 385 583 c 128,-1,43
 273 521 273 521 241 430 c 0,44,45
 194 296 194 296 348 135 c 0,46,47
 366 116 366 116 365.5 89 c 128,-1,48
 365 62 365 62 346 43.5 c 128,-1,49
 327 25 327 25 300 25.5 c 128,-1,50
 273 26 273 26 254 45 c 0,51,52
 121 184 121 184 102 327 c 0,53,54
 92 401 92 401 118 473 c 0,55,56
 167 611 167 611 317 693.5 c 128,-1,57
 467 776 467 776 625.5 769.5 c 128,-1,58
 784 763 784 763 846 646 c 0,59,60
 944 463 944 463 682 132 c 1,61,-1
 1050 134 l 1,62,63
 1031 346 1031 346 1104.5 524 c 128,-1,64
 1178 702 1178 702 1323.5 784.5 c 128,-1,65
 1469 867 1469 867 1619.5 798.5 c 128,-1,66
 1770 730 1770 730 1838 507.5 c 128,-1,67
 1906 285 1906 285 1840 140 c 0,68,69
 1812 79 1812 79 1751 42.5 c 128,-1,70
 1690 6 1690 6 1605 8 c 1,71,-1
 1212 5 l 1,0,1
1180 135 m 1,72,-1
 1607 138 l 1,73,74
 1696 136 1696 136 1722 194 c 0,75,76
 1768 294 1768 294 1715.5 465 c 128,-1,77
 1663 636 1663 636 1559 684 c 0,78,79
 1475 722 1475 722 1378 666.5 c 128,-1,80
 1281 611 1281 611 1220.5 465.5 c 128,-1,81
 1160 320 1160 320 1180 135 c 1,72,-1
EndSplineSet
EndChar

StartChar: ng
Encoding: 59 3353 59
Width: 1734
GlyphClass: 2
Flags: MW
AnchorPoint: "dotreph" 834 1195 basechar 0
LayerCount: 2
Fore
SplineSet
248 640 m 1,0,1
 323 665 323 665 383 638 c 0,2,3
 571 558 571 558 564 290 c 0,4,5
 564 287 564 287 564 284 c 0,6,7
 543 101 543 101 452 22 c 0,8,9
 407 -17 407 -17 352 -19.5 c 128,-1,10
 297 -22 297 -22 245 18 c 0,11,12
 103 126 103 126 100 512 c 0,13,14
 100 520 100 520 105 560 c 0,15,16
 144 888 144 888 288 1001 c 0,17,18
 351 1051 351 1051 427.5 1053 c 128,-1,19
 504 1055 504 1055 575 1011 c 1,20,21
 737 914 737 914 833 655 c 1,22,23
 932 894 932 894 1108 991 c 0,24,25
 1252 1070 1252 1070 1379 1011 c 0,26,27
 1521 944 1521 944 1528 723 c 0,28,29
 1530 668 1530 668 1500.5 610.5 c 128,-1,30
 1471 553 1471 553 1430 517 c 1,31,32
 1506 489 1506 489 1555 440 c 0,33,34
 1654 342 1654 342 1630 222 c 128,-1,35
 1606 102 1606 102 1495 40 c 0,36,37
 1339 -47 1339 -47 1117 29 c 0,38,39
 1092 38 1092 38 1080 62 c 128,-1,40
 1068 86 1068 86 1076.5 111 c 128,-1,41
 1085 136 1085 136 1109.5 148 c 128,-1,42
 1134 160 1134 160 1149 155 c 0,43,44
 1326 95 1326 95 1432 154 c 0,45,46
 1491 187 1491 187 1502 243 c 128,-1,47
 1513 299 1513 299 1467 345 c 0,48,49
 1383 428 1383 428 1182 419 c 0,50,51
 1158 418 1158 418 1137.5 435.5 c 128,-1,52
 1117 453 1117 453 1115 479 c 128,-1,53
 1113 505 1113 505 1130.5 526 c 128,-1,54
 1148 547 1148 547 1176 549 c 0,55,56
 1281 558 1281 558 1336.5 607.5 c 128,-1,57
 1392 657 1392 657 1398 722 c 1,58,59
 1393 860 1393 860 1318 896 c 0,60,61
 1257 925 1257 925 1171 877 c 0,62,63
 1059 816 1059 816 988 679 c 128,-1,64
 917 542 917 542 896 388 c 1,65,66
 914 230 914 230 896 63 c 0,67,68
 893 37 893 37 871.5 20 c 128,-1,69
 850 3 850 3 825.5 6 c 128,-1,70
 801 9 801 9 785 26.5 c 128,-1,71
 769 44 769 44 766 63 c 0,72,73
 746 237 746 237 765 388 c 1,74,75
 744 545 744 545 675.5 692.5 c 128,-1,76
 607 840 607 840 508 900 c 1,77,78
 462 926 462 926 431.5 925.5 c 128,-1,79
 401 925 401 925 369 899 c 0,80,81
 286 835 286 835 248 640 c 1,0,1
231 483 m 1,82,83
 236 297 236 297 269 217.5 c 128,-1,84
 302 138 302 138 322 122.5 c 128,-1,85
 342 107 342 107 347 107 c 128,-1,86
 352 107 352 107 367 120 c 0,87,88
 419 165 419 165 435 296 c 1,89,90
 438 474 438 474 341 515 c 0,91,92
 299 533 299 533 255 496 c 0,93,94
 245 487 245 487 231 483 c 1,82,83
EndSplineSet
EndChar

StartChar: ch1
Encoding: 60 3354 60
Width: 1754
GlyphClass: 2
Flags: MW
AnchorPoint: "dotreph" 776 1195 basechar 0
LayerCount: 2
Fore
SplineSet
415.5 317.5 m 128,-1,1
 392 305 392 305 366 313 c 128,-1,2
 340 321 340 321 328 345 c 0,3,4
 263 469 263 469 289 573 c 0,5,6
 303 627 303 627 343 670 c 0,7,8
 427 758 427 758 577.5 763.5 c 128,-1,9
 728 769 728 769 838.5 692.5 c 128,-1,10
 949 616 949 616 949 484 c 1,11,12
 953 246 953 246 656 117 c 1,13,-1
 1303 117 l 2,14,15
 1418 117 1418 117 1466 165.5 c 128,-1,16
 1514 214 1514 214 1520 282 c 0,17,18
 1531 406 1531 406 1519 493 c 0,19,20
 1480 796 1480 796 1481.5 875 c 128,-1,21
 1483 954 1483 954 1491.5 991 c 128,-1,22
 1500 1028 1500 1028 1523 1042.5 c 128,-1,23
 1546 1057 1546 1057 1572 1051 c 0,24,25
 1635 1037 1635 1037 1617.5 960 c 128,-1,26
 1600 883 1600 883 1638 591.5 c 128,-1,27
 1676 300 1676 300 1623 173 c 0,28,29
 1546 -13 1546 -13 1303 -13 c 2,30,-1
 165 -13 l 2,31,32
 143 -13 143 -13 125 1 c 128,-1,33
 107 15 107 15 101.5 38.5 c 128,-1,34
 96 62 96 62 110 85.5 c 128,-1,35
 124 109 124 109 151.5 115.5 c 128,-1,36
 179 122 179 122 329 155 c 0,37,38
 822 260 822 260 820 472 c 0,39,40
 819 547 819 547 754.5 592.5 c 128,-1,41
 690 638 690 638 587.5 634 c 128,-1,42
 485 630 485 630 443 586 c 128,-1,43
 401 542 401 542 410 496 c 128,-1,44
 419 450 419 450 437 416 c 128,-1,45
 455 382 455 382 447 356 c 128,-1,0
 439 330 439 330 415.5 317.5 c 128,-1,1
EndSplineSet
EndChar

StartChar: ch2
Encoding: 61 3355 61
Width: 2361
GlyphClass: 2
Flags: MW
AnchorPoint: "dotreph" 999 1195 basechar 0
LayerCount: 2
Fore
SplineSet
2093 627 m 1,0,1
 2085 632 2085 632 2079 638 c 0,2,3
 2041 677 2041 677 1990 686 c 0,4,5
 1887 705 1887 705 1802 616 c 0,6,7
 1762 574 1762 574 1747 523 c 0,8,9
 1684 303 1684 303 1780 182 c 0,10,11
 1833 115 1833 115 1943 112 c 0,12,13
 2019 110 2019 110 2077 202.5 c 128,-1,14
 2135 295 2135 295 2132 420 c 128,-1,15
 2129 545 2129 545 2093 627 c 1,0,1
1912 816 m 1,16,17
 1810 864 1810 864 1664 854 c 1,18,19
 1523 836 1523 836 1416 745 c 128,-1,20
 1309 654 1309 654 1275.5 534.5 c 128,-1,21
 1242 415 1242 415 1307 304 c 0,22,23
 1338 250 1338 250 1408.5 198 c 128,-1,24
 1479 146 1479 146 1584 109 c 0,25,26
 1627 94 1627 94 1627 57.5 c 128,-1,27
 1627 21 1627 21 1608 1.5 c 128,-1,28
 1589 -18 1589 -18 1562 -18 c 2,29,-1
 165 -18 l 2,30,31
 143 -18 143 -18 125.5 -4 c 128,-1,32
 108 10 108 10 102 33.5 c 128,-1,33
 96 57 96 57 109.5 80.5 c 128,-1,34
 123 104 123 104 150 111 c 128,-1,35
 177 118 177 118 316 148.5 c 128,-1,36
 455 179 455 179 556 220 c 128,-1,37
 657 261 657 261 696 297 c 128,-1,38
 735 333 735 333 751 361 c 1,39,40
 790 457 790 457 776 506 c 128,-1,41
 762 555 762 555 726 583 c 0,42,43
 664 631 664 631 564 623.5 c 128,-1,44
 464 616 464 616 404.5 557 c 128,-1,45
 345 498 345 498 376 415 c 128,-1,46
 407 332 407 332 347 309 c 0,47,48
 322 299 322 299 297.5 310 c 128,-1,49
 273 321 273 321 263 346 c 0,50,51
 229 430 229 430 242 511 c 128,-1,52
 255 592 255 592 316 653 c 0,53,54
 406 742 406 742 555 753 c 128,-1,55
 704 764 704 764 805 687 c 0,56,57
 873 635 873 635 900 540 c 128,-1,58
 927 445 927 445 870 309 c 0,59,60
 824 199 824 199 635 112 c 1,61,-1
 1307 112 l 1,62,63
 1162 229 1162 229 1139 393.5 c 128,-1,64
 1116 558 1116 558 1213.5 708.5 c 128,-1,65
 1311 859 1311 859 1477 935 c 0,66,67
 1573 978 1573 978 1654 984 c 0,68,69
 1968 1006 1968 1006 2135 804 c 0,70,71
 2257 657 2257 657 2261.5 458 c 128,-1,72
 2266 259 2266 259 2183 126 c 0,73,74
 2085 -30 2085 -30 1926 -17 c 0,75,76
 1698 2 1698 2 1620 205 c 0,77,78
 1562 357 1562 357 1621 553 c 1,79,80
 1645 640 1645 640 1708 705 c 0,81,82
 1798 800 1798 800 1912 816 c 1,16,17
EndSplineSet
EndChar

StartChar: ch3
Encoding: 62 3356 62
Width: 1841
GlyphClass: 2
Flags: MW
AnchorPoint: "dotreph" 875 1195 basechar 0
LayerCount: 2
Fore
SplineSet
277 710 m 1,0,1
 297 722 297 722 345 717.5 c 128,-1,2
 393 713 393 713 458 681 c 0,3,4
 573 624 573 624 635.5 509 c 128,-1,5
 698 394 698 394 676 274.5 c 128,-1,6
 654 155 654 155 548 67 c 128,-1,7
 442 -21 442 -21 326 -2 c 0,8,9
 188 21 188 21 132 183 c 0,10,11
 85 317 85 317 107 534 c 0,12,13
 135 821 135 821 282 935 c 0,14,15
 412 1035 412 1035 563 971 c 0,16,17
 773 883 773 883 877 596 c 1,18,19
 922 744 922 744 993 845 c 0,20,21
 1111 1011 1111 1011 1271 1008 c 0,22,23
 1406 1006 1406 1006 1504.5 882 c 128,-1,24
 1603 758 1603 758 1598 570 c 0,25,26
 1590 265 1590 265 1303 -0 c 1,27,28
 1508 62 1508 62 1623 -12 c 128,-1,29
 1738 -86 1738 -86 1741 -214 c 128,-1,30
 1744 -342 1744 -342 1665 -433 c 0,31,32
 1566 -547 1566 -547 1403.5 -525 c 128,-1,33
 1241 -503 1241 -503 1064 -303 c 0,34,35
 1041 -277 1041 -277 1050 -244 c 1,36,37
 994 -269 994 -269 973 -281 c 0,38,39
 845 -352 845 -352 775 -348 c 0,40,41
 726 -345 726 -345 725.5 -289 c 128,-1,42
 725 -233 725 -233 765 -203.5 c 128,-1,43
 805 -174 805 -174 867.5 -140.5 c 128,-1,44
 930 -107 930 -107 958 -89 c 1,45,46
 1164 30 1164 30 1291 173 c 0,47,48
 1462 368 1462 368 1468 573 c 0,49,50
 1472 714 1472 714 1407 795.5 c 128,-1,51
 1342 877 1342 877 1259.5 878.5 c 128,-1,52
 1177 880 1177 880 1091 759 c 0,53,54
 971 590 971 590 940 208 c 1,55,56
 940 124 940 124 931 39 c 0,57,58
 928 13 928 13 906.5 -4 c 128,-1,59
 885 -21 885 -21 859.5 -18 c 128,-1,60
 834 -15 834 -15 817 4 c 128,-1,61
 800 23 800 23 801 48 c 0,62,63
 803 134 803 134 810 213 c 1,64,65
 808 481 808 481 700 669 c 0,66,67
 622 805 622 805 526 844.5 c 128,-1,68
 430 884 430 884 369.5 837.5 c 128,-1,69
 309 791 309 791 277 710 c 1,0,1
1143 -203 m 1,70,71
 1154 -209 1154 -209 1161 -217 c 0,72,73
 1306 -381 1306 -381 1430 -398 c 0,74,75
 1514 -409 1514 -409 1563.5 -352 c 128,-1,76
 1613 -295 1613 -295 1611.5 -226.5 c 128,-1,77
 1610 -158 1610 -158 1561 -127 c 0,78,79
 1471 -69 1471 -69 1272 -149 c 0,80,81
 1222 -169 1222 -169 1143 -203 c 1,70,71
253 630 m 1,82,83
 242 580 242 580 236 521 c 0,84,85
 218 333 218 333 252 234.5 c 128,-1,86
 286 136 286 136 345 126.5 c 128,-1,87
 404 117 404 117 469 171 c 128,-1,88
 534 225 534 225 548 299 c 0,89,90
 569 412 569 412 473 512 c 0,91,92
 408 581 408 581 306 591 c 0,93,94
 269 595 269 595 253 630 c 1,82,83
EndSplineSet
EndChar

StartChar: ch4
Encoding: 63 3357 63
Width: 3078
GlyphClass: 2
Flags: MW
AnchorPoint: "dotreph" 1415 1195 basechar 0
LayerCount: 2
Fore
SplineSet
2103 932 m 1,0,1
 2102 756 2102 756 2116 457 c 1,2,3
 2133 411 2133 411 2156 369 c 1,4,5
 2281 165 2281 165 2442 143 c 0,6,7
 2565 126 2565 126 2675 214.5 c 128,-1,8
 2785 303 2785 303 2831.5 450.5 c 128,-1,9
 2878 598 2878 598 2807 737 c 0,10,11
 2753 843 2753 843 2633 918 c 0,12,13
 2610 932 2610 932 2604.5 958.5 c 128,-1,14
 2599 985 2599 985 2613 1007.5 c 128,-1,15
 2627 1030 2627 1030 2653.5 1036 c 128,-1,16
 2680 1042 2680 1042 2702 1028 c 0,17,18
 2852 934 2852 934 2923 796 c 0,19,20
 3018 609 3018 609 2952 399 c 0,21,22
 2898 226 2898 226 2750.5 107.5 c 128,-1,23
 2603 -11 2603 -11 2424 14 c 0,24,25
 2202 45 2202 45 2044 303 c 0,26,27
 2042 306 2042 306 2041 309 c 1,28,29
 1963 145 1963 145 1817.5 64.5 c 128,-1,30
 1672 -16 1672 -16 1534 16.5 c 128,-1,31
 1396 49 1396 49 1346 176 c 0,32,33
 1278 348 1278 348 1421 602 c 1,34,35
 1457 700 1457 700 1445.5 754.5 c 128,-1,36
 1434 809 1434 809 1396 842 c 0,37,38
 1325 902 1325 902 1188.5 891 c 128,-1,39
 1052 880 1052 880 928 801 c 1,40,41
 1027 654 1027 654 1035 446 c 0,42,43
 1046 151 1046 151 927 48 c 0,44,45
 881 8 881 8 822 3.5 c 128,-1,46
 763 -1 763 -1 709 29 c 1,47,48
 612 80 612 80 559.5 205 c 128,-1,49
 507 330 507 330 542 473 c 0,50,51
 592 676 592 676 740 818 c 1,52,53
 677 869 677 869 596 888 c 0,54,55
 474 917 474 917 371 859 c 128,-1,56
 268 801 268 801 239 671 c 0,57,58
 191 449 191 449 383 120 c 0,59,60
 396 97 396 97 389.5 71 c 128,-1,61
 383 45 383 45 360 31.5 c 128,-1,62
 337 18 337 18 310.5 25 c 128,-1,63
 284 32 284 32 271 55 c 0,64,65
 54 427 54 427 112 698 c 0,66,67
 153 886 153 886 303.5 970.5 c 128,-1,68
 454 1055 454 1055 626 1014 c 0,69,70
 751 985 751 985 843 900 c 1,71,72
 1000 1006 1000 1006 1184.5 1021.5 c 128,-1,73
 1369 1037 1369 1037 1480 941 c 0,74,75
 1549 881 1549 881 1570.5 783 c 128,-1,76
 1592 685 1592 685 1541 552 c 0,77,78
 1539 547 1539 547 1537 543 c 0,79,80
 1422 340 1422 340 1467 224 c 0,81,82
 1492 160 1492 160 1572.5 141 c 128,-1,83
 1653 122 1653 122 1752 177 c 0,84,85
 1896 257 1896 257 1952 439 c 1,86,87
 1972 768 1972 768 1973 935 c 1,88,89
 1975 961 1975 961 1994 979 c 128,-1,90
 2013 997 2013 997 2044 997 c 128,-1,91
 2075 997 2075 997 2093 966 c 1,92,-1
 2103 932 l 1,0,1
826 720 m 1,93,94
 709 606 709 606 668 442 c 0,95,96
 643 341 643 341 679 257 c 128,-1,97
 715 173 715 173 770 143 c 1,98,99
 798 129 798 129 811.5 130.5 c 128,-1,100
 825 132 825 132 849 152.5 c 128,-1,101
 873 173 873 173 891.5 246.5 c 128,-1,102
 910 320 910 320 904.5 463 c 128,-1,103
 899 606 899 606 826 720 c 1,93,94
EndSplineSet
EndChar

StartChar: nj
Encoding: 64 3358 64
Width: 2195
GlyphClass: 2
Flags: MW
AnchorPoint: "dotreph" 1186 1195 basechar 0
LayerCount: 2
Fore
SplineSet
749 35 m 1,0,1
 726 256 726 256 747 432 c 1,2,3
 722 670 722 670 631 796 c 0,4,5
 561 893 561 893 478.5 891.5 c 128,-1,6
 396 890 396 890 322 797.5 c 128,-1,7
 248 705 248 705 235 540 c 1,8,9
 328 597 328 597 420 557 c 0,10,11
 561 495 561 495 576 299 c 0,12,13
 576 297 576 297 576 295 c 0,14,15
 580 141 580 141 493 53 c 128,-1,16
 406 -35 406 -35 296.5 -5 c 128,-1,17
 187 25 187 25 138.5 163.5 c 128,-1,18
 90 302 90 302 103 499 c 1,19,20
 109 739 109 739 220.5 878.5 c 128,-1,21
 332 1018 332 1018 480 1022 c 128,-1,22
 628 1026 628 1026 737 872 c 0,23,24
 784 806 784 806 817 718 c 1,25,26
 902 929 902 929 1048 999 c 1,27,28
 1216 1079 1216 1079 1366 946 c 1,29,30
 1522 1060 1522 1060 1698 1035 c 128,-1,31
 1874 1010 1874 1010 1993.5 874.5 c 128,-1,32
 2113 739 2113 739 2093 534 c 0,33,34
 2066 268 2066 268 1787 8 c 0,35,36
 1768 -10 1768 -10 1740.5 -9 c 128,-1,37
 1713 -8 1713 -8 1695 11.5 c 128,-1,38
 1677 31 1677 31 1677.5 58 c 128,-1,39
 1678 85 1678 85 1698 103 c 0,40,41
 1941 330 1941 330 1963 547 c 0,42,43
 1978 695 1978 695 1893 791.5 c 128,-1,44
 1808 888 1808 888 1684 905.5 c 128,-1,45
 1560 923 1560 923 1450 847 c 1,46,47
 1549 696 1549 696 1593 429 c 1,48,49
 1615 197 1615 197 1509 80 c 0,50,51
 1423 -14 1423 -14 1309 8.5 c 128,-1,52
 1195 31 1195 31 1132.5 148.5 c 128,-1,53
 1070 266 1070 266 1094 441 c 1,54,55
 1139 704 1139 704 1270 857 c 1,56,57
 1188 923 1188 923 1104 882 c 1,58,59
 964 814 964 814 899 550 c 0,60,61
 885 493 885 493 877 431 c 1,62,63
 893 257 893 257 877 46 c 0,64,65
 875 20 875 20 854.5 2 c 128,-1,66
 834 -16 834 -16 812 -14 c 0,67,68
 768 -11 768 -11 749 35 c 1,0,1
234 327 m 1,69,70
 241 264 241 264 257 216 c 0,71,72
 286 132 286 132 334 120 c 1,73,74
 365 109 365 109 406.5 151 c 128,-1,75
 448 193 448 193 446 290 c 1,76,77
 436 408 436 408 367 438 c 0,78,79
 342 449 342 449 308.5 432 c 128,-1,80
 275 415 275 415 266 378 c 128,-1,81
 257 341 257 341 234 327 c 1,69,70
1354 755 m 1,82,83
 1258 632 1258 632 1223 422 c 1,84,85
 1205 290 1205 290 1243 218.5 c 128,-1,86
 1281 147 1281 147 1328.5 137.5 c 128,-1,87
 1376 128 1376 128 1412 167 c 0,88,89
 1479 241 1479 241 1464 412 c 1,90,91
 1428 628 1428 628 1354 755 c 1,82,83
EndSplineSet
EndChar

StartChar: t1
Encoding: 65 3359 65
Width: 1058
GlyphClass: 2
Flags: MW
AnchorPoint: "dotreph" 564 1195 basechar 0
LayerCount: 2
Fore
SplineSet
958 358.5 m 128,-1,1
 958 322 958 322 955 278 c 128,-1,2
 952 234 952 234 910.5 166.5 c 128,-1,3
 869 99 869 99 808 61.5 c 128,-1,4
 747 24 747 24 674.5 6 c 128,-1,5
 602 -12 602 -12 528.5 -10 c 128,-1,6
 455 -8 455 -8 384.5 10.5 c 128,-1,7
 314 29 314 29 255 63.5 c 128,-1,8
 196 98 196 98 154.5 154 c 128,-1,9
 113 210 113 210 109 257.5 c 128,-1,10
 105 305 105 305 123 325.5 c 128,-1,11
 141 346 141 346 167.5 348 c 128,-1,12
 194 350 194 350 214.5 332.5 c 128,-1,13
 235 315 235 315 237 286 c 128,-1,14
 239 257 239 257 261.5 227 c 128,-1,15
 284 197 284 197 324 173.5 c 128,-1,16
 364 150 364 150 419 135.5 c 128,-1,17
 474 121 474 121 531 119.5 c 128,-1,18
 588 118 588 118 642 131.5 c 128,-1,19
 696 145 696 145 735.5 169 c 128,-1,20
 775 193 775 193 799.5 233.5 c 128,-1,21
 824 274 824 274 826 319.5 c 128,-1,22
 828 365 828 365 813.5 393.5 c 128,-1,23
 799 422 799 422 767 444 c 128,-1,24
 735 466 735 466 688 483 c 128,-1,25
 641 500 641 500 574.5 509.5 c 128,-1,26
 508 519 508 519 438 522.5 c 128,-1,27
 368 526 368 526 303.5 525.5 c 128,-1,28
 239 525 239 525 190 538 c 128,-1,29
 141 551 141 551 114 599 c 128,-1,30
 87 647 87 647 112 727 c 128,-1,31
 137 807 137 807 262 907 c 128,-1,32
 387 1007 387 1007 512.5 1018 c 128,-1,33
 638 1029 638 1029 720.5 982 c 128,-1,34
 803 935 803 935 853 839 c 0,35,36
 865 815 865 815 857.5 789 c 128,-1,37
 850 763 850 763 826 751 c 128,-1,38
 802 739 802 739 776.5 747 c 128,-1,39
 751 755 751 755 727 800 c 128,-1,40
 703 845 703 845 657.5 871 c 128,-1,41
 612 897 612 897 525 889 c 128,-1,42
 438 881 438 881 343.5 805.5 c 128,-1,43
 249 730 249 730 239.5 698.5 c 128,-1,44
 230 667 230 667 229 663 c 1,45,46
 233 661 233 661 244 658 c 128,-1,47
 255 655 255 655 312.5 655.5 c 128,-1,48
 370 656 370 656 445 652.5 c 128,-1,49
 520 649 520 649 596.5 638 c 128,-1,50
 673 627 673 627 734 604.5 c 128,-1,51
 795 582 795 582 847.5 546 c 128,-1,52
 900 510 900 510 929 452.5 c 128,-1,0
 958 395 958 395 958 358.5 c 128,-1,1
EndSplineSet
EndChar

StartChar: t2
Encoding: 66 3360 66
Width: 1201
GlyphClass: 2
Flags: MW
AnchorPoint: "dotreph" 613 1195 basechar 0
LayerCount: 2
Fore
SplineSet
819 789 m 1,0,1
 782 773 782 773 751 799 c 0,2,3
 677 861 677 861 595 866 c 0,4,5
 479 874 479 874 374 781 c 128,-1,6
 269 688 269 688 229 550 c 128,-1,7
 189 412 189 412 255 304 c 0,8,9
 347 153 347 153 626 126 c 0,10,11
 734 115 734 115 827 196.5 c 128,-1,12
 920 278 920 278 956 404 c 0,13,14
 993 530 993 530 945 647 c 0,15,16
 911 731 911 731 819 789 c 1,0,1
754 953 m 1,17,18
 772 956 772 956 788 949 c 0,19,20
 890 909 890 909 962 843 c 0,21,22
 1092 721 1092 721 1100 547 c 128,-1,23
 1108 373 1108 373 1016 222 c 0,24,25
 923 72 923 72 775 18 c 0,26,27
 696 -11 696 -11 614 -3 c 0,28,29
 270 31 270 31 144 237 c 0,30,31
 48 394 48 394 101.5 577 c 128,-1,32
 155 760 155 760 294 884 c 128,-1,33
 433 1008 433 1008 604 996 c 0,34,35
 682 991 682 991 754 953 c 1,17,18
EndSplineSet
EndChar

StartChar: t4
Encoding: 68 3362 68
Width: 2362
GlyphClass: 2
Flags: MW
AnchorPoint: "dotreph" 1273 1195 basechar 0
LayerCount: 2
Fore
SplineSet
1349 600 m 1,0,1
 1370 507 1370 507 1415 420 c 0,2,3
 1500 256 1500 256 1636 171.5 c 128,-1,4
 1772 87 1772 87 1893.5 115.5 c 128,-1,5
 2015 144 2015 144 2080 298 c 0,6,7
 2119 389 2119 389 2132 518 c 0,8,9
 2133 536 2133 536 2133 553 c 1,10,11
 2076 507 2076 507 1995 489 c 0,12,13
 1870 462 1870 462 1762 533.5 c 128,-1,14
 1654 605 1654 605 1648 783 c 0,15,16
 1645 871 1645 871 1694 929 c 0,17,18
 1768 1017 1768 1017 1902 993 c 128,-1,19
 2036 969 2036 969 2127.5 872 c 128,-1,20
 2219 775 2219 775 2242.5 682.5 c 128,-1,21
 2266 590 2266 590 2262 508 c 1,22,23
 2247 358 2247 358 2200 247 c 0,24,25
 2109 33 2109 33 1929.5 -9.5 c 128,-1,26
 1750 -52 1750 -52 1585 50.5 c 128,-1,27
 1420 153 1420 153 1323 318 c 1,28,29
 1317 283 1317 283 1289 201.5 c 128,-1,30
 1261 120 1261 120 1228 84 c 128,-1,31
 1195 48 1195 48 1158 19 c 0,32,33
 1071 -48 1071 -48 912 -21 c 128,-1,34
 753 6 753 6 700.5 119 c 128,-1,35
 648 232 648 232 683 420 c 0,36,37
 687 443 687 443 695.5 483.5 c 128,-1,38
 704 524 704 524 707 542 c 0,39,40
 750 781 750 781 624 842 c 0,41,42
 591 858 591 858 544 856 c 0,43,44
 443 852 443 852 346.5 768.5 c 128,-1,45
 250 685 250 685 233 546 c 0,46,47
 206 328 206 328 414 80 c 0,48,49
 431 60 431 60 428.5 32.5 c 128,-1,50
 426 5 426 5 405.5 -12 c 128,-1,51
 385 -29 385 -29 358 -26.5 c 128,-1,52
 331 -24 331 -24 314 -4 c 0,53,54
 70 287 70 287 104 562 c 0,55,56
 127 751 127 751 259.5 865.5 c 128,-1,57
 392 980 392 980 544.5 986.5 c 128,-1,58
 697 993 697 993 786.5 869 c 128,-1,59
 876 745 876 745 835 519 c 0,60,61
 831 500 831 500 823 459 c 0,62,63
 782 253 782 253 812 188 c 128,-1,64
 842 123 842 123 939 106 c 128,-1,65
 1036 89 1036 89 1071.5 116.5 c 128,-1,66
 1107 144 1107 144 1128.5 167.5 c 128,-1,67
 1150 191 1150 191 1180.5 289.5 c 128,-1,68
 1211 388 1211 388 1218 588 c 1,69,70
 1184 754 1184 754 1215 934 c 0,71,72
 1219 956 1219 956 1236.5 971.5 c 128,-1,73
 1254 987 1254 987 1279 988 c 128,-1,74
 1304 989 1304 989 1323.5 970 c 128,-1,75
 1343 951 1343 951 1343.5 929 c 128,-1,76
 1344 907 1344 907 1347.5 790.5 c 128,-1,77
 1351 674 1351 674 1349 600 c 1,0,1
2095 700 m 1,78,79
 2074 739 2074 739 2042 773 c 0,80,81
 1971 848 1971 848 1895 862 c 128,-1,82
 1819 876 1819 876 1798 850.5 c 128,-1,83
 1777 825 1777 825 1778.5 776.5 c 128,-1,84
 1780 728 1780 728 1798 691 c 128,-1,85
 1816 654 1816 654 1839 639 c 0,86,87
 1896 601 1896 601 1969 616.5 c 128,-1,88
 2042 632 2042 632 2078 683 c 0,89,90
 2085 693 2085 693 2095 700 c 1,78,79
EndSplineSet
EndChar

StartChar: nh
Encoding: 69 3363 69
Width: 2540
GlyphClass: 2
Flags: MW
AnchorPoint: "dotreph" 1327 1195 basechar 0
LayerCount: 2
Fore
SplineSet
939 683 m 1,0,1
 955 727 955 727 973 767 c 0,2,3
 1063 967 1063 967 1196 1033 c 0,4,5
 1266 1068 1266 1068 1336 1057 c 128,-1,6
 1406 1046 1406 1046 1485 972 c 128,-1,7
 1564 898 1564 898 1603 694 c 1,8,9
 1641 775 1641 775 1690 840 c 0,10,11
 1825 1020 1825 1020 1996.5 1044 c 128,-1,12
 2168 1068 2168 1068 2295 960 c 128,-1,13
 2422 852 2422 852 2441.5 627.5 c 128,-1,14
 2461 403 2461 403 2262 118 c 0,15,16
 2223 62 2223 62 2191.5 24.5 c 128,-1,17
 2160 -13 2160 -13 2133 -15.5 c 128,-1,18
 2106 -18 2106 -18 2085.5 -1 c 128,-1,19
 2065 16 2065 16 2062.5 43 c 128,-1,20
 2060 70 2060 70 2090 106 c 128,-1,21
 2120 142 2120 142 2156 192 c 0,22,23
 2328 439 2328 439 2312.5 613 c 128,-1,24
 2297 787 2297 787 2212.5 859 c 128,-1,25
 2128 931 2128 931 2012 915 c 128,-1,26
 1896 899 1896 899 1803.5 775 c 128,-1,27
 1711 651 1711 651 1675.5 526.5 c 128,-1,28
 1640 402 1640 402 1625 305 c 1,29,30
 1620 188 1620 188 1610 109 c 128,-1,31
 1600 30 1600 30 1578.5 13.5 c 128,-1,32
 1557 -3 1557 -3 1531.5 0 c 128,-1,33
 1506 3 1506 3 1489.5 23 c 128,-1,34
 1473 43 1473 43 1476 121.5 c 128,-1,35
 1479 200 1479 200 1496 318 c 1,36,37
 1499 404 1499 404 1497 456.5 c 128,-1,38
 1495 509 1495 509 1493 536 c 0,39,40
 1472 806 1472 806 1374 898 c 0,41,42
 1344 927 1344 927 1317 931 c 128,-1,43
 1290 935 1290 935 1254 917 c 0,44,45
 1163 872 1163 872 1100.5 734 c 128,-1,46
 1038 596 1038 596 1016.5 471 c 128,-1,47
 995 346 995 346 993.5 264 c 128,-1,48
 992 182 992 182 992 139.5 c 128,-1,49
 992 97 992 97 991.5 67 c 128,-1,50
 991 37 991 37 971.5 18 c 128,-1,51
 952 -1 952 -1 925.5 -0.5 c 128,-1,52
 899 -0 899 -0 881 19.5 c 128,-1,53
 863 39 863 39 860.5 94 c 128,-1,54
 858 149 858 149 858 253.5 c 128,-1,55
 858 358 858 358 846 463 c 0,56,57
 810 780 810 780 698 888 c 0,58,59
 657 927 657 927 614.5 933 c 128,-1,60
 572 939 572 939 489.5 899.5 c 128,-1,61
 407 860 407 860 337 757.5 c 128,-1,62
 267 655 267 655 245 579 c 1,63,64
 322 645 322 645 405 636.5 c 128,-1,65
 488 628 488 628 544 554 c 128,-1,66
 600 480 600 480 605 392 c 0,67,68
 618 165 618 165 519 57 c 0,69,70
 479 13 479 13 426 -1.5 c 128,-1,71
 373 -16 373 -16 317 3 c 0,72,73
 212 40 212 40 152.5 175.5 c 128,-1,74
 93 311 93 311 101 502 c 0,75,76
 102 516 102 516 103 531 c 0,77,78
 118 667 118 667 218.5 814.5 c 128,-1,79
 319 962 319 962 430.5 1016.5 c 128,-1,80
 542 1071 542 1071 630.5 1060 c 128,-1,81
 719 1049 719 1049 803.5 967 c 128,-1,82
 888 885 888 885 939 683 c 1,0,1
230 440 m 1,83,84
 232 316 232 316 270 230 c 128,-1,85
 308 144 308 144 360 126 c 0,86,87
 379 119 379 119 392.5 122.5 c 128,-1,88
 406 126 406 126 423 145 c 0,89,90
 484 212 484 212 475 384 c 0,91,92
 472 433 472 433 445 468.5 c 128,-1,93
 418 504 418 504 386.5 507.5 c 128,-1,94
 355 511 355 511 323 476 c 128,-1,95
 291 441 291 441 270 436.5 c 128,-1,96
 249 432 249 432 230 440 c 1,83,84
EndSplineSet
EndChar

StartChar: th1
Encoding: 70 3364 70
Width: 1788
GlyphClass: 2
Flags: MW
LayerCount: 2
Fore
SplineSet
540 472 m 1,0,1
 625 684 625 684 749 817 c 1,2,3
 690 858 690 858 617 874 c 0,4,5
 488 904 488 904 382 846 c 0,6,7
 272 787 272 787 241 658 c 0,8,9
 189 439 189 439 379 112 c 0,10,11
 392 89 392 89 385.5 63 c 128,-1,12
 379 37 379 37 356 23.5 c 128,-1,13
 333 10 333 10 306.5 17 c 128,-1,14
 280 24 280 24 267 47 c 0,15,16
 51 419 51 419 115 688 c 0,17,18
 159 874 159 874 320 961 c 0,19,20
 469 1042 469 1042 646 1001 c 0,21,22
 759 975 759 975 848 905 c 1,23,24
 886 933 886 933 925 955 c 0,25,26
 1122 1062 1122 1062 1326 1007 c 0,27,28
 1498 960 1498 960 1600 819 c 0,29,30
 1718 654 1718 654 1679 447 c 0,31,32
 1634 212 1634 212 1392 4 c 0,33,34
 1372 -13 1372 -13 1345 -11 c 128,-1,35
 1318 -9 1318 -9 1300.5 11.5 c 128,-1,36
 1283 32 1283 32 1285 59 c 128,-1,37
 1287 86 1287 86 1308 103 c 0,38,39
 1515 281 1515 281 1551 471 c 0,40,41
 1580 623 1580 623 1494 743 c 0,42,43
 1420 847 1420 847 1292 882 c 0,44,45
 1138 924 1138 924 988 841 c 0,46,47
 964 828 964 828 940 811 c 1,48,49
 943 807 943 807 945 804 c 0,50,51
 1031 689 1031 689 1056 533 c 1,52,53
 1116 265 1116 265 1007 114 c 0,54,55
 969 61 969 61 915 32 c 128,-1,56
 861 3 861 3 798 1 c 0,57,58
 675 -2 675 -2 591 90 c 0,59,60
 486 205 486 205 519 389 c 0,61,62
 525 428 525 428 540 472 c 1,0,1
842 725 m 1,63,64
 737 611 737 611 662 427 c 1,65,66
 652 396 652 396 647 366 c 0,67,68
 625 245 625 245 687 177 c 0,69,70
 731 129 731 129 794 131 c 0,71,72
 829 132 829 132 854.5 146 c 128,-1,73
 880 160 880 160 902 191 c 0,74,75
 977 294 977 294 929 506 c 0,76,77
 929 508 929 508 928 510 c 0,78,79
 909 635 909 635 842 725 c 1,63,64
EndSplineSet
EndChar

StartChar: th2
Encoding: 71 3365 71
Width: 1557
GlyphClass: 2
Flags: MW
LayerCount: 2
Fore
SplineSet
783 129 m 5,0,1
 492 433 492 433 533 699 c 4,2,3
 560 870 560 870 706 965 c 132,-1,4
 852 1060 852 1060 1032.5 1045 c 132,-1,5
 1213 1030 1213 1030 1332 894 c 4,6,7
 1498 704 1498 704 1445 364 c 5,8,9
 1387 67 1387 67 1163 14 c 4,10,11
 1067 -9 1067 -9 972 -6.5 c 132,-1,12
 877 -4 877 -4 734.5 0.5 c 132,-1,13
 592 5 592 5 507 3 c 4,14,15
 255 -5 255 -5 156 187 c 4,16,17
 26 439 26 439 193 986 c 4,18,19
 201 1011 201 1011 225 1024 c 132,-1,20
 249 1037 249 1037 274 1029 c 4,21,22
 336 1010 336 1010 312 929 c 4,23,24
 167 451 167 451 272 246 c 4,25,26
 333 127 333 127 504 132 c 4,27,28
 592 135 592 135 783 129 c 5,0,1
910 125 m 5,29,30
 1119 119 1119 119 1186 159.5 c 132,-1,31
 1253 200 1253 200 1279 261.5 c 132,-1,32
 1305 323 1305 323 1317 387 c 5,33,34
 1359 665 1359 665 1234 808 c 4,35,36
 1149 905 1149 905 1017 916 c 132,-1,37
 885 927 885 927 782 860 c 132,-1,38
 679 793 679 793 662 679 c 4,39,40
 629 467 629 467 897 198 c 4,41,42
 929 166 929 166 910 125 c 5,29,30
EndSplineSet
EndChar

StartChar: th3
Encoding: 72 3366 72
Width: 1291
GlyphClass: 2
Flags: MW
LayerCount: 2
Fore
SplineSet
402 0.5 m 128,-1,1
 384 -19 384 -19 357 -20 c 128,-1,2
 330 -21 330 -21 306.5 0.5 c 128,-1,3
 283 22 283 22 268.5 36 c 128,-1,4
 254 50 254 50 223 86 c 0,5,6
 93 234 93 234 101 430 c 0,7,8
 103 489 103 489 120 552 c 0,9,10
 193 812 193 812 423 938 c 0,11,12
 599 1035 599 1035 788.5 1023.5 c 128,-1,13
 978 1012 978 1012 1053 943 c 0,14,15
 1193 816 1193 816 1107 660 c 0,16,17
 1065 583 1065 583 947 502 c 1,18,19
 1073 473 1073 473 1127 413 c 0,20,21
 1228 301 1228 301 1163 157 c 0,22,23
 1127 78 1127 78 986.5 15 c 128,-1,24
 846 -48 846 -48 656 17 c 0,25,26
 631 26 631 26 618.5 50 c 128,-1,27
 606 74 606 74 614.5 99 c 128,-1,28
 623 124 623 124 647.5 136 c 128,-1,29
 672 148 672 148 697 140 c 0,30,31
 839 92 839 92 934 134 c 128,-1,32
 1029 176 1029 176 1047 217 c 0,33,34
 1074 277 1074 277 1035 320 c 0,35,36
 1010 348 1010 348 933.5 370 c 128,-1,37
 857 392 857 392 788 392 c 128,-1,38
 719 392 719 392 703 402 c 128,-1,39
 687 412 687 412 677 432 c 128,-1,40
 667 452 667 452 676 478 c 128,-1,41
 685 504 685 504 755.5 538 c 128,-1,42
 826 572 826 572 899 628 c 128,-1,43
 972 684 972 684 994.5 725.5 c 128,-1,44
 1017 767 1017 767 1014 786.5 c 128,-1,45
 1011 806 1011 806 967.5 845.5 c 128,-1,46
 924 885 924 885 776.5 894 c 128,-1,47
 629 903 629 903 466 813.5 c 128,-1,48
 303 724 303 724 245 517 c 0,49,50
 232 470 232 470 230 424 c 0,51,52
 224 255 224 255 396 95 c 0,53,54
 419 74 419 74 419.5 47 c 128,-1,0
 420 20 420 20 402 0.5 c 128,-1,1
EndSplineSet
EndChar

StartChar: th4
Encoding: 73 3367 73
Width: 1589
GlyphClass: 2
Flags: MW
LayerCount: 2
Fore
SplineSet
893 942 m 1,0,1
 892 884 892 884 888 834 c 1,2,3
 885 707 885 707 895 600 c 0,4,5
 909 448 909 448 950 335 c 0,6,7
 1008 172 1008 172 1102 133 c 0,8,9
 1136 118 1136 118 1166.5 122.5 c 128,-1,10
 1197 127 1197 127 1232 154 c 0,11,12
 1316 218 1316 218 1347 364 c 0,13,14
 1397 597 1397 597 1281 896 c 0,15,16
 1271 921 1271 921 1282 945.5 c 128,-1,17
 1293 970 1293 970 1318 980 c 128,-1,18
 1343 990 1343 990 1367.5 979 c 128,-1,19
 1392 968 1392 968 1402 943 c 0,20,21
 1533 608 1533 608 1474 337 c 0,22,23
 1432 144 1432 144 1311 51 c 0,24,25
 1252 6 1252 6 1185 -4.5 c 128,-1,26
 1118 -15 1118 -15 1051 13 c 0,27,28
 906 74 906 74 828 291 c 0,29,30
 814 330 814 330 803 373 c 1,31,32
 767 274 767 274 717 196 c 0,33,34
 606 24 606 24 455 2 c 0,35,36
 386 -8 386 -8 323.5 16 c 128,-1,37
 261 40 261 40 212 95 c 0,38,39
 102 219 102 219 103 438 c 0,40,41
 105 691 105 691 263 983 c 0,42,43
 276 1006 276 1006 302 1013.5 c 128,-1,44
 328 1021 328 1021 351.5 1008.5 c 128,-1,45
 375 996 375 996 382.5 970 c 128,-1,46
 390 944 390 944 377 921 c 0,47,48
 235 658 235 658 233 437 c 0,49,50
 232 268 232 268 309 182 c 0,51,52
 339 149 339 149 368.5 137 c 128,-1,53
 398 125 398 125 436 131 c 0,54,55
 529 145 529 145 608 267 c 0,56,57
 693 398 693 398 731 608 c 0,58,59
 750 713 750 713 758 839 c 1,60,61
 759 889 759 889 763 941 c 0,62,63
 765 968 765 968 785 985.5 c 128,-1,64
 805 1003 805 1003 831 1002 c 0,65,66
 853 1001 853 1001 871 983.5 c 128,-1,67
 889 966 889 966 893 942 c 1,0,1
EndSplineSet
EndChar

StartChar: n1
Encoding: 74 3368 74
Width: 1780
GlyphClass: 2
Flags: MW
LayerCount: 2
Fore
SplineSet
279.5 -6 m 132,-1,1
 255 -16 255 -16 230 -5.5 c 132,-1,2
 205 5 205 5 195 30 c 4,3,4
 60 358 60 358 117 628 c 4,5,6
 158 823 158 823 284 920 c 4,7,8
 345 967 345 967 413 980 c 132,-1,9
 481 993 481 993 552 969 c 4,10,11
 702 916 702 916 789 714 c 4,12,13
 808 670 808 670 824 620 c 5,14,15
 866 734 866 734 930 817 c 4,16,17
 1060 984 1060 984 1249 986 c 4,18,19
 1406 987 1406 987 1530 875 c 4,20,21
 1657 761 1657 761 1677 592 c 4,22,23
 1703 368 1703 368 1524 165 c 4,24,25
 1439 69 1439 69 1312 -14 c 4,26,27
 1290 -29 1290 -29 1263.5 -23 c 132,-1,28
 1237 -17 1237 -17 1222.5 5.5 c 132,-1,29
 1208 28 1208 28 1213.5 54.5 c 132,-1,30
 1219 81 1219 81 1241 95 c 4,31,32
 1354 168 1354 168 1427 251 c 4,33,34
 1568 410 1568 410 1548 576 c 4,35,36
 1533 697 1533 697 1443 779 c 4,37,38
 1356 857 1356 857 1250 856 c 4,39,40
 1124 855 1124 855 1032 737 c 4,41,42
 939 618 939 618 903 411 c 4,43,44
 887 321 887 321 882 214 c 5,45,46
 884 132 884 132 881 44 c 4,47,48
 880 17 880 17 860 -1.5 c 132,-1,49
 840 -20 840 -20 813 -19 c 4,50,51
 787 -18 787 -18 769 2 c 132,-1,52
 751 22 751 22 751 45 c 4,53,54
 749 135 749 135 752 216 c 5,55,56
 749 323 749 323 736 414 c 4,57,58
 715 557 715 557 670 662 c 4,59,60
 605 812 605 812 509 846 c 4,61,62
 471 860 471 860 436 853.5 c 132,-1,63
 401 847 401 847 364 818 c 4,64,65
 276 750 276 750 244 601 c 4,66,67
 195 370 195 370 315 79 c 4,68,69
 325 54 325 54 314.5 29 c 132,-1,0
 304 4 304 4 279.5 -6 c 132,-1,1
EndSplineSet
EndChar

StartChar: p1
Encoding: 75 3370 75
Width: 1913
GlyphClass: 2
Flags: MW
LayerCount: 2
Fore
SplineSet
355 15.5 m 128,-1,1
 337 -4 337 -4 310 -5 c 128,-1,2
 283 -6 283 -6 263 12 c 0,3,4
 45 213 45 213 118 401 c 0,5,6
 166 524 166 524 316.5 589.5 c 128,-1,7
 467 655 467 655 622 637 c 128,-1,8
 777 619 777 619 829 504 c 0,9,10
 900 346 900 346 694 102 c 1,11,12
 739 102 739 102 804 106 c 128,-1,13
 869 110 869 110 897 109 c 0,14,15
 1645 91 1645 91 1677 196 c 0,16,17
 1697 261 1697 261 1656 388 c 0,18,19
 1655 390 1655 390 1655 393 c 0,20,21
 1577 721 1577 721 1611 965 c 0,22,23
 1615 991 1615 991 1636.5 1007.5 c 128,-1,24
 1658 1024 1658 1024 1684 1020.5 c 128,-1,25
 1710 1017 1710 1017 1726.5 995 c 128,-1,26
 1743 973 1743 973 1740 947 c 0,27,28
 1710 728 1710 728 1781 426 c 1,29,30
 1873 134 1873 134 1706 48 c 0,31,32
 1640 14 1640 14 1560 1 c 0,33,34
 1481 -12 1481 -12 633 -25 c 1,35,36
 584 -19 584 -19 555 11 c 0,37,38
 496 74 496 74 573 161 c 0,39,40
 751 361 751 361 708 456 c 0,41,42
 689 498 689 498 588 510 c 128,-1,43
 487 522 487 522 377.5 474 c 128,-1,44
 268 426 268 426 239 354 c 0,45,46
 198 249 198 249 351 108 c 0,47,48
 371 90 371 90 372 62.5 c 128,-1,0
 373 35 373 35 355 15.5 c 128,-1,1
EndSplineSet
EndChar

StartChar: p2
Encoding: 76 3371 76
Width: 2113
GlyphClass: 2
Flags: MW
LayerCount: 2
Fore
SplineSet
1214 112 m 1,0,1
 1067 261 1067 261 1060 519 c 0,2,3
 1055 698 1055 698 1156.5 832 c 128,-1,4
 1258 966 1258 966 1411.5 1011 c 128,-1,5
 1565 1056 1565 1056 1717.5 977 c 128,-1,6
 1870 898 1870 898 1952 684 c 0,7,8
 2074 366 2074 366 1956 173 c 128,-1,9
 1838 -20 1838 -20 1539 -20 c 1,10,-1
 637 -14 l 2,11,12
 618 -14 618 -14 598.5 -1 c 128,-1,13
 579 12 579 12 573.5 38.5 c 128,-1,14
 568 65 568 65 576.5 77.5 c 128,-1,15
 585 90 585 90 608 124 c 0,16,17
 675 225 675 225 697 318 c 0,18,19
 730 450 730 450 653 494 c 0,20,21
 625 510 625 510 572 514 c 0,22,23
 466 523 466 523 365 469.5 c 128,-1,24
 264 416 264 416 238 340 c 0,25,26
 201 230 201 230 345 99 c 0,27,28
 365 81 365 81 366 54 c 128,-1,29
 367 27 367 27 349 7.5 c 128,-1,30
 331 -12 331 -12 304 -13.5 c 128,-1,31
 277 -15 277 -15 257 3 c 0,32,33
 51 192 51 192 115 382 c 0,34,35
 157 507 157 507 298.5 581.5 c 128,-1,36
 440 656 440 656 595 643 c 128,-1,37
 750 630 750 630 812 506 c 0,38,39
 886 357 886 357 752 115 c 1,40,-1
 1214 112 l 1,0,1
1357 111 m 1,41,-1
 1539 110 l 1,42,43
 1694 110 1694 110 1793 183 c 0,44,45
 1958 306 1958 306 1830 637 c 0,46,47
 1739 875 1739 875 1550 895 c 0,48,49
 1445 906 1445 906 1346 837 c 128,-1,50
 1247 768 1247 768 1211 659.5 c 128,-1,51
 1175 551 1175 551 1200.5 417 c 128,-1,52
 1226 283 1226 283 1308 201 c 0,53,54
 1318 191 1318 191 1333 181 c 128,-1,55
 1348 171 1348 171 1355 151 c 128,-1,56
 1362 131 1362 131 1357 111 c 1,41,-1
EndSplineSet
EndChar

StartChar: p3
Encoding: 77 3372 77
Width: 1990
GlyphClass: 2
Flags: MW
LayerCount: 2
Fore
SplineSet
197 377 m 1,0,1
 222 210 222 210 305 145 c 0,2,3
 339 119 339 119 357 126 c 0,4,5
 423 150 423 150 442 316 c 0,6,7
 450 383 450 383 407 436 c 0,8,9
 337 523 337 523 260 462 c 0,10,11
 230 439 230 439 215.5 410.5 c 128,-1,12
 201 382 201 382 197 377 c 1,0,1
187 570 m 1,13,14
 295 651 295 651 407 597 c 128,-1,15
 519 543 519 543 556.5 427.5 c 128,-1,16
 594 312 594 312 545.5 175.5 c 128,-1,17
 497 39 497 39 406.5 5.5 c 128,-1,18
 316 -28 316 -28 225 43 c 0,19,20
 73 161 73 161 57 472 c 0,21,22
 46 685 46 685 128 829 c 128,-1,23
 210 973 210 973 353.5 995.5 c 128,-1,24
 497 1018 497 1018 619 902.5 c 128,-1,25
 741 787 741 787 796 589 c 1,26,27
 841 705 841 705 907 794 c 0,28,29
 1032 962 1032 962 1188.5 984 c 128,-1,30
 1345 1006 1345 1006 1452.5 906.5 c 128,-1,31
 1560 807 1560 807 1552 633 c 0,32,33
 1540 375 1540 375 1266 102 c 1,34,35
 1668 85 1668 85 1723 135 c 0,36,37
 1727 139 1727 139 1738.5 146 c 128,-1,38
 1750 153 1750 153 1762 197 c 128,-1,39
 1774 241 1774 241 1768 356.5 c 128,-1,40
 1762 472 1762 472 1731 660.5 c 128,-1,41
 1700 849 1700 849 1724 961 c 0,42,43
 1730 987 1730 987 1753 1002 c 128,-1,44
 1776 1017 1776 1017 1802 1011 c 128,-1,45
 1828 1005 1828 1005 1842.5 982.5 c 128,-1,46
 1857 960 1857 960 1844.5 902.5 c 128,-1,47
 1832 845 1832 845 1854 714 c 0,48,49
 1923 292 1923 292 1886 156 c 0,50,51
 1863 73 1863 73 1805 34 c 1,52,53
 1736 -23 1736 -23 1579.5 -30.5 c 128,-1,54
 1423 -38 1423 -38 1102 -20 c 0,55,56
 1074 -18 1074 -18 1056.5 3 c 128,-1,57
 1039 24 1039 24 1041.5 51 c 128,-1,58
 1044 78 1044 78 1064 95 c 0,59,60
 1152 168 1152 168 1220 242 c 0,61,62
 1414 454 1414 454 1422 639 c 0,63,64
 1427 753 1427 753 1364.5 811 c 128,-1,65
 1302 869 1302 869 1217 857 c 0,66,67
 1104 841 1104 841 1008 713 c 0,68,69
 870 528 870 528 840 175 c 1,70,71
 838 117 838 117 834.5 73.5 c 128,-1,72
 831 30 831 30 810 12.5 c 128,-1,73
 789 -5 789 -5 763 -3 c 128,-1,74
 737 -1 737 -1 720 20 c 128,-1,75
 703 41 703 41 704 83 c 128,-1,76
 705 125 705 125 709.5 219.5 c 128,-1,77
 714 314 714 314 696 435 c 0,78,79
 657 687 657 687 534 804 c 0,80,81
 454 880 454 880 373 867 c 128,-1,82
 292 854 292 854 243.5 769.5 c 128,-1,83
 195 685 195 685 187 570 c 1,13,14
EndSplineSet
EndChar

StartChar: p4
Encoding: 78 3373 78
Width: 1387
GlyphClass: 2
Flags: MW
LayerCount: 2
Fore
SplineSet
438.5 3.5 m 128,-1,1
 423 -18 423 -18 396.5 -23 c 128,-1,2
 370 -28 370 -28 348 -12 c 0,3,4
 250 57 250 57 189 146 c 0,5,6
 79 308 79 308 103.5 496.5 c 128,-1,7
 128 685 128 685 256 828 c 0,8,9
 316 895 316 895 390 938 c 0,10,11
 586 1053 586 1053 787 1015 c 0,12,13
 932 987 932 987 1012 891 c 128,-1,14
 1092 795 1092 795 1037 685 c 1,15,16
 1019 652 1019 652 988 626 c 0,17,18
 883 537 883 537 860 506.5 c 128,-1,19
 837 476 837 476 832 464 c 1,20,21
 886 441 886 441 1043 454.5 c 128,-1,22
 1200 468 1200 468 1261 359 c 0,23,24
 1312 269 1312 269 1264 160.5 c 128,-1,25
 1216 52 1216 52 1099 6 c 0,26,27
 939 -58 939 -58 733 38 c 0,28,29
 709 49 709 49 700 74.5 c 128,-1,30
 691 100 691 100 702 124 c 128,-1,31
 713 148 713 148 738.5 157.5 c 128,-1,32
 764 167 764 167 788 156 c 0,33,34
 943 84 943 84 1051 127 c 0,35,36
 1118 154 1118 154 1142 208 c 128,-1,37
 1166 262 1166 262 1152 287.5 c 128,-1,38
 1138 313 1138 313 1120 321 c 128,-1,39
 1102 329 1102 329 1033 323 c 0,40,41
 700 294 700 294 700 457 c 0,42,43
 700 510 700 510 744 568 c 128,-1,44
 788 626 788 626 903 724 c 0,45,46
 916 735 916 735 924 748 c 0,47,48
 940 774 940 774 901 821 c 128,-1,49
 862 868 862 868 763 887 c 0,50,51
 610 916 610 916 455 826 c 0,52,53
 340 759 340 759 275 627.5 c 128,-1,54
 210 496 210 496 238.5 350 c 128,-1,55
 267 204 267 204 423 94 c 0,56,57
 445 79 445 79 449.5 52 c 128,-1,0
 454 25 454 25 438.5 3.5 c 128,-1,1
EndSplineSet
EndChar

StartChar: m1
Encoding: 79 3374 79
Width: 1309
GlyphClass: 2
Flags: MW
LayerCount: 2
Fore
SplineSet
1034 410 m 1,0,1
 924 293 924 293 804.5 236.5 c 128,-1,2
 685 180 685 180 614.5 158.5 c 128,-1,3
 544 137 544 137 533 133 c 1,4,5
 674 132 674 132 842.5 128.5 c 128,-1,6
 1011 125 1011 125 1073 129 c 1,7,8
 1071 135 1071 135 1070 142 c 0,9,10
 1027 282 1027 282 1034 410 c 1,0,1
438 239 m 1,11,12
 468 249 468 249 525 267 c 0,13,14
 739 332 739 332 853 421 c 0,15,16
 908 464 908 464 958 520 c 1,17,18
 1106 772 1106 772 974 876 c 0,19,20
 881 950 881 950 708 946.5 c 128,-1,21
 535 943 535 943 397.5 867.5 c 128,-1,22
 260 792 260 792 235 686 c 0,23,24
 198 526 198 526 427 323 c 0,25,26
 445 307 445 307 448 283 c 128,-1,27
 451 259 451 259 438 239 c 1,11,12
352 218 m 1,28,29
 345 222 345 222 341 226 c 0,30,31
 55 480 55 480 109 715 c 0,32,33
 147 877 147 877 324 974.5 c 128,-1,34
 501 1072 501 1072 713.5 1076.5 c 128,-1,35
 926 1081 926 1081 1052 980 c 0,36,37
 1135 914 1135 914 1157 815 c 128,-1,38
 1179 716 1179 716 1140 606 c 1,39,40
 1193 586 1193 586 1176 506 c 0,41,42
 1142 351 1142 351 1194 179 c 0,43,44
 1211 123 1211 123 1210 100 c 0,45,46
 1206 22 1206 22 1118 4 c 0,47,48
 1069 -6 1069 -6 735 0.5 c 128,-1,49
 401 7 401 7 252.5 0.5 c 128,-1,50
 104 -6 104 -6 105 89 c 0,51,52
 106 173 106 173 245 198 c 0,53,54
 268 202 268 202 301 208 c 128,-1,55
 334 214 334 214 352 218 c 1,28,29
EndSplineSet
EndChar

StartChar: y1
Encoding: 80 3375 80
Width: 1864
GlyphClass: 2
Flags: MW
LayerCount: 2
Fore
SplineSet
1148 179 m 1,0,1
 1210 147 1210 147 1289 145 c 0,2,3
 1500 141 1500 141 1594 303 c 0,4,5
 1654 407 1654 407 1625.5 575.5 c 128,-1,6
 1597 744 1597 744 1439 947 c 0,7,8
 1423 968 1423 968 1426 995 c 128,-1,9
 1429 1022 1429 1022 1450 1038.5 c 128,-1,10
 1471 1055 1471 1055 1498 1051.5 c 128,-1,11
 1525 1048 1525 1048 1541 1027 c 0,12,13
 1798 696 1798 696 1760 402 c 0,14,15
 1737 227 1737 227 1608 119.5 c 128,-1,16
 1479 12 1479 12 1310.5 15 c 128,-1,17
 1142 18 1142 18 1042 92 c 1,18,19
 843 -36 843 -36 601 -4 c 0,20,21
 419 20 419 20 292 133 c 0,22,23
 226 192 226 192 188 269 c 0,24,25
 61 523 61 523 118 727 c 0,26,27
 161 880 161 880 294.5 948.5 c 128,-1,28
 428 1017 428 1017 586 947 c 0,29,30
 671 909 671 909 745 832 c 0,31,32
 756 821 756 821 767 806 c 1,33,34
 768 810 768 810 769 812 c 0,35,36
 823 989 823 989 950 1030 c 1,37,38
 1070 1065 1070 1065 1176 974.5 c 128,-1,39
 1282 884 1282 884 1310 717 c 0,40,41
 1329 605 1329 605 1304 490 c 0,42,43
 1265 304 1265 304 1148 179 c 1,0,1
811 732 m 1,44,45
 841 674 841 674 868 608 c 0,46,47
 969 367 969 367 1051 265 c 1,48,49
 1145 363 1145 363 1176 510 c 0,50,51
 1196 608 1196 608 1178.5 712 c 128,-1,52
 1161 816 1161 816 1098 870 c 128,-1,53
 1035 924 1035 924 990 906 c 1,54,55
 927 886 927 886 893 774 c 0,56,57
 885 749 885 749 861 736.5 c 128,-1,58
 837 724 837 724 811 732 c 1,44,45
948 187 m 1,59,60
 856 303 856 303 771 505 c 128,-1,61
 686 707 686 707 640.5 754 c 128,-1,62
 595 801 595 801 533 828 c 0,63,64
 432 873 432 873 351 831.5 c 128,-1,65
 270 790 270 790 243 692 c 0,66,67
 200 537 200 537 304 327 c 0,68,69
 359 216 359 216 485.5 161.5 c 128,-1,70
 612 107 612 107 735 121.5 c 128,-1,71
 858 136 858 136 948 187 c 1,59,60
EndSplineSet
EndChar

StartChar: r3
Encoding: 81 3376 81
Width: 1393
GlyphClass: 2
Flags: MW
LayerCount: 2
Fore
SplineSet
1266 413 m 1,0,1
 1176 167 1176 167 1026 68 c 128,-1,2
 876 -31 876 -31 744.5 21 c 128,-1,3
 613 73 613 73 565 236 c 0,4,5
 513 412 513 412 569 568 c 0,6,7
 615 698 615 698 742 785 c 0,8,9
 827 843 827 843 954 872 c 1,10,11
 865 898 865 898 749 888 c 0,12,13
 563 872 563 872 414 773 c 128,-1,14
 265 674 265 674 236 532 c 0,15,16
 197 338 197 338 402 111 c 0,17,18
 420 91 420 91 418.5 64 c 128,-1,19
 417 37 417 37 397 19 c 128,-1,20
 377 1 377 1 350 2.5 c 128,-1,21
 323 4 323 4 305 24 c 0,22,23
 57 300 57 300 109 557 c 0,24,25
 148 752 148 752 333.5 875.5 c 128,-1,26
 519 999 519 999 744.5 1018 c 128,-1,27
 970 1037 970 1037 1122 935 c 0,28,29
 1364 772 1364 772 1266 413 c 1,0,1
1116 764 m 1,30,31
 1108 762 1108 762 1058.5 758.5 c 128,-1,32
 1009 755 1009 755 935 732 c 0,33,34
 804 691 804 691 742 611 c 0,35,36
 632 471 632 471 695 257 c 0,37,38
 720 171 720 171 790.5 143 c 128,-1,39
 861 115 861 115 946 171 c 0,40,41
 1068 251 1068 251 1142 453 c 1,42,43
 1196 653 1196 653 1116 764 c 1,30,31
EndSplineSet
EndChar

StartChar: rh
Encoding: 82 3377 82
Width: 1142
GlyphClass: 2
Flags: MW
LayerCount: 2
Fore
SplineSet
312 5.5 m 132,-1,1
 288 -6 288 -6 262.5 3 c 132,-1,2
 237 12 237 12 226 36 c 4,3,4
 37 430 37 430 132 704 c 4,5,6
 197 888 197 888 362 968 c 132,-1,7
 527 1048 527 1048 700.5 1008 c 132,-1,8
 874 968 874 968 968 829 c 4,9,10
 1096 638 1096 638 1004 356 c 4,11,12
 950 189 950 189 819 4 c 4,13,14
 804 -18 804 -18 777 -22 c 132,-1,15
 750 -26 750 -26 728.5 -11 c 132,-1,16
 707 4 707 4 702.5 31 c 132,-1,17
 698 58 698 58 713 80 c 4,18,19
 833 249 833 249 881 397 c 4,20,21
 953 618 953 618 860 756 c 4,22,23
 795 852 795 852 668.5 881.5 c 132,-1,24
 542 911 542 911 422 853 c 132,-1,25
 302 795 302 795 255 661 c 4,26,27
 176 437 176 437 343 92 c 4,28,29
 355 68 355 68 345.5 42.5 c 132,-1,0
 336 17 336 17 312 5.5 c 132,-1,1
EndSplineSet
EndChar

StartChar: l3
Encoding: 83 3378 83
Width: 1648
GlyphClass: 2
Flags: MW
LayerCount: 2
Fore
SplineSet
240 447.5 m 132,-1,1
 239 474 239 474 257.5 494 c 132,-1,2
 276 514 276 514 303 515 c 4,3,4
 525 524 525 524 664.5 559.5 c 132,-1,5
 804 595 804 595 849 645 c 4,6,7
 870 668 870 668 870.5 685 c 132,-1,8
 871 702 871 702 845 740 c 4,9,10
 788 821 788 821 642.5 867.5 c 132,-1,11
 497 914 497 914 374 883 c 4,12,13
 325 871 325 871 291 835.5 c 132,-1,14
 257 800 257 800 248 744 c 5,15,16
 205 392 205 392 261 259 c 4,17,18
 293 183 293 183 349 158 c 132,-1,19
 405 133 405 133 478.5 129.5 c 132,-1,20
 552 126 552 126 747.5 115.5 c 132,-1,21
 943 105 943 105 1060 115 c 4,22,23
 1261 131 1261 131 1341 221 c 4,24,25
 1452 347 1452 347 1401 718 c 5,26,27
 1385 822 1385 822 1355 947 c 4,28,29
 1349 973 1349 973 1363 996 c 132,-1,30
 1377 1019 1377 1019 1402.5 1025 c 132,-1,31
 1428 1031 1428 1031 1451.5 1017 c 132,-1,32
 1475 1003 1475 1003 1481 977 c 4,33,34
 1631 354 1631 354 1439 135 c 4,35,36
 1325 5 1325 5 1071 -15 c 4,37,38
 944 -25 944 -25 745 -14.5 c 132,-1,39
 546 -4 546 -4 491 -1 c 4,40,41
 287 8 287 8 205.5 103 c 132,-1,42
 124 198 124 198 106 354 c 132,-1,43
 88 510 88 510 119 762 c 5,44,45
 135 861 135 861 196 924 c 4,46,47
 302 1034 302 1034 491 1024.5 c 132,-1,48
 680 1015 680 1015 828 924 c 4,49,50
 1000 818 1000 818 997 682 c 4,51,52
 996 612 996 612 945 556 c 4,53,54
 869 473 869 473 712.5 434 c 132,-1,55
 556 395 556 395 308 385 c 4,56,57
 281 384 281 384 261 402.5 c 132,-1,0
 241 421 241 421 240 447.5 c 132,-1,1
EndSplineSet
EndChar

StartChar: lh
Encoding: 84 3379 84
Width: 1401
GlyphClass: 2
Flags: MW
LayerCount: 2
Fore
SplineSet
277.5 480.5 m 132,-1,1
 276 507 276 507 294 527.5 c 132,-1,2
 312 548 312 548 338 550 c 4,3,4
 410 555 410 555 478 530 c 4,5,6
 592 488 592 488 664 387 c 4,7,8
 736 286 736 286 703 162 c 4,9,10
 685 97 685 97 632 53 c 4,11,12
 543 -20 543 -20 410.5 7 c 132,-1,13
 278 34 278 34 190 161.5 c 132,-1,14
 102 289 102 289 108 484 c 5,15,16
 108 788 108 788 367 932 c 4,17,18
 514 1013 514 1013 695 1003 c 132,-1,19
 876 993 876 993 1014 892 c 4,20,21
 1087 839 1087 839 1136 765 c 4,22,23
 1138 762 1138 762 1140 758 c 4,24,25
 1193 655 1193 655 1167.5 562 c 132,-1,26
 1142 469 1142 469 1044 409 c 5,27,28
 1199 357 1199 357 1267 263 c 4,29,30
 1308 206 1308 206 1309 142 c 132,-1,31
 1310 78 1310 78 1272 20 c 4,32,33
 1205 -84 1205 -84 1055 -131 c 4,34,35
 981 -154 981 -154 837 -159.5 c 132,-1,36
 693 -165 693 -165 583 -176 c 4,37,38
 317 -205 317 -205 235 -298 c 4,39,40
 225 -310 225 -310 228 -313 c 132,-1,41
 231 -316 231 -316 234.5 -322.5 c 132,-1,42
 238 -329 238 -329 269.5 -344.5 c 132,-1,43
 301 -360 301 -360 387 -372 c 132,-1,44
 473 -384 473 -384 648 -356 c 4,45,46
 823 -329 823 -329 1195 -335 c 4,47,48
 1567 -341 1567 -341 1742 -326 c 4,49,50
 1768 -324 1768 -324 1789 -341 c 132,-1,51
 1810 -358 1810 -358 1812.5 -384.5 c 132,-1,52
 1815 -411 1815 -411 1797.5 -432 c 132,-1,53
 1780 -453 1780 -453 1754 -455 c 4,54,55
 1572 -471 1572 -471 1202 -465 c 4,56,57
 832 -459 832 -459 653 -487 c 132,-1,58
 474 -515 474 -515 342 -497 c 4,59,60
 168 -473 168 -473 117 -378 c 5,61,62
 79 -310 79 -310 122 -236 c 4,63,64
 211 -86 211 -86 569 -47 c 4,65,66
 684 -35 684 -35 821.5 -30 c 132,-1,67
 959 -25 959 -25 1016 -7 c 4,68,69
 1121 26 1121 26 1163 90 c 4,70,71
 1181 119 1181 119 1180.5 139.5 c 132,-1,72
 1180 160 1180 160 1154 196 c 132,-1,73
 1128 232 1128 232 1037 272 c 4,74,75
 946 312 946 312 813 328 c 4,76,77
 767 334 767 334 758 377 c 4,78,79
 748 421 748 421 789 455 c 4,80,81
 803 466 803 466 813 463.5 c 132,-1,82
 823 461 823 461 825 461 c 4,83,84
 1014 510 1014 510 1044 585 c 4,85,86
 1061 628 1061 628 1026 696 c 5,87,88
 914 861 914 861 689 873 c 4,89,90
 464 885 464 885 329 740 c 4,91,92
 237 642 237 642 238 483 c 5,93,94
 234 329 234 329 295 240 c 132,-1,95
 356 151 356 151 432 135.5 c 132,-1,96
 508 120 508 120 549 154 c 4,97,98
 572 173 572 173 579 198 c 4,99,100
 602 283 602 283 507 367 c 4,101,102
 439 426 439 426 347 420 c 4,103,104
 320 418 320 418 299.5 436 c 132,-1,0
 279 454 279 454 277.5 480.5 c 132,-1,1
EndSplineSet
EndChar

StartChar: zh
Encoding: 85 3380 85
Width: 1260
GlyphClass: 2
Flags: MW
AnchorPoint: "dotreph" 600 1234 basechar 0
AnchorPoint: "chandrakkala" 1118 10 basechar 0
LayerCount: 2
Fore
SplineSet
925 422 m 5,0,1
 955 394 955 394 977 357 c 4,2,3
 1028 269 1028 269 1005 176 c 4,4,5
 978 66 978 66 839 22 c 4,6,7
 733 -10 733 -10 617.5 15.5 c 132,-1,8
 502 41 502 41 446.5 97.5 c 132,-1,9
 391 154 391 154 383 221 c 4,10,11
 380 247 380 247 397 268.5 c 132,-1,12
 414 290 414 290 440 293 c 132,-1,13
 466 296 466 296 487.5 279 c 132,-1,14
 509 262 509 262 513 237 c 4,15,16
 523 170 523 170 637 144 c 5,17,18
 791 118 791 118 863 180 c 5,19,20
 906 218 906 218 862 296 c 5,21,22
 838 335 838 335 765 377 c 5,23,24
 623 350 623 350 477 363 c 5,25,26
 213 392 213 392 115 558 c 5,27,28
 78 622 78 622 85 694 c 132,-1,29
 92 766 92 766 113 818 c 132,-1,30
 134 870 134 870 150.5 906 c 132,-1,31
 167 942 167 942 174.5 958 c 132,-1,32
 182 974 182 974 207.5 984 c 132,-1,33
 233 994 233 994 257 983 c 132,-1,34
 281 972 281 972 291 946.5 c 132,-1,35
 301 921 301 921 293.5 904.5 c 132,-1,36
 286 888 286 888 254 821 c 4,37,38
 191 687 191 687 227 624 c 5,39,40
 302 498 302 498 543 489 c 5,41,42
 464 540 464 540 425 597 c 4,43,44
 422 601 422 601 420 605 c 4,45,46
 356 736 356 736 423 854 c 4,47,48
 474 945 474 945 595.5 997.5 c 132,-1,49
 717 1050 717 1050 860 1052 c 132,-1,50
 1003 1054 1003 1054 1085 1003.5 c 132,-1,51
 1167 953 1167 953 1192 876 c 4,52,53
 1240 730 1240 730 1138 580 c 4,54,55
 1084 501 1084 501 1028.5 471 c 132,-1,56
 973 441 973 441 925 422 c 5,0,1
783 513 m 5,57,58
 874 536 874 536 955 579 c 5,59,60
 999 607 999 607 1031 654 c 4,61,62
 1097 750 1097 750 1070 833 c 4,63,64
 1059 867 1059 867 1028 886 c 5,65,66
 924 942 924 942 754 912 c 4,67,68
 656 894 656 894 590 846 c 4,69,70
 487 771 487 771 535 666 c 5,71,72
 576 610 576 610 681 561 c 4,73,74
 697 553 697 553 722.5 541 c 132,-1,75
 748 529 748 529 783 513 c 5,57,58
EndSplineSet
EndChar

StartChar: v1
Encoding: 86 3381 86
Width: 1692
GlyphClass: 2
Flags: MW
LayerCount: 2
Fore
SplineSet
450.5 12.5 m 128,-1,1
 431 -6 431 -6 404 -5.5 c 128,-1,2
 377 -5 377 -5 359 14 c 0,3,4
 119 261 119 261 101 499 c 0,5,6
 91 633 91 633 159.5 743 c 128,-1,7
 228 853 228 853 347 920 c 0,8,9
 525 1020 525 1020 784 978 c 0,10,11
 970 948 970 948 1065.5 841 c 128,-1,12
 1161 734 1161 734 1160 590 c 128,-1,13
 1159 446 1159 446 1092.5 322.5 c 128,-1,14
 1026 199 1026 199 938 116 c 1,15,16
 1183 111 1183 111 1292 113 c 1,17,18
 1384 127 1384 127 1422.5 182 c 128,-1,19
 1461 237 1461 237 1462 304 c 0,20,21
 1464 438 1464 438 1450 512.5 c 128,-1,22
 1436 587 1436 587 1428 643 c 128,-1,23
 1420 699 1420 699 1406.5 777 c 128,-1,24
 1393 855 1393 855 1410 943 c 0,25,26
 1415 969 1415 969 1437.5 984 c 128,-1,27
 1460 999 1460 999 1486 994 c 128,-1,28
 1512 989 1512 989 1527.5 966.5 c 128,-1,29
 1543 944 1543 944 1534 898.5 c 128,-1,30
 1525 853 1525 853 1536.5 786.5 c 128,-1,31
 1548 720 1548 720 1556 664 c 128,-1,32
 1564 608 1564 608 1579 528.5 c 128,-1,33
 1594 449 1594 449 1593 354 c 0,34,35
 1589 22 1589 22 1306 -17 c 0,36,37
 1248 -25 1248 -25 734 -8 c 0,38,39
 694 -7 694 -7 680 23 c 0,40,41
 650 88 650 88 724 122 c 0,42,43
 817 165 817 165 898.5 263 c 128,-1,44
 980 361 980 361 1012.5 470.5 c 128,-1,45
 1045 580 1045 580 1018 669.5 c 128,-1,46
 991 759 991 759 886 814 c 128,-1,47
 781 869 781 869 576 856 c 0,48,49
 444 848 444 848 334 753 c 0,50,51
 268 696 268 696 240.5 605 c 128,-1,52
 213 514 213 514 257.5 386 c 128,-1,53
 302 258 302 258 452 104 c 0,54,55
 471 85 471 85 470.5 58 c 128,-1,0
 470 31 470 31 450.5 12.5 c 128,-1,1
EndSplineSet
EndChar

StartChar: z1
Encoding: 87 3382 87
Width: 1728
GlyphClass: 2
Flags: MW
LayerCount: 2
Fore
SplineSet
1170 991 m 0,0,1
 1276 981 1276 981 1351.5 943.5 c 128,-1,2
 1427 906 1427 906 1456.5 880 c 128,-1,3
 1486 854 1486 854 1497 845 c 128,-1,4
 1508 836 1508 836 1514 825 c 1,5,6
 1681 647 1681 647 1604.5 371 c 128,-1,7
 1528 95 1528 95 1370 2 c 1,8,9
 1270 -56 1270 -56 1157 -2 c 0,10,11
 1067 41 1067 41 1015 167 c 128,-1,12
 963 293 963 293 973 439.5 c 128,-1,13
 983 586 983 586 1045 694 c 128,-1,14
 1107 802 1107 802 1189 857 c 1,15,16
 1024 884 1024 884 902 793.5 c 128,-1,17
 780 703 780 703 780 490 c 128,-1,18
 780 277 780 277 687 136 c 128,-1,19
 594 -5 594 -5 459 -25 c 0,20,21
 389 -36 389 -36 324 -5 c 0,22,23
 114 96 114 96 100 483 c 0,24,25
 96 591 96 591 135.5 732 c 128,-1,26
 175 873 175 873 234 964 c 0,27,28
 248 986 248 986 274.5 992 c 128,-1,29
 301 998 301 998 323.5 984 c 128,-1,30
 346 970 346 970 352 943.5 c 128,-1,31
 358 917 358 917 343 894 c 0,32,33
 295 819 295 819 264 708.5 c 128,-1,34
 233 598 233 598 230 486 c 1,35,36
 242 179 242 179 378 114 c 0,37,38
 440 84 440 84 516.5 139 c 128,-1,39
 593 194 593 194 629 328 c 0,40,41
 649 402 649 402 649 490 c 0,42,43
 650 768 650 768 832 904 c 0,44,45
 975 1010 975 1010 1170 991 c 0,0,1
1410 747 m 0,46,47
 1383 774 1383 774 1333 774.5 c 128,-1,48
 1283 775 1283 775 1237 731 c 0,49,50
 1117 616 1117 616 1105 438 c 128,-1,51
 1093 260 1093 260 1173 151 c 0,52,53
 1206 106 1206 106 1256 102.5 c 128,-1,54
 1306 99 1306 99 1371 172 c 128,-1,55
 1436 245 1436 245 1483 424 c 1,56,57
 1541 618 1541 618 1410 747 c 0,46,47
EndSplineSet
EndChar

StartChar: sh
Encoding: 88 3383 88
Width: 1885
GlyphClass: 2
Flags: MW
LayerCount: 2
Fore
SplineSet
658 122 m 1,0,-1
 1096 116 l 1,1,2
 1239 320 1239 320 1313 460 c 1,3,4
 1076 545 1076 545 1021.5 690 c 128,-1,5
 967 835 967 835 1073 971 c 0,6,7
 1151 1071 1151 1071 1283 1118.5 c 128,-1,8
 1415 1166 1415 1166 1508 1091 c 0,9,10
 1673 958 1673 958 1495 540 c 1,11,12
 1633 476 1633 476 1711 377 c 0,13,14
 1819 243 1819 243 1770 137 c 0,15,16
 1687 -41 1687 -41 1251 -19 c 0,17,18
 1122 -13 1122 -13 869 -11 c 128,-1,19
 616 -9 616 -9 515 -5 c 0,20,21
 490 -4 490 -4 471.5 14.5 c 128,-1,22
 453 33 453 33 453 60 c 128,-1,23
 453 87 453 87 471 106 c 0,24,25
 609 246 609 246 620 333 c 0,26,27
 623 361 623 361 614.5 374.5 c 128,-1,28
 606 388 606 388 575 401 c 0,29,30
 505 430 505 430 402 403 c 128,-1,31
 299 376 299 376 253 310 c 0,32,33
 196 228 196 228 279 108 c 0,34,35
 294 86 294 86 289.5 59.5 c 128,-1,36
 285 33 285 33 263 17.5 c 128,-1,37
 241 2 241 2 214.5 7 c 128,-1,38
 188 12 188 12 172 34 c 0,39,40
 87 157 87 157 102 272 c 0,41,42
 110 332 110 332 147 385 c 0,43,44
 220 490 220 490 367 528 c 128,-1,45
 514 566 514 566 625 521 c 0,46,47
 690 495 690 495 723 441 c 0,48,49
 802 313 802 313 658 122 c 1,0,-1
1369 578 m 1,50,51
 1448 759 1448 759 1454 860.5 c 128,-1,52
 1460 962 1460 962 1425 990.5 c 128,-1,53
 1390 1019 1390 1019 1310 990 c 128,-1,54
 1230 961 1230 961 1186 904.5 c 128,-1,55
 1142 848 1142 848 1134 811.5 c 128,-1,56
 1126 775 1126 775 1140 742 c 1,57,58
 1177 644 1177 644 1369 578 c 1,50,51
1440 422 m 1,59,60
 1372 287 1372 287 1251 111 c 1,61,62
 1254 111 1254 111 1323.5 107.5 c 128,-1,63
 1393 104 1393 104 1483 117 c 0,64,65
 1726 151 1726 151 1624 279 c 0,66,67
 1550 371 1550 371 1440 422 c 1,59,60
EndSplineSet
EndChar

StartChar: s1
Encoding: 89 3384 89
Width: 2301
GlyphClass: 2
Flags: MW
LayerCount: 2
Fore
SplineSet
1462 383 m 1,0,1
 1501 552 1501 552 1478 678.5 c 128,-1,2
 1455 805 1455 805 1378 847 c 128,-1,3
 1301 889 1301 889 1202.5 844 c 128,-1,4
 1104 799 1104 799 1032 660 c 0,5,6
 981 562 981 562 959 439 c 1,7,8
 989 247 989 247 955 31 c 0,9,10
 951 5 951 5 929 -11 c 128,-1,11
 907 -27 907 -27 883 -23.5 c 128,-1,12
 859 -20 859 -20 844 -3 c 128,-1,13
 829 14 829 14 826 32 c 0,14,15
 798 257 798 257 827 439 c 1,16,17
 792 635 792 635 690.5 749.5 c 128,-1,18
 589 864 589 864 486.5 875.5 c 128,-1,19
 384 887 384 887 318 811 c 0,20,21
 215 692 215 692 232 427 c 0,22,23
 243 253 243 253 366 119 c 0,24,25
 387 95 387 95 403.5 84.5 c 128,-1,26
 420 74 420 74 425.5 47 c 128,-1,27
 431 20 431 20 416.5 -2 c 128,-1,28
 402 -24 402 -24 375 -29 c 0,29,30
 314 -42 314 -42 214 102 c 128,-1,31
 114 246 114 246 103 419 c 0,32,33
 82 737 82 737 220 896 c 0,34,35
 330 1023 330 1023 491.5 1005.5 c 128,-1,36
 653 988 653 988 779 845 c 0,37,38
 847 767 847 767 892 669 c 1,39,40
 988 889 988 889 1157 967 c 0,41,42
 1306 1035 1306 1035 1438.5 962 c 128,-1,43
 1571 889 1571 889 1607 698 c 0,44,45
 1634 550 1634 550 1590 357 c 1,46,47
 1560 197 1560 197 1630 138 c 0,48,49
 1683 94 1683 94 1784 118 c 128,-1,50
 1885 142 1885 142 1966.5 234.5 c 128,-1,51
 2048 327 2048 327 2065 448 c 0,52,53
 2097 664 2097 664 1950 904 c 0,54,55
 1936 927 1936 927 1942.5 953 c 128,-1,56
 1949 979 1949 979 1971.5 993 c 128,-1,57
 1994 1007 1994 1007 2020.5 1000.5 c 128,-1,58
 2047 994 2047 994 2061 972 c 0,59,60
 2232 692 2232 692 2194 430 c 0,61,62
 2171 270 2171 270 2063 147.5 c 128,-1,63
 1955 25 1955 25 1802.5 -11 c 128,-1,64
 1650 -47 1650 -47 1547 39 c 0,65,66
 1417 146 1417 146 1462 383 c 1,0,1
EndSplineSet
EndChar

StartChar: h1
Encoding: 90 3385 90
Width: 2220
GlyphClass: 2
Flags: MW
LayerCount: 2
Fore
SplineSet
331.5 39.5 m 128,-1,1
 313 20 313 20 286 19.5 c 128,-1,2
 259 19 259 19 240 37 c 0,3,4
 47 220 47 220 121 378 c 0,5,6
 170 483 170 483 311 523 c 128,-1,7
 452 563 452 563 573 525 c 0,8,9
 638 505 638 505 681 462.5 c 128,-1,10
 724 420 724 420 735 360 c 0,11,12
 752 260 752 260 673 139 c 1,13,14
 854 148 854 148 1151 136 c 1,15,16
 1018 266 1018 266 1023.5 434 c 128,-1,17
 1029 602 1029 602 1159 742 c 128,-1,18
 1289 882 1289 882 1479 937 c 0,19,20
 1576 965 1576 965 1676 965 c 0,21,22
 1679 965 1679 965 1682 965 c 0,23,24
 2036 933 2036 933 2107 669 c 0,25,26
 2143 533 2143 533 2087 362 c 128,-1,27
 2031 191 2031 191 1920 45 c 0,28,29
 1904 24 1904 24 1877 20 c 128,-1,30
 1850 16 1850 16 1829 32 c 128,-1,31
 1808 48 1808 48 1804 75 c 128,-1,32
 1800 102 1800 102 1816 123 c 0,33,34
 1966 322 1966 322 1989 523 c 0,35,36
 2003 644 2003 644 1933 730.5 c 128,-1,37
 1863 817 1863 817 1673 835 c 1,38,39
 1508 834 1508 834 1374.5 752 c 128,-1,40
 1241 670 1241 670 1184.5 553 c 128,-1,41
 1128 436 1128 436 1174 324 c 0,42,43
 1196 271 1196 271 1256.5 216 c 128,-1,44
 1317 161 1317 161 1414 120 c 0,45,46
 1455 102 1455 102 1453.5 66 c 128,-1,47
 1452 30 1452 30 1432 12 c 128,-1,48
 1412 -6 1412 -6 1385 -5 c 2,49,-1
 1361 -4 l 1,50,51
 749 30 749 30 535 -4 c 0,52,53
 503 -9 503 -9 481.5 11 c 128,-1,54
 460 31 460 31 459.5 58.5 c 128,-1,55
 459 86 459 86 477 105 c 0,56,57
 663 299 663 299 588 374 c 0,58,59
 573 389 573 389 534 401 c 0,60,61
 450 427 450 427 356.5 400.5 c 128,-1,62
 263 374 263 374 238 322 c 0,63,64
 204 250 204 250 329 131 c 0,65,66
 348 113 348 113 349 86 c 128,-1,0
 350 59 350 59 331.5 39.5 c 128,-1,1
EndSplineSet
EndChar

StartChar: avagraha
Encoding: 91 3389 91
Width: 1580
GlyphClass: 2
Flags: MW
LayerCount: 2
Fore
SplineSet
412 528.5 m 128,-1,1
 412 555 412 555 431.5 574 c 128,-1,2
 451 593 451 593 477 593 c 2,3,-1
 737 593 l 1,4,5
 765 783 765 783 791 927 c 128,-1,6
 817 1071 817 1071 855 1148 c 0,7,8
 933 1308 933 1308 1066 1357 c 0,9,10
 1144 1385 1144 1385 1225 1371 c 128,-1,11
 1306 1357 1306 1357 1369.5 1304 c 128,-1,12
 1433 1251 1433 1251 1461.5 1173.5 c 128,-1,13
 1490 1096 1490 1096 1476 1015 c 0,14,15
 1471 989 1471 989 1449 973 c 128,-1,16
 1427 957 1427 957 1400.5 961.5 c 128,-1,17
 1374 966 1374 966 1358.5 988.5 c 128,-1,18
 1343 1011 1343 1011 1349.5 1047.5 c 128,-1,19
 1356 1084 1356 1084 1339.5 1129 c 128,-1,20
 1323 1174 1323 1174 1286 1204 c 0,21,22
 1207 1270 1207 1270 1117 1237 c 128,-1,23
 1027 1204 1027 1204 976 1100 c 0,24,25
 942 1030 942 1030 918 897.5 c 128,-1,26
 894 765 894 765 868 593 c 1,27,-1
 1053 593 l 2,28,29
 1080 593 1080 593 1099 574 c 128,-1,30
 1118 555 1118 555 1118 528.5 c 128,-1,31
 1118 502 1118 502 1099 482.5 c 128,-1,32
 1080 463 1080 463 1053 463 c 2,33,-1
 849 463 l 1,34,35
 843 423 843 423 817.5 239 c 128,-1,36
 792 55 792 55 770 -79 c 128,-1,37
 748 -213 748 -213 718 -285 c 0,38,39
 666 -412 666 -412 577 -467 c 128,-1,40
 488 -522 488 -522 393.5 -517.5 c 128,-1,41
 299 -513 299 -513 223 -456.5 c 128,-1,42
 147 -400 147 -400 116.5 -310 c 128,-1,43
 86 -220 86 -220 111 -129 c 0,44,45
 118 -103 118 -103 142 -90 c 128,-1,46
 166 -77 166 -77 191.5 -84 c 128,-1,47
 217 -91 217 -91 230.5 -114.5 c 128,-1,48
 244 -138 244 -138 233 -177 c 128,-1,49
 222 -216 222 -216 239.5 -268 c 128,-1,50
 257 -320 257 -320 301 -352.5 c 128,-1,51
 345 -385 345 -385 399.5 -388 c 128,-1,52
 454 -391 454 -391 508 -357.5 c 128,-1,53
 562 -324 562 -324 592 -250.5 c 128,-1,54
 622 -177 622 -177 642.5 -51.5 c 128,-1,55
 663 74 663 74 688.5 253.5 c 128,-1,56
 714 433 714 433 718 463 c 1,57,-1
 477 463 l 2,58,59
 450 463 450 463 431 482.5 c 128,-1,0
 412 502 412 502 412 528.5 c 128,-1,1
EndSplineSet
EndChar

StartChar: a2
Encoding: 92 3390 92
Width: 885
GlyphClass: 2
Flags: MW
LayerCount: 2
Fore
SplineSet
144 714.5 m 128,-1,1
 119 723 119 723 107 747.5 c 128,-1,2
 95 772 95 772 104 797 c 0,3,4
 161 961 161 961 296 1000.5 c 128,-1,5
 431 1040 431 1040 563.5 953 c 128,-1,6
 696 866 696 866 751.5 700 c 128,-1,7
 807 534 807 534 770 332 c 0,8,9
 745 193 745 193 672 101.5 c 128,-1,10
 599 10 599 10 497 -20.5 c 128,-1,11
 395 -51 395 -51 294.5 -13.5 c 128,-1,12
 194 24 194 24 135 119 c 0,13,14
 121 142 121 142 127.5 168.5 c 128,-1,15
 134 195 134 195 156.5 209 c 128,-1,16
 179 223 179 223 205.5 217 c 128,-1,17
 232 211 232 211 246 188 c 0,18,19
 282 130 282 130 341 108 c 128,-1,20
 400 86 400 86 461.5 104.5 c 128,-1,21
 523 123 523 123 573 185.5 c 128,-1,22
 623 248 623 248 643 355 c 0,23,24
 674 524 674 524 630.5 653 c 128,-1,25
 587 782 587 782 498.5 840 c 128,-1,26
 410 898 410 898 334 876 c 0,27,28
 261 855 261 855 226 755 c 0,29,30
 217 730 217 730 193 718 c 128,-1,0
 169 706 169 706 144 714.5 c 128,-1,1
EndSplineSet
EndChar

StartChar: i1
Encoding: 93 3391 93
Width: 521
GlyphClass: 2
Flags: W
LayerCount: 2
Fore
SplineSet
284 -308 m 0,0,1
 284 -335 284 -335 265 -354 c 128,-1,2
 246 -373 246 -373 219.5 -373 c 128,-1,3
 193 -373 193 -373 173.5 -354 c 128,-1,4
 154 -335 154 -335 154 -308 c 0,5,6
 154 54 154 54 257 688 c 0,7,8
 298 940 298 940 223 1120 c 0,9,10
 58 1514 58 1514 -516 1103 c 0,11,12
 -569 1065 -569 1065 -607 1118 c 128,-1,13
 -645 1171 -645 1171 -592 1209 c 0,14,15
 -25 1614 -25 1614 253 1308 c 0,16,17
 353 1198 353 1198 384.5 1029 c 128,-1,18
 416 860 416 860 385 668 c 0,19,20
 284 44 284 44 284 -308 c 0,0,1
EndSplineSet
EndChar

StartChar: i2
Encoding: 94 3392 94
Width: 441
GlyphClass: 2
Flags: MW
LayerCount: 2
Fore
SplineSet
-183 1293 m 132,-1,1
 -157 1287 -157 1287 -142.5 1264 c 132,-1,2
 -128 1241 -128 1241 -134 1215 c 4,3,4
 -182 1010 -182 1010 -317 934 c 4,5,6
 -420 876 -420 876 -514.5 917 c 132,-1,7
 -609 958 -609 958 -618 1055 c 4,8,9
 -631 1191 -631 1191 -454 1313 c 4,10,11
 -193 1493 -193 1493 24 1430 c 4,12,13
 149 1394 149 1394 231 1275 c 132,-1,14
 313 1156 313 1156 340.5 993.5 c 132,-1,15
 368 831 368 831 340 657 c 4,16,17
 239 33 239 33 239 -319 c 4,18,19
 239 -346 239 -346 220 -365 c 132,-1,20
 201 -384 201 -384 174 -384 c 132,-1,21
 147 -384 147 -384 128 -364.5 c 132,-1,22
 109 -345 109 -345 109 -319 c 4,23,24
 109 43 109 43 211 678 c 4,25,26
 247 902 247 902 182 1090 c 4,27,28
 145 1197 145 1197 70.5 1259.5 c 132,-1,29
 -4 1322 -4 1322 -116.5 1316 c 132,-1,30
 -229 1310 -229 1310 -380 1206 c 4,31,32
 -495 1127 -495 1127 -489 1067 c 4,33,34
 -487 1047 -487 1047 -457.5 1034 c 132,-1,35
 -428 1021 -428 1021 -381 1047 c 4,36,37
 -296 1095 -296 1095 -261 1245 c 4,38,39
 -255 1271 -255 1271 -232 1285 c 132,-1,0
 -209 1299 -209 1299 -183 1293 c 132,-1,1
EndSplineSet
EndChar

StartChar: u1
Encoding: 95 3393 95
Width: 639
GlyphClass: 2
Flags: MW
LayerCount: 2
Fore
SplineSet
286 32 m 1,0,1
 171 -165 171 -165 216 -267 c 0,2,3
 239 -318 239 -318 301.5 -330.5 c 128,-1,4
 364 -343 364 -343 404 -318.5 c 128,-1,5
 444 -294 444 -294 454.5 -275 c 128,-1,6
 465 -256 465 -256 463 -218 c 128,-1,7
 461 -180 461 -180 421.5 -119 c 128,-1,8
 382 -58 382 -58 301 13 c 0,9,10
 292 21 292 21 286 32 c 1,0,1
342 127 m 1,11,12
 367 127 367 127 386 111 c 0,13,14
 586 -63 586 -63 594 -220 c 0,15,16
 600 -352 600 -352 484 -422 c 0,17,18
 388 -481 388 -481 267 -456 c 0,19,20
 146 -431 146 -431 97 -320 c 0,21,22
 22 -151 22 -151 186 118 c 1,23,24
 249 218 249 218 313 358 c 0,25,26
 458 673 458 673 446 827 c 0,27,28
 442 879 442 879 424 894 c 128,-1,29
 406 909 406 909 349 904 c 128,-1,30
 292 899 292 899 191 855 c 0,31,32
 167 844 167 844 141.5 853.5 c 128,-1,33
 116 863 116 863 105.5 887.5 c 128,-1,34
 95 912 95 912 105 937.5 c 128,-1,35
 115 963 115 963 139 973 c 0,36,37
 259 1026 259 1026 350.5 1034 c 128,-1,38
 442 1042 442 1042 504 989 c 0,39,40
 678 840 678 840 431 304 c 0,41,42
 386 206 386 206 342 127 c 1,11,12
EndSplineSet
EndChar

StartChar: u2
Encoding: 96 3394 96
Width: 882
GlyphClass: 2
Flags: MW
LayerCount: 2
Fore
SplineSet
106.5 886 m 132,-1,1
 95 910 95 910 104 936 c 132,-1,2
 113 962 113 962 137 973 c 4,3,4
 241 1022 241 1022 327.5 1033.5 c 132,-1,5
 414 1045 414 1045 479 996 c 4,6,7
 658 860 658 860 442 341 c 4,8,9
 403 247 403 247 364 169 c 5,10,11
 652 159 652 159 792 4 c 4,12,13
 887 -101 887 -101 856 -256 c 132,-1,14
 825 -411 825 -411 665 -514 c 4,15,16
 556 -584 556 -584 400.5 -578.5 c 132,-1,17
 245 -573 245 -573 74 -453 c 4,18,19
 52 -438 52 -438 47.5 -411 c 132,-1,20
 43 -384 43 -384 58.5 -362.5 c 132,-1,21
 74 -341 74 -341 100.5 -336 c 132,-1,22
 127 -331 127 -331 149 -347 c 4,23,24
 289 -445 289 -445 404 -448.5 c 132,-1,25
 519 -452 519 -452 595 -404 c 4,26,27
 709 -331 709 -331 728 -235.5 c 132,-1,28
 747 -140 747 -140 692.5 -80 c 132,-1,29
 638 -20 638 -20 541 11 c 5,30,31
 576 -40 576 -40 575.5 -96 c 132,-1,32
 575 -152 575 -152 545 -201 c 4,33,34
 487 -294 487 -294 384.5 -314.5 c 132,-1,35
 282 -335 282 -335 198 -314 c 132,-1,36
 114 -293 114 -293 73 -219.5 c 132,-1,37
 32 -146 32 -146 58.5 -38 c 132,-1,38
 85 70 85 70 185 139 c 4,39,40
 194 145 194 145 206 151 c 5,41,42
 264 251 264 251 322 391 c 4,43,44
 446 690 446 690 427 834 c 4,45,46
 420 883 420 883 403 896.5 c 132,-1,47
 386 910 386 910 332.5 903 c 132,-1,48
 279 896 279 896 193 855 c 4,49,50
 169 844 169 844 143.5 853 c 132,-1,0
 118 862 118 862 106.5 886 c 132,-1,1
241 18 m 5,51,52
 197 -20 197 -20 183 -78.5 c 132,-1,53
 169 -137 169 -137 180.5 -158 c 132,-1,54
 192 -179 192 -179 238.5 -190 c 132,-1,55
 285 -201 285 -201 346 -189 c 132,-1,56
 407 -177 407 -177 431.5 -137 c 132,-1,57
 456 -97 456 -97 436 -66 c 4,58,59
 395 -1 395 -1 241 18 c 5,51,52
EndSplineSet
EndChar

StartChar: r1
Encoding: 97 3395 97
Width: 777
GlyphClass: 2
Flags: MW
LayerCount: 2
Fore
SplineSet
769 -180 m 4,0,1
 769 -354 769 -354 646 -437.5 c 132,-1,2
 523 -521 523 -521 379 -521 c 260,3,4
 235 -521 235 -521 158 -441.5 c 132,-1,5
 81 -362 81 -362 81 -249 c 260,6,7
 81 -136 81 -136 150.5 -67 c 132,-1,8
 220 2 220 2 326 2 c 260,9,10
 432 2 432 2 496.5 -73 c 132,-1,11
 561 -148 561 -148 561 -255 c 260,12,13
 561 -362 561 -362 481 -413 c 5,14,15
 659 -362 659 -362 659 -183 c 4,16,17
 659 -71 659 -71 465.5 132 c 132,-1,18
 272 335 272 335 272 757 c 4,19,20
 272 894 272 894 280 920 c 5,21,-1
 408 920 l 5,22,23
 406 800 406 800 406 751 c 4,24,25
 406 532 406 532 442.5 414.5 c 132,-1,26
 479 297 479 297 587 170.5 c 132,-1,27
 695 44 695 44 732 -25 c 132,-1,28
 769 -94 769 -94 769 -180 c 4,0,1
445 -251 m 4,29,30
 445 -185 445 -185 410.5 -139.5 c 132,-1,31
 376 -94 376 -94 317 -94 c 4,32,33
 192 -94 192 -94 192 -251 c 4,34,35
 192 -315 192 -315 230 -361.5 c 132,-1,36
 268 -408 268 -408 319 -408 c 4,37,38
 445 -408 445 -408 445 -251 c 4,29,30
EndSplineSet
EndChar

StartChar: e1
Encoding: 98 3398 98
Width: 1367
GlyphClass: 2
Flags: MW
LayerCount: 2
Fore
SplineSet
243 514 m 1,0,1
 224 420 224 420 233 340 c 0,2,3
 247 214 247 214 320 155 c 0,4,5
 378 109 378 109 446 132 c 0,6,7
 534 161 534 161 596 289 c 0,8,9
 648 396 648 396 615 486 c 0,10,11
 587 565 587 565 500 586 c 0,12,13
 399 610 399 610 254 519 c 0,14,15
 249 517 249 517 243 514 c 1,0,1
309 691 m 1,16,17
 520 767 520 767 658 647 c 0,18,19
 768 551 768 551 756 386 c 0,20,21
 750 308 750 308 713 232 c 0,22,23
 627 54 627 54 486 8 c 0,24,25
 351 -36 351 -36 237.5 54.5 c 128,-1,26
 124 145 124 145 104 325 c 0,27,28
 86 485 86 485 154 668.5 c 128,-1,29
 222 852 222 852 395 953 c 128,-1,30
 568 1054 568 1054 774 1021 c 128,-1,31
 980 988 980 988 1116 854 c 0,32,33
 1277 694 1277 694 1267 468 c 128,-1,34
 1257 242 1257 242 1076 6 c 0,35,36
 1060 -15 1060 -15 1033 -18.5 c 128,-1,37
 1006 -22 1006 -22 984.5 -5.5 c 128,-1,38
 963 11 963 11 959.5 38 c 128,-1,39
 956 65 956 65 972 86 c 0,40,41
 1128 289 1128 289 1136 465.5 c 128,-1,42
 1144 642 1144 642 1031 754 c 128,-1,43
 918 866 918 866 755.5 892.5 c 128,-1,44
 593 919 593 919 458 840 c 0,45,46
 365 785 365 785 309 691 c 1,16,17
EndSplineSet
EndChar

StartChar: e2
Encoding: 99 3399 99
Width: 896
GlyphClass: 2
Flags: MW
LayerCount: 2
Fore
SplineSet
390 843 m 1,0,1
 421 849 421 849 443 830.5 c 128,-1,2
 465 812 465 812 467.5 785 c 128,-1,3
 470 758 470 758 490.5 739.5 c 128,-1,4
 511 721 511 721 538.5 720.5 c 128,-1,5
 566 720 566 720 586 738 c 0,6,7
 627 776 627 776 593 825 c 0,8,9
 579 846 579 846 553 860 c 0,10,11
 478 898 478 898 390 843 c 1,0,1
344 807 m 1,12,13
 262 726 262 726 241 615.5 c 128,-1,14
 220 505 220 505 242 407 c 0,15,16
 287 204 287 204 431 133 c 0,17,18
 501 99 501 99 549 110 c 0,19,20
 708 145 708 145 654 303 c 0,21,22
 635 359 635 359 598 395 c 0,23,24
 538 452 538 452 471 428 c 0,25,26
 430 414 430 414 420 375.5 c 128,-1,27
 410 337 410 337 436.5 318 c 128,-1,28
 463 299 463 299 467 272 c 128,-1,29
 471 245 471 245 455.5 223.5 c 128,-1,30
 440 202 440 202 413.5 197.5 c 128,-1,31
 387 193 387 193 365 209 c 0,32,33
 314 245 314 245 297 300 c 0,34,35
 262 413 262 413 339 492 c 128,-1,36
 416 571 416 571 516 563.5 c 128,-1,37
 616 556 616 556 682 494 c 128,-1,38
 748 432 748 432 772 362 c 0,39,40
 845 147 845 147 700 36 c 0,41,42
 653 0 653 0 593 -13 c 0,43,44
 485 -37 485 -37 378.5 14.5 c 128,-1,45
 272 66 272 66 207 161 c 128,-1,46
 142 256 142 256 114.5 379.5 c 128,-1,47
 87 503 87 503 111.5 632 c 128,-1,48
 136 761 136 761 214 856.5 c 128,-1,49
 292 952 292 952 399.5 990 c 128,-1,50
 507 1028 507 1028 611 976 c 0,51,52
 668 948 668 948 703.5 895 c 128,-1,53
 739 842 739 842 736 769.5 c 128,-1,54
 733 697 733 697 674.5 643 c 128,-1,55
 616 589 616 589 537.5 590 c 128,-1,56
 459 591 459 591 402 644 c 128,-1,57
 345 697 345 697 338 774 c 0,58,59
 337 790 337 790 344 807 c 1,12,13
EndSplineSet
EndChar

StartChar: xx
Encoding: 104 3405 104
Width: 176
GlyphClass: 2
Flags: MW
AnchorPoint: "chandrakkala" -3 -0 mark 0
AnchorPoint: "dotreph" -600 1020 basechar 0
LayerCount: 2
Fore
SplineSet
-211.5 1437.5 m 128,-1,1
 -185 1443 -185 1443 -162.5 1428 c 128,-1,2
 -140 1413 -140 1413 -135 1387 c 0,3,4
 -96 1196 -96 1196 -21 1146 c 0,5,6
 -2 1133 -2 1133 20 1144 c 0,7,8
 86 1176 86 1176 112 1291 c 0,9,10
 121 1331 121 1331 121 1366 c 128,-1,11
 121 1401 121 1401 140 1420 c 128,-1,12
 159 1439 159 1439 185.5 1439 c 128,-1,13
 212 1439 212 1439 231.5 1420 c 128,-1,14
 251 1401 251 1401 251 1359 c 0,15,16
 251 1201 251 1201 156 1088 c 0,17,18
 94 1014 94 1014 4 1010 c 0,19,20
 -86 1005 -86 1005 -156 1096 c 0,21,22
 -226 1187 -226 1187 -262 1361 c 0,23,24
 -267 1387 -267 1387 -252.5 1409.5 c 128,-1,0
 -238 1432 -238 1432 -211.5 1437.5 c 128,-1,1
EndSplineSet
EndChar

StartChar: dotreph
Encoding: 105 3406 105
Width: 0
GlyphClass: 4
Flags: MW
AnchorPoint: "dotreph" -604 1076 mark 0
LayerCount: 2
Fore
SplineSet
-584 1087 m 0,0,1
 -632 1074 -632 1074 -660 1118 c 0,2,3
 -686 1162 -686 1162 -694 1207 c 0,4,5
 -711 1300 -711 1300 -646 1339 c 0,6,7
 -615 1357 -615 1357 -579 1348.5 c 128,-1,8
 -543 1340 -543 1340 -523 1311 c 128,-1,9
 -503 1282 -503 1282 -503 1247 c 0,10,11
 -503 1180 -503 1180 -544 1116 c 0,12,13
 -558 1094 -558 1094 -584 1087 c 0,0,1
EndSplineSet
EndChar

StartChar: au2
Encoding: 106 3415 106
Width: 1260
GlyphClass: 2
Flags: MW
LayerCount: 2
Fore
SplineSet
662 497 m 0,0,1
 637 445 637 445 589 447 c 0,2,3
 516 450 516 450 507 541 c 0,4,5
 503 579 503 579 483 645 c 0,6,7
 417 857 417 857 347 857 c 0,8,9
 323 857 323 857 284 820 c 128,-1,10
 245 783 245 783 234 727 c 0,11,12
 211 602 211 602 325 459 c 0,13,14
 342 438 342 438 339 411.5 c 128,-1,15
 336 385 336 385 315 368 c 128,-1,16
 294 351 294 351 267 354.5 c 128,-1,17
 240 358 240 358 224 378 c 0,18,19
 73 567 73 567 106 751 c 0,20,21
 124 849 124 849 198.5 918 c 128,-1,22
 273 987 273 987 356 987 c 0,23,24
 520 987 520 987 610 673 c 1,25,26
 678 786 678 786 768 883.5 c 128,-1,27
 858 981 858 981 947 997 c 128,-1,28
 1036 1013 1036 1013 1087 966 c 0,29,30
 1216 849 1216 849 1120 490 c 0,31,32
 1096 400 1096 400 1067 340 c 0,33,34
 972 145 972 145 842.5 27 c 128,-1,35
 713 -91 713 -91 539 -146 c 0,36,37
 514 -154 514 -154 489.5 -141.5 c 128,-1,38
 465 -129 465 -129 457 -104 c 128,-1,39
 449 -79 449 -79 461.5 -55 c 128,-1,40
 474 -31 474 -31 499 -22 c 0,41,42
 646 25 646 25 756 124.5 c 128,-1,43
 866 224 866 224 951 397 c 0,44,45
 974 445 974 445 995 523 c 0,46,47
 1044 706 1044 706 1025 816 c 0,48,49
 1015 873 1015 873 1000 873 c 0,50,51
 934 872 934 872 839.5 770 c 128,-1,52
 745 668 745 668 662 497 c 0,0,1
EndSplineSet
EndChar

StartChar: datemark
Encoding: 107 3449 107
Width: 2161
GlyphClass: 2
Flags: MW
LayerCount: 2
Fore
SplineSet
785 591 m 1,0,1
 829 702 829 702 894 789 c 0,2,3
 1030 972 1030 972 1214 1007.5 c 128,-1,4
 1398 1043 1398 1043 1544 940.5 c 128,-1,5
 1690 838 1690 838 1726 637 c 0,6,7
 1726 636 1726 636 1761 625 c 128,-1,8
 1796 614 1796 614 1875.5 573 c 128,-1,9
 1955 532 1955 532 2005.5 491.5 c 128,-1,10
 2056 451 2056 451 2059 424 c 128,-1,11
 2062 397 2062 397 2045 376.5 c 128,-1,12
 2028 356 2028 356 2001 353 c 128,-1,13
 1974 350 1974 350 1929 386.5 c 128,-1,14
 1884 423 1884 423 1827.5 451.5 c 128,-1,15
 1771 480 1771 480 1736 494 c 1,16,17
 1734 457 1734 457 1729 418 c 0,18,19
 1708 238 1708 238 1578 129 c 128,-1,20
 1448 20 1448 20 1342 15.5 c 128,-1,21
 1236 11 1236 11 1175.5 38.5 c 128,-1,22
 1115 66 1115 66 1073 128 c 128,-1,23
 1031 190 1031 190 1028.5 275.5 c 128,-1,24
 1026 361 1026 361 1052 424.5 c 128,-1,25
 1078 488 1078 488 1125 535 c 128,-1,26
 1172 582 1172 582 1236 613.5 c 128,-1,27
 1300 645 1300 645 1373 659.5 c 128,-1,28
 1446 674 1446 674 1501.5 671.5 c 128,-1,29
 1557 669 1557 669 1586 665 c 1,30,31
 1552 776 1552 776 1460.5 840.5 c 128,-1,32
 1369 905 1369 905 1236.5 879.5 c 128,-1,33
 1104 854 1104 854 999 713.5 c 128,-1,34
 894 573 894 573 864 417 c 128,-1,35
 834 261 834 261 831 182 c 128,-1,36
 828 103 828 103 826.5 67.5 c 128,-1,37
 825 32 825 32 805 13.5 c 128,-1,38
 785 -5 785 -5 758.5 -3.5 c 128,-1,39
 732 -2 732 -2 714 17.5 c 128,-1,40
 696 37 696 37 696 71.5 c 128,-1,41
 696 106 696 106 698 187.5 c 128,-1,42
 700 269 700 269 686.5 406.5 c 128,-1,43
 673 544 673 544 618.5 684 c 128,-1,44
 564 824 564 824 471 861 c 0,45,46
 437 875 437 875 406.5 869.5 c 128,-1,47
 376 864 376 864 342 836 c 0,48,49
 260 770 260 770 223 579 c 128,-1,50
 186 388 186 388 307 94 c 0,51,52
 317 69 317 69 306.5 44 c 128,-1,53
 296 19 296 19 271.5 9 c 128,-1,54
 247 -1 247 -1 222 9.5 c 128,-1,55
 197 20 197 20 187 45 c 0,56,57
 51 375 51 375 96 608 c 128,-1,58
 141 841 141 841 260 937 c 0,59,60
 318 984 318 984 384.5 995.5 c 128,-1,61
 451 1007 451 1007 519 982 c 0,62,63
 664 925 664 925 746 714 c 0,64,65
 769 657 769 657 785 591 c 1,0,1
1606 531 m 1,66,67
 1564 538 1564 538 1510 540.5 c 128,-1,68
 1456 543 1456 543 1399 532 c 128,-1,69
 1342 521 1342 521 1295.5 498 c 128,-1,70
 1249 475 1249 475 1218.5 444.5 c 128,-1,71
 1188 414 1188 414 1172 375.5 c 128,-1,72
 1156 337 1156 337 1158 284.5 c 128,-1,73
 1160 232 1160 232 1182 199.5 c 128,-1,74
 1204 167 1204 167 1231.5 154.5 c 128,-1,75
 1259 142 1259 142 1328.5 145 c 128,-1,76
 1398 148 1398 148 1491.5 226 c 128,-1,77
 1585 304 1585 304 1600 434 c 1,78,79
 1607 485 1607 485 1606 531 c 1,66,67
EndSplineSet
EndChar

StartChar: ZWNJ
Encoding: 114 8204 114
Width: 321
GlyphClass: 2
Flags: MW
LayerCount: 2
Fore
SplineSet
66 1032 m 1,0,-1
 225 1032 l 1,1,-1
 225 43 l 1,2,-1
 66 43 l 1,3,-1
 66 1032 l 1,0,-1
EndSplineSet
EndChar

StartChar: ZWJ
Encoding: 115 8205 115
Width: 321
GlyphClass: 2
Flags: MW
LayerCount: 2
Fore
SplineSet
148 1012 m 1,0,-1
 14 804 l 1,1,-1
 -90 804 l 1,2,-1
 96 1076 l 1,3,-1
 -76 1324 l 1,4,-1
 33 1324 l 1,5,-1
 111 1203 l 2,6,7
 120 1189 120 1189 145 1144 c 1,8,-1
 270 1324 l 1,9,-1
 377 1324 l 1,10,-1
 199 1080 l 1,11,-1
 387 804 l 1,12,-1
 283 804 l 1,13,-1
 148 1012 l 1,0,-1
70 888 m 1,14,-1
 224 888 l 1,15,-1
 224 13 l 1,16,-1
 70 13 l 1,17,-1
 70 888 l 1,14,-1
EndSplineSet
EndChar

StartChar: rupee
Encoding: 116 8377 116
Width: 1231
GlyphClass: 2
Flags: MW
LayerCount: 2
Fore
SplineSet
754 1179 m 1,0,1
 828 1073 828 1073 808 936 c 1,2,3
 937 936 937 936 1067 935 c 0,4,5
 1094 935 1094 935 1113 916 c 128,-1,6
 1132 897 1132 897 1132 870.5 c 128,-1,7
 1132 844 1132 844 1112.5 824.5 c 128,-1,8
 1093 805 1093 805 1067 805 c 0,9,10
 918 806 918 806 768 806 c 1,11,12
 690 643 690 643 526 537 c 0,13,14
 465 498 465 498 399 473 c 1,15,-1
 891 82 l 2,16,17
 912 65 912 65 915 38 c 128,-1,18
 918 11 918 11 901.5 -9.5 c 128,-1,19
 885 -30 885 -30 858 -33.5 c 128,-1,20
 831 -37 831 -37 810 -20 c 2,21,-1
 218 450 l 2,22,23
 199 465 199 465 194.5 490.5 c 128,-1,24
 190 516 190 516 205.5 538.5 c 128,-1,25
 221 561 221 561 248 565 c 0,26,27
 359 584 359 584 457 647.5 c 128,-1,28
 555 711 555 711 619 807 c 1,29,30
 396 808 396 808 173 808 c 0,31,32
 146 808 146 808 127 827.5 c 128,-1,33
 108 847 108 847 108 873.5 c 128,-1,34
 108 900 108 900 127 919.5 c 128,-1,35
 146 939 146 939 173 938 c 2,36,-1
 676 937 l 1,37,38
 690 1003 690 1003 669 1062 c 128,-1,39
 648 1121 648 1121 591 1155 c 0,40,41
 558 1174 558 1174 523 1179 c 1,42,-1
 477 1180 l 2,43,44
 473 1180 473 1180 463.5 1178 c 128,-1,45
 454 1176 454 1176 441 1180 c 1,46,47
 303 1180 303 1180 165 1181 c 0,48,49
 138 1181 138 1181 119 1200 c 128,-1,50
 100 1219 100 1219 100 1245.5 c 128,-1,51
 100 1272 100 1272 119.5 1291.5 c 128,-1,52
 139 1311 139 1311 165 1311 c 0,53,54
 317 1310 317 1310 470 1310 c 1,55,56
 502 1313 502 1313 533 1309 c 1,57,58
 796 1308 796 1308 1059 1308 c 0,59,60
 1086 1308 1086 1308 1105 1288.5 c 128,-1,61
 1124 1269 1124 1269 1124 1242.5 c 128,-1,62
 1124 1216 1124 1216 1104.5 1196.5 c 128,-1,63
 1085 1177 1085 1177 1059 1178 c 0,64,65
 906 1178 906 1178 754 1179 c 1,0,1
EndSplineSet
EndChar

StartChar: uni25CC
Encoding: 117 9676 117
Width: 1131
GlyphClass: 2
Flags: MW
LayerCount: 2
Fore
SplineSet
930 710 m 1,0,1
 866 817 866 817 794 843 c 1,2,-1
 868 944 l 1,3,4
 948 892 948 892 980 860 c 1,5,-1
 984 858 l 1,6,7
 1022 811 1022 811 1038 784 c 1,8,-1
 930 710 l 1,0,1
686 1017 m 1,9,-1
 666 897 l 1,10,11
 602 907 602 907 568 907 c 128,-1,12
 534 907 534 907 470 897 c 1,13,-1
 450 1017 l 1,14,15
 521 1033 521 1033 570 1033 c 128,-1,16
 619 1033 619 1033 686 1017 c 1,9,-1
1098 630 m 1,17,18
 1112 573 1112 573 1112 517.5 c 128,-1,19
 1112 462 1112 462 1098 405 c 1,20,-1
 972 426 l 1,21,22
 981 486 981 486 981 514.5 c 128,-1,23
 981 543 981 543 972 609 c 1,24,-1
 1098 630 l 1,17,18
1038 250 m 1,25,26
 980 170 980 170 954 142 c 1,27,-1
 952 142 l 1,28,29
 950 140 950 140 868 91 c 1,30,-1
 794 192 l 1,31,32
 866 236 866 236 888 260 c 1,33,34
 924 312 924 312 930 325 c 1,35,-1
 1038 250 l 1,25,26
348 843 m 1,36,37
 264 796 264 796 252 771 c 1,38,-1
 212 710 l 1,39,-1
 104 784 l 1,40,41
 156 860 156 860 186 888 c 1,42,43
 198 897 198 897 270 944 c 1,44,-1
 348 843 l 1,36,37
170 426 m 1,45,-1
 42 405 l 1,46,47
 30 461 30 461 30 517 c 128,-1,48
 30 573 30 573 42 630 c 1,49,-1
 170 609 l 1,50,51
 158 576 158 576 158 517.5 c 128,-1,52
 158 459 158 459 170 426 c 1,45,-1
686 18 m 1,53,54
 640 4 640 4 571 4 c 128,-1,55
 502 4 502 4 450 18 c 1,56,-1
 470 138 l 1,57,58
 535 128 535 128 568.5 128 c 128,-1,59
 602 128 602 128 666 138 c 1,60,-1
 686 18 l 1,53,54
348 192 m 1,61,-1
 270 91 l 1,62,63
 178 150 178 150 158 175 c 1,64,-1
 156 175 l 1,65,-1
 104 250 l 1,66,-1
 212 325 l 1,67,68
 262 248 262 248 278 237 c 128,-1,69
 294 226 294 226 348 192 c 1,61,-1
EndSplineSet
EndChar

StartChar: r4
Encoding: 118 -1 118
Width: 615
GlyphClass: 2
LigCaretCntFixed: 1
Flags: MW
LayerCount: 2
Fore
SplineSet
516 -223.5 m 128,-1,1
 515 -250 515 -250 495 -268.5 c 128,-1,2
 475 -287 475 -287 448 -286 c 0,3,4
 211 -277 211 -277 135 -100 c 0,5,6
 74 42 74 42 118 352 c 0,7,8
 135 475 135 475 181.5 709.5 c 128,-1,9
 228 944 228 944 234 976.5 c 128,-1,10
 240 1009 240 1009 262.5 1024.5 c 128,-1,11
 285 1040 285 1040 311.5 1035 c 128,-1,12
 338 1030 338 1030 353 1007 c 128,-1,13
 368 984 368 984 361.5 951.5 c 128,-1,14
 355 919 355 919 309.5 686 c 128,-1,15
 264 453 264 453 247 334 c 0,16,17
 209 60 209 60 253.5 -45.5 c 128,-1,18
 298 -151 298 -151 453 -156 c 0,19,20
 480 -157 480 -157 498.5 -177 c 128,-1,0
 517 -197 517 -197 516 -223.5 c 128,-1,1
EndSplineSet
Ligature2: "'pref' Pre Base Forms in Malay+AQEA-lam2 lookup 1 subtable" xx r3
Ligature2: "'pstf' Post Base Forms in Malay+AQEA-lam lookup 7 subtable" r3 xx
LCarets2: 1 0 
EndChar

StartChar: y2
Encoding: 119 -1 119
Width: 436
GlyphClass: 2
LigCaretCntFixed: 1
Flags: MW
LayerCount: 2
Fore
SplineSet
-50.5 -79 m 132,-1,1
 -42 -104 -42 -104 -54 -128.5 c 132,-1,2
 -66 -153 -66 -153 -91 -161 c 4,3,4
 -213 -202 -213 -202 -245 -237 c 5,5,6
 -222 -259 -222 -259 -125.5 -290 c 132,-1,7
 -29 -321 -29 -321 129 -322 c 4,8,9
 204 -323 204 -323 237.5 -286.5 c 132,-1,10
 271 -250 271 -250 258 -215 c 5,11,12
 78 361 78 361 72 505 c 4,13,14
 63 709 63 709 102 860 c 4,15,16
 123 942 123 942 162 1071 c 4,17,18
 170 1096 170 1096 193.5 1109 c 132,-1,19
 217 1122 217 1122 242.5 1114.5 c 132,-1,20
 268 1107 268 1107 281 1083 c 132,-1,21
 294 1059 294 1059 286 1034 c 4,22,23
 248 907 248 907 220.5 801 c 132,-1,24
 193 695 193 695 202 510 c 4,25,26
 208 383 208 383 382 -176 c 4,27,28
 415 -285 415 -285 337.5 -369.5 c 132,-1,29
 260 -454 260 -454 128 -452 c 4,30,31
 -163 -450 -163 -450 -314 -350 c 4,32,33
 -372 -312 -372 -312 -377 -247 c 4,34,35
 -386 -135 -386 -135 -209 -65 c 4,36,37
 -178 -53 -178 -53 -142.5 -41 c 132,-1,38
 -107 -29 -107 -29 -83 -41.5 c 132,-1,0
 -59 -54 -59 -54 -50.5 -79 c 132,-1,1
EndSplineSet
Ligature2: "'pstf' Post Base Forms in Malay+AQEA-lam2 lookup 7 subtable" xx y1
Ligature2: "'pstf' Post Base Forms in Malay+AQEA-lam lookup 7 subtable" y1 xx
LCarets2: 1 3 
EndChar

StartChar: v2
Encoding: 122 -1 122
Width: 588
GlyphClass: 3
LigCaretCntFixed: 1
Flags: MW
LayerCount: 2
Fore
SplineSet
-394.5 -402.5 m 128,-1,1
 -393 -376 -393 -376 -373 -358 c 128,-1,2
 -353 -340 -353 -340 -326 -341 c 0,3,4
 42 -362 42 -362 105.5 -360 c 128,-1,5
 169 -358 169 -358 209 -350 c 128,-1,6
 249 -342 249 -342 253.5 -336 c 128,-1,7
 258 -330 258 -330 264 -307 c 128,-1,8
 270 -284 270 -284 265.5 -249 c 128,-1,9
 261 -214 261 -214 228 -2 c 0,10,11
 151 495 151 495 193 1023 c 0,12,13
 195 1049 195 1049 216 1067 c 128,-1,14
 237 1085 237 1085 263.5 1083 c 128,-1,15
 290 1081 290 1081 307.5 1060 c 128,-1,16
 325 1039 325 1039 322 1000 c 0,17,18
 282 500 282 500 357 18 c 0,19,20
 391 -203 391 -203 396 -237.5 c 128,-1,21
 401 -272 401 -272 393.5 -326.5 c 128,-1,22
 386 -381 386 -381 354 -418 c 0,23,24
 298 -484 298 -484 134 -490 c 0,25,26
 40 -493 40 -493 -334 -471 c 0,27,28
 -361 -469 -361 -469 -378.5 -449 c 128,-1,0
 -396 -429 -396 -429 -394.5 -402.5 c 128,-1,1
EndSplineSet
Ligature2: "'pstf' Post Base Forms in Malay+AQEA-lam2 lookup 7 subtable" xx v1
Ligature2: "'pstf' Post Base Forms in Malay+AQEA-lam lookup 7 subtable" v1 xx
LCarets2: 1 0 
EndChar

StartChar: k1cil
Encoding: 123 -1 123
Width: 1752
GlyphClass: 3
LigCaretCntFixed: 1
Flags: MW
LayerCount: 2
Fore
SplineSet
1081 757 m 1,0,1
 1145 750 1145 750 1210 735 c 1,2,3
 1243 946 1243 946 1295 1118 c 128,-1,4
 1347 1290 1347 1290 1367 1342 c 2,5,-1
 1387 1393 l 2,6,7
 1397 1418 1397 1418 1421.5 1428.5 c 128,-1,8
 1446 1439 1446 1439 1471 1429.5 c 128,-1,9
 1496 1420 1496 1420 1507 1395 c 128,-1,10
 1518 1370 1518 1370 1508 1346 c 2,11,-1
 1488 1295 l 2,12,13
 1444 1181 1444 1181 1400.5 1010.5 c 128,-1,14
 1357 840 1357 840 1336 699 c 1,15,16
 1503 639 1503 639 1588 535 c 0,17,18
 1640 471 1640 471 1649 399 c 0,19,20
 1669 242 1669 242 1594.5 124 c 128,-1,21
 1520 6 1520 6 1424 -15 c 0,22,23
 1362 -29 1362 -29 1310 -0 c 0,24,25
 1164 82 1164 82 1178 412 c 1,26,27
 1181 507 1181 507 1192 606 c 1,28,29
 1151 616 1151 616 1108 622 c 1,30,31
 1112 578 1112 578 1112 533 c 0,32,33
 1110 322 1110 322 1064.5 190.5 c 128,-1,34
 1019 59 1019 59 913 15 c 0,35,36
 787 -38 787 -38 638 68 c 0,37,38
 597 97 597 97 564 131 c 1,39,40
 535 78 535 78 488 41 c 0,41,42
 394 -33 394 -33 281.5 -11 c 128,-1,43
 169 11 169 11 123 107 c 0,44,45
 38 283 38 283 259 512 c 0,46,47
 261 514 261 514 263 516 c 0,48,49
 346 590 346 590 448 643 c 1,50,51
 472 905 472 905 591.5 1007.5 c 128,-1,52
 711 1110 711 1110 840 1054 c 0,53,54
 1012 979 1012 979 1081 757 c 1,0,1
473 274 m 1,55,56
 455 338 455 338 490 379 c 0,57,58
 507 399 507 399 534.5 401.5 c 128,-1,59
 562 404 562 404 583 386 c 128,-1,60
 604 368 604 368 605 342 c 128,-1,61
 606 316 606 316 606 301.5 c 128,-1,62
 606 287 606 287 630.5 251 c 128,-1,63
 655 215 655 215 729 162.5 c 128,-1,64
 803 110 803 110 857 132.5 c 128,-1,65
 911 155 911 155 945.5 253 c 128,-1,66
 980 351 980 351 982 534 c 0,67,68
 983 585 983 585 976 633 c 1,69,70
 752 635 752 635 569 556 c 1,71,72
 546 500 546 500 490 518 c 1,73,74
 414 476 414 476 351 421 c 1,75,76
 310 378 310 378 283 337 c 0,77,78
 210 228 210 228 241 163 c 0,79,80
 259 126 259 126 310 116 c 128,-1,81
 361 106 361 106 412 146 c 128,-1,82
 463 186 463 186 473 274 c 1,55,56
587 703 m 1,83,84
 749 759 749 759 941 762 c 1,85,86
 887 891 887 891 799 930 c 0,87,88
 734 958 734 958 673.5 906.5 c 128,-1,89
 613 855 613 855 587 703 c 1,83,84
1319 566 m 1,90,91
 1311 484 1311 484 1308 407 c 1,92,93
 1300 228 1300 228 1342 148 c 0,94,95
 1357 119 1357 119 1367.5 113.5 c 128,-1,96
 1378 108 1378 108 1396 111 c 0,97,98
 1439 121 1439 121 1486.5 196.5 c 128,-1,99
 1534 272 1534 272 1520 383 c 0,100,101
 1510 459 1510 459 1399 526 c 0,102,103
 1364 548 1364 548 1319 566 c 1,90,91
EndSplineSet
Ligature2: "'haln' Halant Forms in Malay+AQEA-lam lookup 6 subtable" k1 xx ZWJ
Ligature2: "'half' Half Forms in Malay+AQEA-lam lookup 1 subtable" k1 xx ZWJ
Ligature2: "'akhn' Akhand in Malay+AQEA-lam lookup 0 subtable" k1 xx ZWJ
Ligature2: "'akhn' Akhand in Malay+AQEA-lam2 lookup 0 subtable" k1 xx ZWJ
LCarets2: 2 0 0 
EndChar

StartChar: nhcil
Encoding: 124 -1 124
Width: 2617
GlyphClass: 2
Flags: MW
LayerCount: 2
Fore
SplineSet
1602 33 m 1,0,1
 1593 10 1593 10 1572.5 -4.5 c 128,-1,2
 1552 -19 1552 -19 1529 -16 c 128,-1,3
 1506 -13 1506 -13 1489.5 7 c 128,-1,4
 1473 27 1473 27 1476 104.5 c 128,-1,5
 1479 182 1479 182 1496 297 c 1,6,7
 1500 383 1500 383 1497.5 437 c 128,-1,8
 1495 491 1495 491 1493 520 c 0,9,10
 1472 790 1472 790 1374 882 c 0,11,12
 1344 911 1344 911 1317 915 c 128,-1,13
 1290 919 1290 919 1254 901 c 0,14,15
 1163 856 1163 856 1100.5 718 c 128,-1,16
 1038 580 1038 580 1016.5 455 c 128,-1,17
 995 330 995 330 993.5 248 c 128,-1,18
 992 166 992 166 992 123.5 c 128,-1,19
 992 81 992 81 991.5 51 c 128,-1,20
 991 21 991 21 971.5 2 c 128,-1,21
 952 -17 952 -17 925.5 -16.5 c 128,-1,22
 899 -16 899 -16 881 3.5 c 128,-1,23
 863 23 863 23 860.5 78 c 128,-1,24
 858 133 858 133 858 237.5 c 128,-1,25
 858 342 858 342 846 447 c 0,26,27
 810 764 810 764 698 872 c 0,28,29
 657 911 657 911 614.5 917 c 128,-1,30
 572 923 572 923 489.5 883.5 c 128,-1,31
 407 844 407 844 337 741.5 c 128,-1,32
 267 639 267 639 245 563 c 1,33,34
 322 629 322 629 405 620.5 c 128,-1,35
 488 612 488 612 544 538 c 128,-1,36
 600 464 600 464 605 376 c 0,37,38
 618 149 618 149 519 41 c 0,39,40
 479 -3 479 -3 426 -17.5 c 128,-1,41
 373 -32 373 -32 317 -13 c 0,42,43
 212 24 212 24 152.5 159.5 c 128,-1,44
 93 295 93 295 101 486 c 0,45,46
 102 500 102 500 103 515 c 0,47,48
 118 651 118 651 218.5 798.5 c 128,-1,49
 319 946 319 946 430.5 1000.5 c 128,-1,50
 542 1055 542 1055 630.5 1044 c 128,-1,51
 719 1033 719 1033 803.5 951 c 128,-1,52
 888 869 888 869 939 667 c 1,53,54
 955 711 955 711 973 751 c 0,55,56
 1063 951 1063 951 1196 1017 c 0,57,58
 1266 1052 1266 1052 1336 1041 c 128,-1,59
 1406 1030 1406 1030 1485.5 955 c 128,-1,60
 1565 880 1565 880 1604 672 c 1,61,62
 1646 759 1646 759 1701 829 c 0,63,64
 1845 1012 1845 1012 2042 1035 c 0,65,66
 2064 1038 2064 1038 2086 1038 c 1,67,68
 2100 1069 2100 1069 2125 1125.5 c 128,-1,69
 2150 1182 2150 1182 2169 1255.5 c 128,-1,70
 2188 1329 2188 1329 2184 1369.5 c 128,-1,71
 2180 1410 2180 1410 2197 1431 c 128,-1,72
 2214 1452 2214 1452 2240.5 1454.5 c 128,-1,73
 2267 1457 2267 1457 2288 1440 c 128,-1,74
 2309 1423 2309 1423 2314.5 1371 c 128,-1,75
 2320 1319 2320 1319 2296.5 1229 c 128,-1,76
 2273 1139 2273 1139 2249.5 1086 c 128,-1,77
 2226 1033 2226 1033 2220 1018 c 1,78,79
 2289 995 2289 995 2348 948 c 0,80,81
 2487 837 2487 837 2509.5 669 c 128,-1,82
 2532 501 2532 501 2485.5 372 c 128,-1,83
 2439 243 2439 243 2391 167.5 c 128,-1,84
 2343 92 2343 92 2289 46.5 c 128,-1,85
 2235 1 2235 1 2173.5 -18.5 c 128,-1,86
 2112 -38 2112 -38 2053 -22 c 128,-1,87
 1994 -6 1994 -6 1951.5 43 c 128,-1,88
 1909 92 1909 92 1888 160 c 128,-1,89
 1867 228 1867 228 1868 320.5 c 128,-1,90
 1869 413 1869 413 1890.5 515.5 c 128,-1,91
 1912 618 1912 618 1949.5 719.5 c 128,-1,92
 1987 821 1987 821 2023 900 c 1,93,94
 1901 872 1901 872 1807 753 c 128,-1,95
 1713 634 1713 634 1676.5 507 c 128,-1,96
 1640 380 1640 380 1625 285 c 1,97,98
 1619 170 1619 170 1602 33 c 1,0,1
230 424 m 1,99,100
 232 300 232 300 270 214 c 128,-1,101
 308 128 308 128 360 110 c 0,102,103
 379 103 379 103 392.5 106.5 c 128,-1,104
 406 110 406 110 423 129 c 0,105,106
 484 196 484 196 475 368 c 0,107,108
 472 417 472 417 445 452.5 c 128,-1,109
 418 488 418 488 386.5 491.5 c 128,-1,110
 355 495 355 495 323 460 c 128,-1,111
 291 425 291 425 270 420.5 c 128,-1,112
 249 416 249 416 230 424 c 1,99,100
2165 899 m 1,113,114
 2159 886 2159 886 2136 836.5 c 128,-1,115
 2113 787 2113 787 2075 685 c 128,-1,116
 2037 583 2037 583 2018 491 c 128,-1,117
 1999 399 1999 399 1998 323 c 128,-1,118
 1997 247 1997 247 2011 201.5 c 128,-1,119
 2025 156 2025 156 2045.5 132.5 c 128,-1,120
 2066 109 2066 109 2087.5 103.5 c 128,-1,121
 2109 98 2109 98 2140 107.5 c 128,-1,122
 2171 117 2171 117 2207.5 147.5 c 128,-1,123
 2244 178 2244 178 2283 239 c 128,-1,124
 2322 300 2322 300 2360.5 407.5 c 128,-1,125
 2399 515 2399 515 2382 641.5 c 128,-1,126
 2365 768 2365 768 2292 826 c 128,-1,127
 2219 884 2219 884 2165 899 c 1,113,114
EndSplineSet
LCarets2: 2 0 0 
Ligature2: "'akhn' Akhand in Malay+AQEA-lam2 lookup 0 subtable" nh xx ZWJ
Ligature2: "'akhn' Akhand in Malay+AQEA-lam lookup 0 subtable" nh xx ZWJ
Ligature2: "'half' Half Forms in Malay+AQEA-lam lookup 1 subtable" nh xx ZWJ
Ligature2: "'haln' Halant Forms in Malay+AQEA-lam lookup 6 subtable" nh xx ZWJ
EndChar

StartChar: n1cil
Encoding: 125 -1 125
Width: 1914
GlyphClass: 2
LigCaretCntFixed: 1
Flags: MW
LayerCount: 2
Fore
SplineSet
947 43 m 128,-1,1
 947 38 947 38 943.5 26.5 c 128,-1,2
 940 15 940 15 921.5 -1 c 128,-1,3
 903 -17 903 -17 879.5 -17.5 c 128,-1,4
 856 -18 856 -18 837 1 c 128,-1,5
 818 20 818 20 817.5 40 c 128,-1,6
 817 60 817 60 815.5 134 c 128,-1,7
 814 208 814 208 788 379.5 c 128,-1,8
 762 551 762 551 671.5 689.5 c 128,-1,9
 581 828 581 828 483 847.5 c 128,-1,10
 385 867 385 867 312 802 c 128,-1,11
 239 737 239 737 232 596 c 0,12,13
 221 369 221 369 409 88 c 0,14,15
 424 66 424 66 418.5 39 c 128,-1,16
 413 12 413 12 390.5 -2.5 c 128,-1,17
 368 -17 368 -17 341.5 -12 c 128,-1,18
 315 -7 315 -7 300 15 c 0,19,20
 89 332 89 332 100.5 565 c 128,-1,21
 112 798 112 798 229.5 902.5 c 128,-1,22
 347 1007 347 1007 503 975.5 c 128,-1,23
 659 944 659 944 776 767 c 0,24,25
 834 678 834 678 873 564 c 1,26,27
 920 726 920 726 1022 857 c 128,-1,28
 1124 988 1124 988 1291 1009 c 1,29,30
 1300 1061 1300 1061 1310 1148.5 c 128,-1,31
 1320 1236 1320 1236 1321.5 1317.5 c 128,-1,32
 1323 1399 1323 1399 1342.5 1418 c 128,-1,33
 1362 1437 1362 1437 1388.5 1436.5 c 128,-1,34
 1415 1436 1415 1436 1434 1416.5 c 128,-1,35
 1453 1397 1453 1397 1451.5 1312 c 128,-1,36
 1450 1227 1450 1227 1440 1140.5 c 128,-1,37
 1430 1054 1430 1054 1422 1006 c 1,38,39
 1540 984 1540 984 1659 881 c 128,-1,40
 1778 778 1778 778 1802 637.5 c 128,-1,41
 1826 497 1826 497 1804 394 c 1,42,43
 1748 161 1748 161 1607 59 c 0,44,45
 1549 16 1549 16 1486 4 c 128,-1,46
 1423 -8 1423 -8 1358 14 c 1,47,48
 1238 57 1238 57 1192 186 c 128,-1,49
 1146 315 1146 315 1161 432.5 c 128,-1,50
 1176 550 1176 550 1196 632 c 128,-1,51
 1216 714 1216 714 1232 769 c 128,-1,52
 1248 824 1248 824 1260 870 c 1,53,54
 1175 842 1175 842 1082.5 724 c 128,-1,55
 990 606 990 606 958 324 c 0,56,57
 945 211 945 211 946 136.5 c 128,-1,58
 947 62 947 62 947 55 c 128,-1,0
 947 48 947 48 947 43 c 128,-1,1
1396 879 m 1,59,60
 1379 809 1379 809 1360.5 744.5 c 128,-1,61
 1342 680 1342 680 1323 603 c 128,-1,62
 1304 526 1304 526 1291.5 427.5 c 128,-1,63
 1279 329 1279 329 1309 244 c 128,-1,64
 1339 159 1339 159 1401 137 c 128,-1,65
 1463 115 1463 115 1548 176.5 c 128,-1,66
 1633 238 1633 238 1663 369 c 128,-1,67
 1693 500 1693 500 1675 605 c 128,-1,68
 1657 710 1657 710 1569 787 c 128,-1,69
 1481 864 1481 864 1396 879 c 1,59,60
EndSplineSet
Ligature2: "'haln' Halant Forms in Malay+AQEA-lam lookup 6 subtable" n1 xx ZWJ
Ligature2: "'half' Half Forms in Malay+AQEA-lam lookup 1 subtable" n1 xx ZWJ
Ligature2: "'akhn' Akhand in Malay+AQEA-lam lookup 0 subtable" n1 xx ZWJ
Ligature2: "'akhn' Akhand in Malay+AQEA-lam2 lookup 0 subtable" n1 xx ZWJ
LCarets2: 2 0 0 
EndChar

StartChar: l3cil
Encoding: 126 -1 126
Width: 1851
GlyphClass: 3
Flags: MW
LayerCount: 2
Fore
SplineSet
837 927 m 1,0,1
 969 1000 969 1000 1106 1006.5 c 128,-1,2
 1243 1013 1243 1013 1340 988 c 1,3,4
 1342 993 1342 993 1411.5 1157.5 c 128,-1,5
 1481 1322 1481 1322 1485 1365 c 128,-1,6
 1489 1408 1489 1408 1510 1425.5 c 128,-1,7
 1531 1443 1531 1443 1558 1441 c 0,8,9
 1623 1435 1623 1435 1614 1343 c 0,10,11
 1609 1291 1609 1291 1461 942 c 1,12,13
 1710 814 1710 814 1747 537 c 0,14,15
 1756 469 1756 469 1750 395 c 0,16,17
 1733 173 1733 173 1624 66.5 c 128,-1,18
 1515 -40 1515 -40 1396.5 -12 c 128,-1,19
 1278 16 1278 16 1222 148 c 0,20,21
 1127 371 1127 371 1241 722 c 0,22,23
 1265 797 1265 797 1292 866 c 1,24,25
 1221 882 1221 882 1127 877.5 c 128,-1,26
 1033 873 1033 873 944 834 c 1,27,28
 1070 683 1070 683 1054 447 c 1,29,30
 1029 175 1029 175 910 56 c 0,31,32
 812 -41 812 -41 695 10 c 1,33,34
 593 58 593 58 552 210 c 0,35,36
 523 318 523 318 533 456 c 0,37,38
 552 691 552 691 716 840 c 1,39,40
 671 855 671 855 617 858 c 0,41,42
 485 863 485 863 372.5 784.5 c 128,-1,43
 260 706 260 706 236 571 c 0,44,45
 199 358 199 358 404 92 c 0,46,47
 420 71 420 71 417 44 c 128,-1,48
 414 17 414 17 393 0.5 c 128,-1,49
 372 -16 372 -16 345 -12.5 c 128,-1,50
 318 -9 318 -9 301 12 c 0,51,52
 60 324 60 324 108 593 c 0,53,54
 141 782 141 782 293.5 888.5 c 128,-1,55
 446 995 446 995 622 988 c 0,56,57
 743 983 743 983 837 927 c 1,0,1
831 767 m 1,58,59
 679 647 679 647 663 445 c 0,60,61
 654 330 654 330 678.5 240 c 128,-1,62
 703 150 703 150 751 127 c 1,63,64
 779 109 779 109 819 148 c 0,65,66
 901 230 901 230 924 457 c 1,67,68
 934 659 934 659 831 767 c 1,58,59
1413 820 m 1,69,70
 1322 575 1322 575 1310 437.5 c 128,-1,71
 1298 300 1298 300 1335 214 c 0,72,73
 1389 88 1389 88 1474 116 c 0,74,75
 1497 124 1497 124 1525 151 c 0,76,77
 1607 231 1607 231 1620 406 c 0,78,79
 1642 695 1642 695 1413 820 c 1,69,70
EndSplineSet
LCarets2: 2 0 0 
Ligature2: "'haln' Halant Forms in Malay+AQEA-lam lookup 6 subtable" l3 xx ZWJ
Ligature2: "'half' Half Forms in Malay+AQEA-lam lookup 1 subtable" l3 xx ZWJ
Ligature2: "'akhn' Akhand in Malay+AQEA-lam lookup 0 subtable" l3 xx ZWJ
Ligature2: "'akhn' Akhand in Malay+AQEA-lam2 lookup 0 subtable" l3 xx ZWJ
EndChar

StartChar: lhcil
Encoding: 127 -1 127
Width: 1701
GlyphClass: 3
LigCaretCntFixed: 1
Flags: MW
LayerCount: 2
Fore
SplineSet
438.5 990.5 m 128,-1,1
 457 971 457 971 456 944 c 128,-1,2
 455 917 455 917 436 899 c 0,3,4
 239 712 239 712 231 497 c 128,-1,5
 223 282 223 282 314 181 c 0,6,7
 373 116 373 116 452 122 c 128,-1,8
 531 128 531 128 598 218.5 c 128,-1,9
 665 309 665 309 669 482 c 1,10,11
 683 770 683 770 858 915 c 0,12,13
 978 1015 978 1015 1132 1015 c 1,14,15
 1162 1181 1162 1181 1170 1394 c 0,16,17
 1171 1421 1171 1421 1191 1439.5 c 128,-1,18
 1211 1458 1211 1458 1237.5 1457 c 128,-1,19
 1264 1456 1264 1456 1282.5 1436 c 128,-1,20
 1301 1416 1301 1416 1300 1390 c 0,21,22
 1292 1172 1292 1172 1261 999 c 1,23,24
 1378 968 1378 968 1467 878 c 0,25,26
 1621 723 1621 723 1599.5 469.5 c 128,-1,27
 1578 216 1578 216 1448 79 c 0,28,29
 1344 -32 1344 -32 1219 -15 c 128,-1,30
 1094 2 1094 2 1030 129 c 0,31,32
 919 352 919 352 1063 761 c 0,33,34
 1082 816 1082 816 1102 883 c 1,35,36
 1013 874 1013 874 941 815 c 0,37,38
 811 707 811 707 799 477 c 1,39,40
 793 264 793 264 696.5 133.5 c 128,-1,41
 600 3 600 3 459 -7.5 c 128,-1,42
 318 -18 318 -18 217 94 c 0,43,44
 91 234 91 234 101 501.5 c 128,-1,45
 111 769 111 769 346 993 c 0,46,47
 365 1011 365 1011 392.5 1010.5 c 128,-1,0
 420 1010 420 1010 438.5 990.5 c 128,-1,1
1234 872 m 1,48,49
 1210 786 1210 786 1186 720 c 0,50,51
 1060 360 1060 360 1146 189 c 0,52,53
 1180 121 1180 121 1237.5 113 c 128,-1,54
 1295 105 1295 105 1354 168 c 0,55,56
 1461 282 1461 282 1472 509 c 0,57,58
 1480 680 1480 680 1375 787 c 0,59,60
 1314 849 1314 849 1234 872 c 1,48,49
EndSplineSet
Ligature2: "'haln' Halant Forms in Malay+AQEA-lam lookup 6 subtable" lh xx ZWJ
Ligature2: "'half' Half Forms in Malay+AQEA-lam lookup 1 subtable" lh xx ZWJ
Ligature2: "'akhn' Akhand in Malay+AQEA-lam lookup 0 subtable" lh xx ZWJ
Ligature2: "'akhn' Akhand in Malay+AQEA-lam2 lookup 0 subtable" lh xx ZWJ
LCarets2: 2 0 1 
EndChar

StartChar: r3cil
Encoding: 128 -1 128
Width: 1292
GlyphClass: 3
LigCaretCntFixed: 1
Flags: MW
LayerCount: 2
Fore
SplineSet
688 974 m 1,0,1
 771 1168 771 1168 788 1252.5 c 128,-1,2
 805 1337 805 1337 803.5 1384 c 128,-1,3
 802 1431 802 1431 821 1451 c 128,-1,4
 840 1471 840 1471 866.5 1471.5 c 128,-1,5
 893 1472 893 1472 912.5 1453.5 c 128,-1,6
 932 1435 932 1435 933 1408 c 0,7,8
 938 1248 938 1248 873 1081 c 0,9,10
 844 1006 844 1006 808 925 c 1,11,12
 1021 817 1021 817 1125 644 c 0,13,14
 1201 517 1201 517 1192 406 c 0,15,16
 1170 101 1170 101 990 18 c 0,17,18
 877 -34 877 -34 762 27.5 c 128,-1,19
 647 89 647 89 587 227 c 0,20,21
 470 494 470 494 633 849 c 0,22,23
 634 852 634 852 635 855 c 1,24,25
 556 878 556 878 480 875 c 0,26,27
 250 867 250 867 232 601 c 0,28,29
 218 401 218 401 336 81 c 0,30,31
 345 56 345 56 334 31 c 128,-1,32
 323 6 323 6 298 -3 c 128,-1,33
 273 -12 273 -12 248 -0.5 c 128,-1,34
 223 11 223 11 214 36 c 0,35,36
 19 566 19 566 159 820 c 0,37,38
 256 996 256 996 477 1005 c 0,39,40
 580 1008 580 1008 688 974 c 1,0,1
756 806 m 1,41,42
 753 800 753 800 738 766 c 0,43,44
 650 575 650 575 672 399 c 1,45,46
 701 208 701 208 820 144 c 0,47,48
 916 93 916 93 990 179 c 0,49,50
 1050 249 1050 249 1062 398 c 0,51,52
 1068 486 1068 486 1013 577 c 0,53,54
 931 715 931 715 756 806 c 1,41,42
EndSplineSet
Ligature2: "'haln' Halant Forms in Malay+AQEA-lam lookup 6 subtable" r3 xx ZWJ
Ligature2: "'half' Half Forms in Malay+AQEA-lam lookup 1 subtable" r3 xx ZWJ
Ligature2: "'akhn' Akhand in Malay+AQEA-lam lookup 0 subtable" r3 xx ZWJ
Ligature2: "'akhn' Akhand in Malay+AQEA-lam2 lookup 0 subtable" r3 xx ZWJ
LCarets2: 2 0 0 
EndChar

StartChar: k1u1
Encoding: 129 -1 129
Width: 1651
GlyphClass: 3
LigCaretCntFixed: 1
Flags: MW
LayerCount: 2
Fore
SplineSet
472 274 m 5,0,1
 454 337 454 337 480.5 368 c 132,-1,2
 507 399 507 399 534 401.5 c 132,-1,3
 561 404 561 404 582 386 c 132,-1,4
 603 368 603 368 604 342 c 132,-1,5
 605 316 605 316 605 303 c 132,-1,6
 605 290 605 290 609.5 282.5 c 132,-1,7
 614 275 614 275 634 245 c 132,-1,8
 654 215 654 215 728 162.5 c 132,-1,9
 802 110 802 110 856 132.5 c 132,-1,10
 910 155 910 155 944.5 253 c 132,-1,11
 979 351 979 351 980.5 485 c 132,-1,12
 982 619 982 619 963 693 c 5,13,14
 908 686 908 686 806 663 c 132,-1,15
 704 640 704 640 639.5 607 c 132,-1,16
 575 574 575 574 572 573 c 5,17,18
 569 548 569 548 544 526 c 4,19,20
 519 505 519 505 482 520 c 5,21,22
 413 475 413 475 350 421 c 5,23,24
 309 378 309 378 259 303 c 132,-1,25
 209 228 209 228 229 185.5 c 132,-1,26
 249 143 249 143 263.5 132.5 c 132,-1,27
 278 122 278 122 319 114 c 132,-1,28
 360 106 360 106 405 141.5 c 132,-1,29
 450 177 450 177 460 216 c 132,-1,30
 470 255 470 255 472 274 c 5,0,1
1052 830 m 5,31,32
 1162 832 1162 832 1256 808 c 4,33,34
 1429 764 1429 764 1468.5 650 c 132,-1,35
 1508 536 1508 536 1401 415 c 5,36,37
 1506 366 1506 366 1533 300 c 132,-1,38
 1560 234 1560 234 1547.5 184.5 c 132,-1,39
 1535 135 1535 135 1474.5 76 c 132,-1,40
 1414 17 1414 17 1314 16.5 c 132,-1,41
 1214 16 1214 16 1169 30 c 132,-1,42
 1124 44 1124 44 1111 68 c 132,-1,43
 1098 92 1098 92 1106 117.5 c 132,-1,44
 1114 143 1114 143 1138 155.5 c 132,-1,45
 1162 168 1162 168 1197.5 157 c 132,-1,46
 1233 146 1233 146 1297 146.5 c 132,-1,47
 1361 147 1361 147 1391 176 c 132,-1,48
 1421 205 1421 205 1423.5 215 c 132,-1,49
 1426 225 1426 225 1418 242 c 132,-1,50
 1410 259 1410 259 1372 283.5 c 132,-1,51
 1334 308 1334 308 1287.5 319.5 c 132,-1,52
 1241 331 1241 331 1226 350 c 132,-1,53
 1211 369 1211 369 1214 396 c 132,-1,54
 1217 423 1217 423 1228 432 c 132,-1,55
 1239 441 1239 441 1275.5 470.5 c 132,-1,56
 1312 500 1312 500 1333.5 541 c 132,-1,57
 1355 582 1355 582 1342.5 618.5 c 132,-1,58
 1330 655 1330 655 1247 676 c 132,-1,59
 1164 697 1164 697 1095 700 c 5,60,61
 1112 621 1112 621 1110 471 c 132,-1,62
 1108 321 1108 321 1063 190 c 132,-1,63
 1018 59 1018 59 902 10.5 c 132,-1,64
 786 -38 786 -38 637 68 c 4,65,66
 596 97 596 97 563 131 c 5,67,68
 534 78 534 78 463.5 22 c 132,-1,69
 393 -34 393 -34 309.5 -17 c 132,-1,70
 226 -0 226 -0 185.5 30 c 132,-1,71
 145 60 145 60 123 107 c 4,72,73
 60 239 60 239 174 409 c 4,74,75
 208 460 208 460 234 487 c 4,76,77
 317 574 317 574 448 652 c 5,78,79
 474 907 474 907 592 1008 c 4,80,81
 710 1109 710 1109 844 1052 c 4,82,83
 978 993 978 993 1052 830 c 5,31,32
590 725 m 5,84,85
 744 792 744 792 913 818 c 5,86,87
 865 901 865 901 813.5 923 c 132,-1,88
 762 945 762 945 736 941.5 c 132,-1,89
 710 938 710 938 663.5 898 c 132,-1,90
 617 858 617 858 590 725 c 5,84,85
EndSplineSet
Ligature2: "'psts' Post Base Substitutions in Malay+AQEA-lam/Malay+AQEA-lam2 lookup 5 subtable" k1 u1
LCarets2: 1 0 
EndChar

StartChar: k1u2
Encoding: 130 -1 130
Width: 1851
GlyphClass: 3
LigCaretCntFixed: 1
Flags: MW
LayerCount: 2
Fore
SplineSet
744 284 m 1,0,1
 726 347 726 347 761 389 c 0,2,3
 778 409 778 409 805.5 411.5 c 128,-1,4
 833 414 833 414 854 396 c 128,-1,5
 875 378 875 378 875.5 352 c 128,-1,6
 876 326 876 326 876.5 311.5 c 128,-1,7
 877 297 877 297 901.5 261 c 128,-1,8
 926 225 926 225 1000 172.5 c 128,-1,9
 1074 120 1074 120 1128 142.5 c 128,-1,10
 1182 165 1182 165 1216 263 c 128,-1,11
 1250 361 1250 361 1251.5 495 c 128,-1,12
 1253 629 1253 629 1235 703 c 1,13,14
 1027 677 1027 677 844 583 c 1,15,16
 841 558 841 558 816 536.5 c 128,-1,17
 791 515 791 515 754 530 c 1,18,19
 685 485 685 485 622 431 c 1,20,21
 581 388 581 388 554 347 c 0,22,23
 481 238 481 238 511 173 c 0,24,25
 529 136 529 136 580 126 c 128,-1,26
 631 116 631 116 682.5 156 c 128,-1,27
 734 196 734 196 744 284 c 1,0,1
1324 840 m 1,28,29
 1434 842 1434 842 1528 818 c 0,30,31
 1701 774 1701 774 1741 657.5 c 128,-1,32
 1781 541 1781 541 1663 415 c 1,33,34
 1718 369 1718 369 1736 295 c 0,35,36
 1767 165 1767 165 1665 5.5 c 128,-1,37
 1563 -154 1563 -154 1348 -259 c 0,38,39
 1083 -388 1083 -388 735 -372 c 0,40,41
 591 -365 591 -365 407 -250 c 0,42,43
 266 -161 266 -161 172 7 c 128,-1,44
 78 175 78 175 107 439 c 128,-1,45
 136 703 136 703 344 1051 c 0,46,47
 358 1074 358 1074 384 1080.5 c 128,-1,48
 410 1087 410 1087 433 1073.5 c 128,-1,49
 456 1060 456 1060 462.5 1033.5 c 128,-1,50
 469 1007 469 1007 455 984 c 0,51,52
 46 299 46 299 374 -54 c 0,53,54
 456 -142 456 -142 569 -191 c 128,-1,55
 682 -240 682 -240 741 -242 c 0,56,57
 1056 -256 1056 -256 1291 -142 c 0,58,59
 1473 -53 1473 -53 1561 85 c 0,60,61
 1627 189 1627 189 1609 265 c 0,62,63
 1596 320 1596 320 1541 334 c 0,64,65
 1479 350 1479 350 1485 406 c 0,66,67
 1488 433 1488 433 1500 442 c 0,68,69
 1640 554 1640 554 1618 616 c 0,70,71
 1601 665 1601 665 1496 692 c 0,72,73
 1436 707 1436 707 1367 710 c 1,74,75
 1384 631 1384 631 1382 543 c 0,76,77
 1380 332 1380 332 1334.5 200.5 c 128,-1,78
 1289 69 1289 69 1183 25 c 0,79,80
 1057 -28 1057 -28 909 78 c 0,81,82
 868 107 868 107 834 141 c 1,83,84
 805 88 805 88 759 51 c 0,85,86
 665 -23 665 -23 552.5 -1 c 128,-1,87
 440 21 440 21 394 117 c 0,88,89
 309 293 309 293 530 522 c 0,90,91
 532 524 532 524 534 526 c 0,92,93
 621 603 621 603 720 662 c 1,94,95
 746 917 746 917 864 1018.5 c 128,-1,96
 982 1120 982 1120 1116 1061.5 c 128,-1,97
 1250 1003 1250 1003 1324 840 c 1,28,29
862 735 m 1,98,99
 1016 802 1016 802 1184 828 c 1,100,101
 1136 911 1136 911 1070 939.5 c 128,-1,102
 1004 968 1004 968 946.5 918 c 128,-1,103
 889 868 889 868 862 735 c 1,98,99
EndSplineSet
Ligature2: "'psts' Post Base Substitutions in Malay+AQEA-lam/Malay+AQEA-lam2 lookup 5 subtable" k1 u2
LCarets2: 1 0 
EndChar

StartChar: k1r1
Encoding: 131 -1 131
Width: 1642
GlyphClass: 3
LigCaretCntFixed: 1
Flags: MW
LayerCount: 2
Fore
SplineSet
604 360 m 1,0,1
 605 323 605 323 606 308 c 0,2,3
 606 293 606 293 630.5 257 c 128,-1,4
 655 221 655 221 729 168 c 128,-1,5
 803 115 803 115 857 138 c 128,-1,6
 911 161 911 161 945.5 259 c 128,-1,7
 980 357 980 357 982 540 c 0,8,9
 983 586 983 586 977 630 c 1,10,11
 764 650 764 650 571 566 c 1,12,13
 564 545 564 545 541 530 c 0,14,15
 519 514 519 514 488 525 c 1,16,17
 416 483 416 483 351 427 c 1,18,19
 310 384 310 384 283 343 c 0,20,21
 210 234 210 234 241 169 c 0,22,23
 259 132 259 132 310 122 c 128,-1,24
 361 112 361 112 412 152 c 128,-1,25
 463 192 463 192 473 280 c 1,26,27
 455 343 455 343 490 385 c 0,28,29
 507 405 507 405 543 408 c 0,30,31
 578 411 578 411 604 360 c 1,0,1
448 651 m 1,32,33
 473 911 473 911 592 1014 c 0,34,35
 711 1116 711 1116 840 1060 c 0,36,37
 1021 981 1021 981 1086 745 c 1,38,39
 1279 706 1279 706 1402 590 c 0,40,41
 1474 522 1474 522 1497 439 c 1,42,43
 1602 165 1602 165 1466 -93 c 0,44,45
 1384 -249 1384 -249 1229 -357 c 0,46,47
 987 -525 987 -525 687 -503 c 0,48,49
 481 -488 481 -488 426 -382 c 1,50,51
 383 -284 383 -284 462 -202.5 c 128,-1,52
 541 -121 541 -121 678 -109 c 0,53,54
 874 -93 874 -93 1054 -237 c 0,55,56
 1082 -260 1082 -260 1078 -297 c 1,57,58
 1263 -201 1263 -201 1351 -32 c 0,59,60
 1460 176 1460 176 1375 396 c 0,61,62
 1374 399 1374 399 1372 403 c 0,63,64
 1359 451 1359 451 1296 511 c 128,-1,65
 1233 571 1233 571 1110 606 c 1,66,67
 1112 573 1112 573 1112 539 c 0,68,69
 1110 328 1110 328 1064.5 196.5 c 128,-1,70
 1019 65 1019 65 913 21 c 0,71,72
 787 -32 787 -32 638 74 c 0,73,74
 597 103 597 103 564 137 c 1,75,76
 535 84 535 84 488 47 c 0,77,78
 394 -27 394 -27 282 -5 c 0,79,80
 170 18 170 18 123 113 c 0,81,82
 38 289 38 289 259 519 c 0,83,84
 261 521 261 521 263 522 c 0,85,86
 349 598 349 598 448 651 c 1,32,33
587 713 m 1,87,88
 754 772 754 772 943 763 c 1,89,90
 889 897 889 897 799 936 c 0,91,92
 734 964 734 964 673.5 912.5 c 128,-1,93
 613 861 613 861 587 713 c 1,87,88
974 -340 m 1,94,-1
 973 -339 l 0,95,96
 833 -227 833 -227 688 -239 c 0,97,98
 587 -247 587 -247 542 -309 c 0,99,100
 538 -315 538 -315 540 -319 c 128,-1,101
 542 -323 542 -323 544 -327 c 128,-1,102
 546 -331 546 -331 560 -340 c 0,103,104
 599 -366 599 -366 719 -375 c 0,105,106
 838 -384 838 -384 974 -340 c 1,94,-1
EndSplineSet
Ligature2: "'psts' Post Base Substitutions in Malay+AQEA-lam/Malay+AQEA-lam2 lookup 5 subtable" k1 r1
LCarets2: 1 0 
EndChar

StartChar: k1k1
Encoding: 133 -1 133
Width: 2240
GlyphClass: 3
LigCaretCntFixed: 1
Flags: MW
AnchorPoint: "dotreph" 1191 1155 basechar 0
LayerCount: 2
Fore
SplineSet
1060 803 m 5,0,1
 1192 803 1192 803 1302 768 c 5,2,3
 1419 942 1419 942 1582 1003.5 c 132,-1,4
 1745 1065 1745 1065 1907 961 c 4,5,6
 2039 877 2039 877 2107.5 702.5 c 132,-1,7
 2176 528 2176 528 2108 342 c 4,8,9
 2030 127 2030 127 1786 4 c 4,10,11
 1762 -8 1762 -8 1736 0.5 c 132,-1,12
 1710 9 1710 9 1698 32.5 c 132,-1,13
 1686 56 1686 56 1694.5 82 c 132,-1,14
 1703 108 1703 108 1727 120 c 4,15,16
 1925 220 1925 220 1986 386 c 4,17,18
 2037 526 2037 526 1985.5 658 c 132,-1,19
 1934 790 1934 790 1832 855 c 132,-1,20
 1730 920 1730 920 1621 879 c 132,-1,21
 1512 838 1512 838 1424 715 c 5,22,23
 1599 615 1599 615 1635 455 c 4,24,25
 1684 242 1684 242 1473 76 c 4,26,27
 1458 64 1458 64 1411 42.5 c 132,-1,28
 1364 21 1364 21 1314.5 18 c 132,-1,29
 1265 15 1265 15 1221 38 c 132,-1,30
 1177 61 1177 61 1154 113 c 4,31,32
 1100 230 1100 230 1161 455 c 4,33,34
 1190 564 1190 564 1235 652 c 5,35,36
 1171 669 1171 669 1098 672 c 5,37,38
 1111 600 1111 600 1111 523 c 4,39,40
 1109 312 1109 312 1063.5 180.5 c 132,-1,41
 1018 49 1018 49 912 5 c 4,42,43
 786 -48 786 -48 637 58 c 4,44,45
 596 87 596 87 563 121 c 5,46,47
 534 68 534 68 487 31 c 4,48,49
 393 -43 393 -43 280.5 -21 c 132,-1,50
 168 1 168 1 123 97 c 4,51,52
 38 273 38 273 258 502 c 4,53,54
 262 506 262 506 309.5 541 c 132,-1,55
 357 576 357 576 447 627 c 5,56,57
 471 894 471 894 590.5 997 c 132,-1,58
 710 1100 710 1100 839 1044 c 4,59,60
 986 980 986 980 1060 803 c 5,0,1
472 264 m 5,61,62
 454 327 454 327 489 369 c 4,63,64
 506 389 506 389 533.5 391.5 c 132,-1,65
 561 394 561 394 582 376 c 132,-1,66
 603 358 603 358 604 332 c 132,-1,67
 605 306 605 306 605.5 291.5 c 132,-1,68
 606 277 606 277 630 241 c 132,-1,69
 654 205 654 205 728 152.5 c 132,-1,70
 802 100 802 100 856 122.5 c 132,-1,71
 910 145 910 145 944.5 243 c 132,-1,72
 979 341 979 341 980.5 470.5 c 132,-1,73
 982 600 982 600 967 668 c 5,74,75
 769 648 769 648 568 545 c 5,76,77
 548 499 548 499 497 506 c 5,78,79
 423 463 423 463 348 408 c 5,80,81
 194 246 194 246 240 153 c 4,82,83
 258 116 258 116 309 106 c 132,-1,84
 360 96 360 96 411 136 c 132,-1,85
 462 176 462 176 472 264 c 5,61,62
587 698 m 5,86,87
 755 772 755 772 920 794 c 5,88,89
 869 889 869 889 801 918.5 c 132,-1,90
 733 948 733 948 673.5 896.5 c 132,-1,91
 614 845 614 845 587 698 c 5,86,87
1356 603 m 5,92,93
 1282 461 1282 461 1264 311.5 c 132,-1,94
 1246 162 1246 162 1292 144 c 4,95,96
 1316 135 1316 135 1396 181 c 5,97,98
 1482 250 1482 250 1502 311 c 4,99,100
 1558 489 1558 489 1356 603 c 5,92,93
EndSplineSet
Ligature2: "'akhn' Akhand in Malay+AQEA-lam lookup 0 subtable" k1 xx k1
Ligature2: "'akhn' Akhand in Malay+AQEA-lam2 lookup 0 subtable" k1 xx k1
LCarets2: 2 0 0 
EndChar

StartChar: k1k1u1
Encoding: 134 -1 134
Width: 2297
GlyphClass: 3
LigCaretCntFixed: 1
Flags: MW
LayerCount: 2
Fore
SplineSet
1061 804 m 5,0,1
 1195 804 1195 804 1306 768 c 5,2,3
 1413 916 1413 916 1572.5 990.5 c 132,-1,4
 1732 1065 1732 1065 1884.5 1020.5 c 132,-1,5
 2037 976 2037 976 2098 869 c 5,6,7
 2173 735 2173 735 2086 595 c 4,8,9
 2045 529 2045 529 1970 472 c 5,10,11
 2077 445 2077 445 2107 424 c 132,-1,12
 2137 403 2137 403 2153 385 c 4,13,14
 2193 343 2193 343 2197 262 c 4,15,16
 2203 119 2203 119 2079 42 c 4,17,18
 1988 -14 1988 -14 1827 -2 c 4,19,20
 1801 0 1801 0 1783 20.5 c 132,-1,21
 1765 41 1765 41 1767 67.5 c 132,-1,22
 1769 94 1769 94 1789.5 111.5 c 132,-1,23
 1810 129 1810 129 1855 126 c 4,24,25
 1994 116 1994 116 2048 185 c 4,26,27
 2069 212 2069 212 2067.5 250.5 c 132,-1,28
 2066 289 2066 289 2058.5 296.5 c 132,-1,29
 2051 304 2051 304 2031.5 318 c 132,-1,30
 2012 332 2012 332 1926 350 c 132,-1,31
 1840 368 1840 368 1819 374 c 4,32,33
 1769 389 1769 389 1758 425 c 132,-1,34
 1747 461 1747 461 1774 499 c 4,35,36
 1776 502 1776 502 1779.5 504.5 c 132,-1,37
 1783 507 1783 507 1784.5 508.5 c 132,-1,38
 1786 510 1786 510 1789.5 512.5 c 132,-1,39
 1793 515 1793 515 1794 515.5 c 132,-1,40
 1795 516 1795 516 1799 518 c 4,41,42
 1926 585 1926 585 1975 663 c 132,-1,43
 2024 741 2024 741 1987 803.5 c 132,-1,44
 1950 866 1950 866 1846.5 896 c 132,-1,45
 1743 926 1743 926 1626 871.5 c 132,-1,46
 1509 817 1509 817 1428 713 c 5,47,48
 1599 613 1599 613 1636 456 c 4,49,50
 1685 243 1685 243 1474 77 c 4,51,52
 1459 65 1459 65 1412 43.5 c 132,-1,53
 1365 22 1365 22 1315.5 19 c 132,-1,54
 1266 16 1266 16 1222 39 c 132,-1,55
 1178 62 1178 62 1155 114 c 4,56,57
 1101 231 1101 231 1162 456 c 4,58,59
 1192 568 1192 568 1236 653 c 5,60,61
 1172 670 1172 670 1099 673 c 5,62,63
 1112 601 1112 601 1112 524 c 4,64,65
 1110 313 1110 313 1064.5 181.5 c 132,-1,66
 1019 50 1019 50 913 6 c 4,67,68
 787 -47 787 -47 638 59 c 4,69,70
 597 88 597 88 564 122 c 5,71,72
 535 69 535 69 488 32 c 4,73,74
 394 -42 394 -42 281.5 -20 c 132,-1,75
 169 2 169 2 123 98 c 4,76,77
 38 274 38 274 259 503 c 4,78,79
 263 507 263 507 310.5 542 c 132,-1,80
 358 577 358 577 447 628 c 5,81,82
 471 895 471 895 591 998 c 132,-1,83
 711 1101 711 1101 840 1045 c 4,84,85
 987 981 987 981 1061 804 c 5,0,1
473 265 m 5,86,87
 455 328 455 328 490 370 c 4,88,89
 507 390 507 390 534.5 392.5 c 132,-1,90
 562 395 562 395 583 377 c 132,-1,91
 604 359 604 359 605 333 c 132,-1,92
 606 307 606 307 606 292.5 c 132,-1,93
 606 278 606 278 630.5 242 c 132,-1,94
 655 206 655 206 729 153.5 c 132,-1,95
 803 101 803 101 857 123.5 c 132,-1,96
 911 146 911 146 945.5 244 c 132,-1,97
 980 342 980 342 981.5 472 c 132,-1,98
 983 602 983 602 967 669 c 5,99,100
 770 649 770 649 569 546 c 5,101,102
 549 500 549 500 498 507 c 5,103,104
 424 464 424 464 349 409 c 5,105,106
 195 247 195 247 241 154 c 4,107,108
 259 117 259 117 310 107 c 132,-1,109
 361 97 361 97 412 137 c 132,-1,110
 463 177 463 177 473 265 c 5,86,87
588 699 m 5,111,112
 756 773 756 773 921 795 c 5,113,114
 870 890 870 890 802 919.5 c 132,-1,115
 734 949 734 949 674.5 897.5 c 132,-1,116
 615 846 615 846 588 699 c 5,111,112
1357 604 m 5,117,118
 1283 467 1283 467 1264.5 315 c 132,-1,119
 1246 163 1246 163 1293 145 c 4,120,121
 1317 136 1317 136 1397 182 c 5,122,123
 1482 251 1482 251 1502 312 c 4,124,125
 1558 490 1558 490 1357 604 c 5,117,118
EndSplineSet
Ligature2: "'psts' Post Base Substitutions in Malay+AQEA-lam/Malay+AQEA-lam2 lookup 5 subtable" k1k1 u1
LCarets2: 1 0 
EndChar

StartChar: k1k1u2
Encoding: 135 -1 135
Width: 2299
GlyphClass: 3
LigCaretCntFixed: 1
Flags: MW
LayerCount: 2
Fore
SplineSet
1069 801 m 5,0,1
 1203 801 1203 801 1314 765 c 5,2,3
 1421 913 1421 913 1580.5 987.5 c 132,-1,4
 1740 1062 1740 1062 1892.5 1017.5 c 132,-1,5
 2045 973 2045 973 2106 866 c 5,6,7
 2181 732 2181 732 2094 592 c 4,8,9
 2052 525 2052 525 1974 467 c 5,10,11
 2213 337 2213 337 2199 187 c 4,12,13
 2194 133 2194 133 2153 85 c 4,14,15
 2084 3 2084 3 1935.5 -55.5 c 132,-1,16
 1787 -114 1787 -114 1487 -175.5 c 132,-1,17
 1187 -237 1187 -237 787 -256 c 4,18,19
 571 -267 571 -267 375 -338 c 4,20,21
 291 -369 291 -369 251 -396 c 5,22,23
 383 -436 383 -436 777 -413 c 4,24,25
 800 -412 800 -412 1226 -384.5 c 132,-1,26
 1652 -357 1652 -357 2129 -377 c 4,27,28
 2156 -378 2156 -378 2174.5 -398 c 132,-1,29
 2193 -418 2193 -418 2192 -444.5 c 132,-1,30
 2191 -471 2191 -471 2171 -489.5 c 132,-1,31
 2151 -508 2151 -508 2124 -507 c 4,32,33
 1804 -493 1804 -493 1564.5 -502 c 132,-1,34
 1325 -511 1325 -511 1229.5 -515.5 c 132,-1,35
 1134 -520 1134 -520 971 -530.5 c 132,-1,36
 808 -541 808 -541 784 -543 c 4,37,38
 192 -578 192 -578 120 -463 c 4,39,40
 88 -411 88 -411 109 -363 c 132,-1,41
 130 -315 130 -315 183 -282.5 c 132,-1,42
 236 -250 236 -250 330 -216 c 4,43,44
 544 -138 544 -138 781 -126 c 4,45,46
 1172 -107 1172 -107 1454 -49 c 4,47,48
 1956 54 1956 54 2054 170 c 4,49,50
 2070 189 2070 189 2074 201 c 4,51,52
 2082 230 2082 230 2017.5 284.5 c 132,-1,53
 1953 339 1953 339 1814 400 c 4,54,55
 1794 409 1794 409 1783 430.5 c 132,-1,56
 1772 452 1772 452 1779.5 478 c 132,-1,57
 1787 504 1787 504 1811 517 c 4,58,59
 1935 584 1935 584 1983.5 661 c 132,-1,60
 2032 738 2032 738 1995 800.5 c 132,-1,61
 1958 863 1958 863 1854.5 893 c 132,-1,62
 1751 923 1751 923 1634 868.5 c 132,-1,63
 1517 814 1517 814 1436 710 c 5,64,65
 1607 610 1607 610 1644 453 c 4,66,67
 1693 240 1693 240 1482 74 c 4,68,69
 1467 62 1467 62 1420 40.5 c 132,-1,70
 1373 19 1373 19 1323.5 16 c 132,-1,71
 1274 13 1274 13 1230 36 c 132,-1,72
 1186 59 1186 59 1163 111 c 4,73,74
 1109 228 1109 228 1170 453 c 4,75,76
 1200 565 1200 565 1244 650 c 5,77,78
 1180 667 1180 667 1107 670 c 5,79,80
 1120 598 1120 598 1120 521 c 4,81,82
 1118 310 1118 310 1072.5 178.5 c 132,-1,83
 1027 47 1027 47 921 3 c 4,84,85
 795 -50 795 -50 646 56 c 4,86,87
 605 85 605 85 572 119 c 5,88,89
 543 66 543 66 496 29 c 4,90,91
 402 -45 402 -45 289.5 -23 c 132,-1,92
 177 -1 177 -1 132 95 c 4,93,94
 47 271 47 271 268 500 c 4,95,96
 272 504 272 504 319 539 c 132,-1,97
 366 574 366 574 456 625 c 5,98,99
 480 892 480 892 599.5 995 c 132,-1,100
 719 1098 719 1098 848 1042 c 4,101,102
 995 978 995 978 1069 801 c 5,0,1
481 262 m 5,103,104
 463 325 463 325 499 367 c 4,105,106
 516 387 516 387 543 389.5 c 132,-1,107
 570 392 570 392 591 374 c 132,-1,108
 612 356 612 356 613 330 c 132,-1,109
 614 304 614 304 614.5 289.5 c 132,-1,110
 615 275 615 275 639 239 c 132,-1,111
 663 203 663 203 737 150.5 c 132,-1,112
 811 98 811 98 865 120.5 c 132,-1,113
 919 143 919 143 953.5 241 c 132,-1,114
 988 339 988 339 989.5 468.5 c 132,-1,115
 991 598 991 598 976 666 c 5,116,117
 779 646 779 646 577 543 c 5,118,119
 557 497 557 497 506 504 c 5,120,121
 432 461 432 461 357 406 c 5,122,123
 203 244 203 244 249 151 c 4,124,125
 267 114 267 114 318 104 c 132,-1,126
 369 94 369 94 420 134 c 132,-1,127
 471 174 471 174 481 262 c 5,103,104
596 696 m 5,128,129
 764 770 764 770 930 792 c 5,130,131
 879 887 879 887 810.5 916.5 c 132,-1,132
 742 946 742 946 682.5 894.5 c 132,-1,133
 623 843 623 843 596 696 c 5,128,129
1365 601 m 5,134,135
 1291 464 1291 464 1273 312 c 132,-1,136
 1255 160 1255 160 1301 142 c 4,137,138
 1325 133 1325 133 1405 179 c 5,139,140
 1491 248 1491 248 1511 309 c 4,141,142
 1567 487 1567 487 1365 601 c 5,134,135
EndSplineSet
Ligature2: "'psts' Post Base Substitutions in Malay+AQEA-lam/Malay+AQEA-lam2 lookup 5 subtable" k1k1 u2
LCarets2: 1 3 
EndChar

StartChar: k1k1r1
Encoding: 136 -1 136
Width: 2207
GlyphClass: 3
LigCaretCntFixed: 1
Flags: MW
LayerCount: 2
Fore
SplineSet
1536 23 m 1,0,1
 1411 -51 1411 -51 1310 -19 c 0,2,3
 1257 -2 1257 -2 1221 47 c 0,4,5
 1145 151 1145 151 1168 351 c 0,6,7
 1184 491 1184 491 1229 589 c 0,8,9
 1243 620 1243 620 1257 648 c 1,10,11
 1190 669 1190 669 1116 675 c 1,12,13
 1132 598 1132 598 1130 512 c 0,14,15
 1128 301 1128 301 1082.5 170 c 128,-1,16
 1037 39 1037 39 931 -6 c 0,17,18
 805 -59 805 -59 657 47 c 0,19,20
 614 78 614 78 580 114 c 1,21,22
 549 62 549 62 500 27 c 0,23,24
 402 -41 402 -41 286.5 -14.5 c 128,-1,25
 171 12 171 12 124 104 c 0,26,27
 58 233 58 233 175 387 c 0,28,29
 266 506 266 506 467 631 c 1,30,31
 492 887 492 887 611 988 c 0,32,33
 730 1090 730 1090 864 1031 c 0,34,35
 998 973 998 973 1073 807 c 1,36,37
 1205 804 1205 804 1320 764 c 1,38,39
 1456 990 1456 990 1611 1047 c 1,40,41
 1788 1109 1788 1109 1926 961 c 0,42,43
 2047 831 2047 831 2091.5 579.5 c 128,-1,44
 2136 328 2136 328 2059 66 c 0,45,46
 2001 -131 2001 -131 1826 -273 c 0,47,48
 1651 -415 1651 -415 1340 -475 c 0,49,50
 1028 -535 1028 -535 874 -461 c 0,51,52
 755 -403 755 -403 781 -294 c 0,53,54
 801 -209 801 -209 911 -156 c 0,55,56
 1061 -83 1061 -83 1273 -119 c 0,57,58
 1400 -140 1400 -140 1529 -201 c 0,59,60
 1549 -211 1549 -211 1559.5 -231.5 c 128,-1,61
 1570 -252 1570 -252 1565 -275 c 1,62,63
 1859 -153 1859 -153 1934 103 c 0,64,65
 2002 335 2002 335 1963.5 552.5 c 128,-1,66
 1925 770 1925 770 1837 866 c 0,67,68
 1748 961 1748 961 1656 925 c 1,69,70
 1548 885 1548 885 1440 710 c 1,71,72
 1618 609 1618 609 1680 442 c 0,73,74
 1742 275 1742 275 1632 121 c 0,75,76
 1595 69 1595 69 1536 23 c 1,0,1
491 255 m 1,77,78
 474 317 474 317 509 359 c 0,79,80
 526 379 526 379 553.5 381 c 128,-1,81
 581 383 581 383 602 365.5 c 128,-1,82
 623 348 623 348 623.5 322 c 128,-1,83
 624 296 624 296 625 282 c 0,84,85
 625 268 625 268 649 231.5 c 128,-1,86
 673 195 673 195 748 142 c 0,87,88
 822 89 822 89 876 112 c 128,-1,89
 930 135 930 135 964 233 c 128,-1,90
 998 331 998 331 999.5 465.5 c 128,-1,91
 1001 600 1001 600 982 674 c 1,92,93
 785 658 785 658 592 553 c 1,94,95
 589 528 589 528 564 507 c 0,96,97
 539 486 539 486 503 499 c 1,98,99
 344 394 344 394 277.5 306.5 c 128,-1,100
 211 219 211 219 240 163 c 0,101,102
 259 125 259 125 317 112 c 128,-1,103
 375 99 375 99 428 135 c 0,104,105
 480 172 480 172 491 255 c 1,77,78
610 707 m 1,106,107
 768 779 768 779 931 800 c 1,108,109
 883 882 883 882 818 909 c 0,110,111
 753 937 753 937 695 888 c 128,-1,112
 637 839 637 839 610 707 c 1,106,107
1376 596 m 1,113,114
 1362 567 1362 567 1335.5 502.5 c 128,-1,115
 1309 438 1309 438 1294.5 312 c 128,-1,116
 1280 186 1280 186 1326 123 c 0,117,118
 1338 107 1338 107 1351 101 c 0,119,120
 1382 85 1382 85 1462 131 c 1,121,122
 1613 251 1613 251 1555 405 c 0,123,124
 1512 518 1512 518 1376 596 c 1,113,114
1459 -312 m 1,125,126
 1353 -265 1353 -265 1251 -247 c 0,127,128
 1080 -218 1080 -218 967 -273 c 0,129,130
 908 -301 908 -301 907 -327 c 1,131,132
 912 -335 912 -335 946.5 -351.5 c 128,-1,133
 981 -368 981 -368 1076 -369.5 c 128,-1,134
 1171 -371 1171 -371 1282.5 -351 c 128,-1,135
 1394 -331 1394 -331 1459 -312 c 1,125,126
EndSplineSet
Ligature2: "'psts' Post Base Substitutions in Malay+AQEA-lam/Malay+AQEA-lam2 lookup 5 subtable" k1k1 r1
LCarets2: 1 0 
EndChar

StartChar: k1k1r3
Encoding: 137 -1 137
Width: 2498
GlyphClass: 3
LigCaretCntFixed: 1
Flags: MW
LayerCount: 2
Fore
SplineSet
1833 23 m 5,0,1
 1708 -51 1708 -51 1608 -19 c 4,2,3
 1555 -2 1555 -2 1519 47 c 4,4,5
 1443 151 1443 151 1466 351 c 4,6,7
 1482 491 1482 491 1527 589 c 4,8,9
 1541 620 1541 620 1555 648 c 5,10,11
 1488 669 1488 669 1413 675 c 5,12,13
 1429 598 1429 598 1428 512 c 4,14,15
 1426 301 1426 301 1380.5 170 c 132,-1,16
 1335 39 1335 39 1229 -6 c 4,17,18
 1103 -59 1103 -59 954 47 c 4,19,20
 911 78 911 78 877 114 c 5,21,22
 846 62 846 62 798 27 c 4,23,24
 700 -41 700 -41 584.5 -14.5 c 132,-1,25
 469 12 469 12 422 104 c 4,26,27
 356 233 356 233 473 387 c 4,28,29
 564 506 564 506 765 631 c 5,30,31
 790 887 790 887 909 988.5 c 132,-1,32
 1028 1090 1028 1090 1162.5 1031.5 c 132,-1,33
 1297 973 1297 973 1371 807 c 5,34,35
 1504 804 1504 804 1620 764 c 5,36,37
 1743 961 1743 961 1901.5 1032 c 132,-1,38
 2060 1103 2060 1103 2206 992 c 4,39,40
 2330 898 2330 898 2381 691 c 132,-1,41
 2432 484 2432 484 2346 246 c 4,42,43
 2307 137 2307 137 2239 39 c 4,44,45
 1905 -451 1905 -451 1195 -464 c 4,46,47
 753 -472 753 -472 453 -287 c 4,48,49
 339 -217 339 -217 255.5 -100 c 132,-1,50
 172 17 172 17 131 165 c 4,51,52
 43 483 43 483 192 974 c 4,53,54
 200 999 200 999 224 1012 c 132,-1,55
 248 1025 248 1025 273.5 1017 c 132,-1,56
 299 1009 299 1009 312 985 c 132,-1,57
 325 961 325 961 317 936 c 4,58,59
 247 706 247 706 234 517 c 132,-1,60
 221 328 221 328 256 201 c 4,61,62
 327 -56 327 -56 523 -177 c 132,-1,63
 719 -298 719 -298 960 -324 c 4,64,65
 1294 -359 1294 -359 1553 -288 c 4,66,67
 1929 -185 1929 -185 2132 112 c 4,68,69
 2190 197 2190 197 2223 290 c 4,70,71
 2296 491 2296 491 2250 679 c 4,72,73
 2215 822 2215 822 2129 887 c 132,-1,74
 2043 952 2043 952 1940 906 c 132,-1,75
 1837 860 1837 860 1739 709 c 5,76,77
 1916 608 1916 608 1978.5 441 c 132,-1,78
 2041 274 2041 274 1930 121 c 4,79,80
 1892 69 1892 69 1833 23 c 5,0,1
789 255 m 5,81,82
 772 317 772 317 807 359 c 4,83,84
 824 379 824 379 851 381 c 132,-1,85
 878 383 878 383 899 365.5 c 132,-1,86
 920 348 920 348 921 322 c 132,-1,87
 922 296 922 296 922.5 281.5 c 132,-1,88
 923 267 923 267 947 231 c 132,-1,89
 971 195 971 195 1045.5 142.5 c 132,-1,90
 1120 90 1120 90 1174 112.5 c 132,-1,91
 1228 135 1228 135 1262 233 c 132,-1,92
 1296 331 1296 331 1297.5 465.5 c 132,-1,93
 1299 600 1299 600 1280 674 c 5,94,95
 1083 658 1083 658 890 553 c 5,96,97
 887 528 887 528 862.5 507 c 132,-1,98
 838 486 838 486 801 499 c 5,99,100
 642 394 642 394 575.5 306.5 c 132,-1,101
 509 219 509 219 537 163 c 4,102,103
 556 125 556 125 614.5 112 c 132,-1,104
 673 99 673 99 725.5 135.5 c 132,-1,105
 778 172 778 172 789 255 c 5,81,82
908 707 m 5,106,107
 1066 779 1066 779 1229 800 c 5,108,109
 1181 882 1181 882 1115.5 909.5 c 132,-1,110
 1050 937 1050 937 992.5 888 c 132,-1,111
 935 839 935 839 908 707 c 5,106,107
1674 596 m 5,112,113
 1659 567 1659 567 1632.5 502.5 c 132,-1,114
 1606 438 1606 438 1592 312 c 132,-1,115
 1578 186 1578 186 1624 123 c 4,116,117
 1636 107 1636 107 1648 101 c 4,118,119
 1679 85 1679 85 1760 131 c 5,120,121
 1911 251 1911 251 1853 405 c 4,122,123
 1810 518 1810 518 1674 596 c 5,112,113
EndSplineSet
Ligature2: "'pres' Pre Base Substitutions in Malay+AQEA-lam lookup 4 subtable" k1k1 r4
Ligature2: "'pres' Pre Base Substitutions in Malay+AQEA-lam2 lookup 4 subtable" r4 k1k1
Ligature2: "'pres' Pre Base Substitutions in Malay+AQEA-lam lookup 4 subtable" k1k1 xx r3
LCarets2: 1 0 
EndChar

StartChar: k1nhu2
Encoding: 142 -1 142
Width: 1603
GlyphClass: 3
LigCaretCntFixed: 1
Flags: MW
LayerCount: 2
Fore
SplineSet
1357 -870 m 0
EndSplineSet
Refer: 55 3349 N 0.95 0 0 0.95 76 10 2
Refer: 264 -1 N 0.781864 0 0 0.738279 -80 -638 2
Ligature2: "'psts' Post Base Substitutions in Malay+AQEA-lam/Malay+AQEA-lam2 lookup 5 subtable" k1nh u2
LCarets2: 1 0 
EndChar

StartChar: k1th1
Encoding: 143 -1 143
Width: 2837
GlyphClass: 3
LigCaretCntFixed: 1
Flags: MW
LayerCount: 2
Fore
SplineSet
2099 905 m 5,0,1
 2263 744 2263 744 2290 480 c 5,2,3
 2290 243 2290 243 2161 120 c 4,4,5
 2061 24 2061 24 1935.5 38 c 132,-1,6
 1810 52 1810 52 1745.5 160.5 c 132,-1,7
 1681 269 1681 269 1706 424 c 4,8,9
 1754 720 1754 720 1891 890 c 5,10,11
 1775 940 1775 940 1659.5 898 c 132,-1,12
 1544 856 1544 856 1482 722 c 4,13,14
 1447 647 1447 647 1435 554 c 5,15,16
 1473 485 1473 485 1482 400.5 c 132,-1,17
 1491 316 1491 316 1497.5 226 c 132,-1,18
 1504 136 1504 136 1487 78 c 4,19,20
 1486 74 l 4,21,22
 1481 45 1481 45 1452.5 31 c 132,-1,23
 1424 17 1424 17 1400 20 c 132,-1,24
 1376 23 1376 23 1364 45.5 c 132,-1,25
 1352 68 1352 68 1351.5 72.5 c 132,-1,26
 1351 77 1351 77 1351 80 c 4,27,28
 1286 328 1286 328 1301 523 c 5,29,30
 1236 613 1236 613 1106 656 c 5,31,32
 1112 607 1112 607 1111 555 c 4,33,34
 1109 344 1109 344 1063.5 212.5 c 132,-1,35
 1018 81 1018 81 912 37 c 4,36,37
 786 -16 786 -16 637 90 c 4,38,39
 596 119 596 119 563 153 c 5,40,41
 534 100 534 100 487 63 c 4,42,43
 393 -11 393 -11 280.5 11 c 132,-1,44
 168 33 168 33 123 129 c 4,45,46
 38 305 38 305 258 534 c 4,47,48
 260 536 260 536 262 538 c 4,49,50
 351 617 351 617 448 674 c 5,51,52
 474 929 474 929 592 1030.5 c 132,-1,53
 710 1132 710 1132 839 1076 c 4,54,55
 1002 1005 1002 1005 1074 799 c 5,56,57
 1227 766 1227 766 1329 681 c 5,58,59
 1404 943 1404 943 1619 1022 c 4,60,61
 1804 1090 1804 1090 1989 987 c 5,62,63
 2141 1105 2141 1105 2316.5 1080.5 c 132,-1,64
 2492 1056 2492 1056 2618 909 c 132,-1,65
 2744 762 2744 762 2737.5 526.5 c 132,-1,66
 2731 291 2731 291 2556 39 c 4,67,68
 2541 17 2541 17 2514.5 12 c 132,-1,69
 2488 7 2488 7 2466 22 c 132,-1,70
 2444 37 2444 37 2439 64 c 132,-1,71
 2434 91 2434 91 2449 113 c 4,72,73
 2602 333 2602 333 2607.5 524.5 c 132,-1,74
 2613 716 2613 716 2519.5 825 c 132,-1,75
 2426 934 2426 934 2310.5 950 c 132,-1,76
 2195 966 2195 966 2099 905 c 5,0,1
472 296 m 5,77,78
 454 359 454 359 489 401 c 4,79,80
 506 421 506 421 533.5 423.5 c 132,-1,81
 561 426 561 426 582 408 c 132,-1,82
 603 390 603 390 604 364 c 132,-1,83
 605 338 605 338 605.5 323.5 c 132,-1,84
 606 309 606 309 630 273 c 132,-1,85
 654 237 654 237 728 184.5 c 132,-1,86
 802 132 802 132 856 154.5 c 132,-1,87
 910 177 910 177 944.5 275 c 132,-1,88
 979 373 979 373 981 556 c 4,89,90
 982 622 982 622 970 682 c 5,91,92
 771 695 771 695 572 594 c 5,93,94
 569 569 569 569 544 548 c 132,-1,95
 519 527 519 527 482 542 c 5,96,97
 414 498 414 498 350 443 c 5,98,99
 309 400 309 400 282 359 c 4,100,101
 209 250 209 250 240 185 c 4,102,103
 258 148 258 148 309 138 c 132,-1,104
 360 128 360 128 411 168 c 132,-1,105
 462 208 462 208 472 296 c 5,77,78
590 745 m 5,106,107
 754 812 754 812 927 814 c 5,108,109
 875 919 875 919 804 949.5 c 132,-1,110
 733 980 733 980 675 930 c 132,-1,111
 617 880 617 880 590 745 c 5,106,107
2001 819 m 5,112,113
 1879 675 1879 675 1834 403 c 4,114,115
 1817 295 1817 295 1853 234.5 c 132,-1,116
 1889 174 1889 174 1952 166.5 c 132,-1,117
 2015 159 2015 159 2071 213 c 4,118,119
 2158 297 2158 297 2160 473 c 5,120,121
 2134 695 2134 695 2001 819 c 5,112,113
EndSplineSet
Ligature2: "'akhn' Akhand in Malay+AQEA-lam lookup 0 subtable" k1 xx th1
Ligature2: "'akhn' Akhand in Malay+AQEA-lam2 lookup 0 subtable" k1 xx th1
LCarets2: 1 3 
EndChar

StartChar: k1th1u1
Encoding: 144 -1 144
Width: 2880
GlyphClass: 3
LigCaretCntFixed: 1
Flags: MW
LayerCount: 2
Fore
SplineSet
2100 881 m 1,0,1
 2261 723 2261 723 2290 456 c 1,2,3
 2290 219 2290 219 2162 96 c 0,4,5
 2062 0 2062 0 1936.5 14 c 128,-1,6
 1811 28 1811 28 1746.5 136.5 c 128,-1,7
 1682 245 1682 245 1707 400 c 0,8,9
 1755 696 1755 696 1892 866 c 1,10,11
 1776 916 1776 916 1660.5 874 c 128,-1,12
 1545 832 1545 832 1483 698 c 0,13,14
 1448 623 1448 623 1436 530 c 1,15,16
 1474 461 1474 461 1483 376.5 c 128,-1,17
 1492 292 1492 292 1498.5 202 c 128,-1,18
 1505 112 1505 112 1488 54 c 0,19,20
 1487 50 l 0,21,22
 1482 21 1482 21 1453.5 7 c 128,-1,23
 1425 -7 1425 -7 1401 -4 c 128,-1,24
 1377 -1 1377 -1 1365 21.5 c 128,-1,25
 1353 44 1353 44 1352.5 48.5 c 128,-1,26
 1352 53 1352 53 1352 56 c 0,27,28
 1287 304 1287 304 1302 499 c 1,29,30
 1237 589 1237 589 1107 632 c 1,31,32
 1113 583 1113 583 1112 531 c 0,33,34
 1110 320 1110 320 1064.5 188.5 c 128,-1,35
 1019 57 1019 57 913 13 c 0,36,37
 787 -40 787 -40 638 66 c 0,38,39
 597 95 597 95 564 129 c 1,40,41
 535 76 535 76 488 39 c 0,42,43
 394 -35 394 -35 281.5 -13 c 128,-1,44
 169 9 169 9 123 105 c 0,45,46
 38 281 38 281 259 510 c 0,47,48
 261 512 261 512 263 514 c 0,49,50
 352 593 352 593 449 650 c 1,51,52
 475 905 475 905 593 1006.5 c 128,-1,53
 711 1108 711 1108 840 1052 c 0,54,55
 1003 981 1003 981 1075 775 c 1,56,57
 1228 742 1228 742 1330 657 c 1,58,59
 1405 919 1405 919 1620 998 c 0,60,61
 1805 1066 1805 1066 1990 963 c 1,62,63
 2143 1081 2143 1081 2318.5 1056 c 128,-1,64
 2494 1031 2494 1031 2620 884 c 0,65,66
 2766 713 2766 713 2734 446 c 1,67,68
 2726 117 2726 117 2541 -32 c 0,69,70
 2420 -130 2420 -130 2179 -175 c 0,71,72
 2142 -182 2142 -182 2004 -201.5 c 128,-1,73
 1866 -221 1866 -221 1851 -223 c 0,74,75
 1531 -256 1531 -256 1400 -332 c 1,76,77
 1485 -364 1485 -364 1709 -371 c 0,78,79
 2080 -382 2080 -382 2708 -311 c 0,80,81
 2734 -308 2734 -308 2755.5 -325 c 128,-1,82
 2777 -342 2777 -342 2780 -368.5 c 128,-1,83
 2783 -395 2783 -395 2766 -416 c 128,-1,84
 2749 -437 2749 -437 2722 -440 c 0,85,86
 2085 -512 2085 -512 1705 -501 c 0,87,88
 1515 -495 1515 -495 1415 -475.5 c 128,-1,89
 1315 -456 1315 -456 1271 -400 c 128,-1,90
 1227 -344 1227 -344 1269 -279 c 0,91,92
 1294 -239 1294 -239 1360 -207 c 0,93,94
 1518 -128 1518 -128 1835 -94 c 0,95,96
 1849 -92 1849 -92 1985 -73 c 128,-1,97
 2121 -54 2121 -54 2156 -47 c 0,98,99
 2364 -9 2364 -9 2459 69 c 0,100,101
 2598 182 2598 182 2604 452 c 0,102,103
 2604 455 2604 455 2606 471 c 0,104,105
 2631 671 2631 671 2512 811 c 0,106,107
 2428 910 2428 910 2312 926 c 128,-1,108
 2196 942 2196 942 2100 881 c 1,0,1
473 272 m 1,109,110
 455 335 455 335 490 377 c 0,111,112
 507 397 507 397 534.5 399.5 c 128,-1,113
 562 402 562 402 583 384 c 128,-1,114
 604 366 604 366 605 340 c 128,-1,115
 606 314 606 314 606 299.5 c 128,-1,116
 606 285 606 285 630.5 249 c 128,-1,117
 655 213 655 213 729 160.5 c 128,-1,118
 803 108 803 108 857 130.5 c 128,-1,119
 911 153 911 153 945.5 251 c 128,-1,120
 980 349 980 349 982 532 c 0,121,122
 983 598 983 598 971 658 c 1,123,124
 772 671 772 671 573 570 c 1,125,126
 570 545 570 545 545 524 c 128,-1,127
 520 503 520 503 483 518 c 1,128,129
 415 474 415 474 351 419 c 1,130,131
 310 376 310 376 283 335 c 0,132,133
 210 226 210 226 241 161 c 0,134,135
 259 124 259 124 310 114 c 128,-1,136
 361 104 361 104 412 144 c 128,-1,137
 463 184 463 184 473 272 c 1,109,110
591 721 m 1,138,139
 755 788 755 788 928 790 c 1,140,141
 876 895 876 895 805 925.5 c 128,-1,142
 734 956 734 956 676 906 c 128,-1,143
 618 856 618 856 591 721 c 1,138,139
2002 795 m 1,144,145
 1880 651 1880 651 1835 379 c 0,146,147
 1818 271 1818 271 1854 210.5 c 128,-1,148
 1890 150 1890 150 1953 142.5 c 128,-1,149
 2016 135 2016 135 2072 189 c 0,150,151
 2159 273 2159 273 2160 449 c 1,152,153
 2135 671 2135 671 2002 795 c 1,144,145
EndSplineSet
Ligature2: "'psts' Post Base Substitutions in Malay+AQEA-lam/Malay+AQEA-lam2 lookup 5 subtable" k1th1 u1
LCarets2: 1 0 
EndChar

StartChar: k1th1u2
Encoding: 145 -1 145
Width: 2914
GlyphClass: 3
LigCaretCntFixed: 1
Flags: MW
LayerCount: 2
Fore
SplineSet
2125 868 m 1,0,1
 2263 713 2263 713 2290 469 c 1,2,3
 2290 232 2290 232 2162 109 c 0,4,5
 2062 13 2062 13 1936.5 27 c 128,-1,6
 1811 41 1811 41 1746.5 149.5 c 128,-1,7
 1682 258 1682 258 1707 413 c 0,8,9
 1753 698 1753 698 1917 868 c 1,10,11
 1788 934 1788 934 1666 890 c 0,12,13
 1472 819 1472 819 1436 543 c 1,14,15
 1474 474 1474 474 1483 389.5 c 128,-1,16
 1492 305 1492 305 1498.5 215 c 128,-1,17
 1505 125 1505 125 1488 67 c 0,18,19
 1487 63 l 0,20,21
 1482 34 1482 34 1453.5 20 c 128,-1,22
 1425 6 1425 6 1401 9 c 128,-1,23
 1377 12 1377 12 1365 34.5 c 128,-1,24
 1353 57 1353 57 1352.5 61.5 c 128,-1,25
 1352 66 1352 66 1352 69 c 0,26,27
 1287 317 1287 317 1302 512 c 1,28,29
 1237 602 1237 602 1107 645 c 1,30,31
 1113 596 1113 596 1112 544 c 0,32,33
 1110 333 1110 333 1064.5 201.5 c 128,-1,34
 1019 70 1019 70 913 26 c 0,35,36
 787 -27 787 -27 638 79 c 0,37,38
 597 108 597 108 564 142 c 1,39,40
 535 89 535 89 488 52 c 0,41,42
 394 -22 394 -22 281.5 0 c 128,-1,43
 169 22 169 22 123 118 c 0,44,45
 38 294 38 294 259 523 c 0,46,47
 261 525 261 525 263 527 c 0,48,49
 352 606 352 606 449 663 c 1,50,51
 475 918 475 918 593 1019.5 c 128,-1,52
 711 1121 711 1121 840 1065 c 0,53,54
 1003 994 1003 994 1075 788 c 1,55,56
 1228 755 1228 755 1330 670 c 1,57,58
 1405 932 1405 932 1614.5 1009 c 128,-1,59
 1824 1086 1824 1086 2022 956 c 1,60,61
 2165 1053 2165 1053 2332.5 1054.5 c 128,-1,62
 2500 1056 2500 1056 2612 956.5 c 128,-1,63
 2724 857 2724 857 2685 693 c 0,64,65
 2663 601 2663 601 2591 508 c 1,66,67
 2798 451 2798 451 2813.5 222 c 128,-1,68
 2829 -7 2829 -7 2652 -82 c 0,69,70
 2567 -118 2567 -118 2443.5 -133 c 128,-1,71
 2320 -148 2320 -148 2180.5 -161 c 128,-1,72
 2041 -174 2041 -174 1947 -192 c 128,-1,73
 1853 -210 1853 -210 1850 -210 c 0,74,75
 1532 -243 1532 -243 1400 -319 c 1,76,77
 1485 -351 1485 -351 1709 -358 c 0,78,79
 2080 -369 2080 -369 2708 -298 c 0,80,81
 2734 -295 2734 -295 2755.5 -312 c 128,-1,82
 2777 -329 2777 -329 2780 -355.5 c 128,-1,83
 2783 -382 2783 -382 2766 -403 c 128,-1,84
 2749 -424 2749 -424 2722 -427 c 0,85,86
 2085 -499 2085 -499 1705 -488 c 0,87,88
 1515 -482 1515 -482 1415 -462.5 c 128,-1,89
 1315 -443 1315 -443 1271 -387 c 128,-1,90
 1227 -331 1227 -331 1269 -266 c 0,91,92
 1294 -226 1294 -226 1360 -194 c 0,93,94
 1518 -115 1518 -115 1834 -81 c 1,95,96
 2025 -44 2025 -44 2222.5 -26.5 c 128,-1,97
 2420 -9 2420 -9 2518.5 11 c 128,-1,98
 2617 31 2617 31 2654 73.5 c 128,-1,99
 2691 116 2691 116 2684 213.5 c 128,-1,100
 2677 311 2677 311 2629.5 347 c 128,-1,101
 2582 383 2582 383 2531 387.5 c 128,-1,102
 2480 392 2480 392 2458.5 389.5 c 128,-1,103
 2437 387 2437 387 2414.5 410.5 c 128,-1,104
 2392 434 2392 434 2393 461.5 c 128,-1,105
 2394 489 2394 489 2413 507 c 0,106,107
 2535 622 2535 622 2557 717 c 128,-1,108
 2579 812 2579 812 2515 869 c 128,-1,109
 2451 926 2451 926 2337 925.5 c 128,-1,110
 2223 925 2223 925 2125 868 c 1,0,1
473 285 m 1,111,112
 455 348 455 348 490 390 c 0,113,114
 507 410 507 410 534.5 412.5 c 128,-1,115
 562 415 562 415 583 397 c 128,-1,116
 604 379 604 379 605 353 c 128,-1,117
 606 327 606 327 606 312.5 c 128,-1,118
 606 298 606 298 630.5 262 c 128,-1,119
 655 226 655 226 729 173.5 c 128,-1,120
 803 121 803 121 857 143.5 c 128,-1,121
 911 166 911 166 945.5 264 c 128,-1,122
 980 362 980 362 982 545 c 0,123,124
 983 611 983 611 971 671 c 1,125,126
 772 684 772 684 573 583 c 1,127,128
 570 558 570 558 545 537 c 128,-1,129
 520 516 520 516 483 531 c 1,130,131
 415 487 415 487 351 432 c 1,132,133
 310 389 310 389 283 348 c 0,134,135
 210 239 210 239 241 174 c 0,136,137
 259 137 259 137 310 127 c 128,-1,138
 361 117 361 117 412 157 c 128,-1,139
 463 197 463 197 473 285 c 1,111,112
591 734 m 1,140,141
 755 801 755 801 928 803 c 1,142,143
 876 908 876 908 805 938.5 c 128,-1,144
 734 969 734 969 676 919 c 128,-1,145
 618 869 618 869 591 734 c 1,140,141
2021 788 m 1,146,147
 1876 646 1876 646 1835 392 c 0,148,149
 1818 284 1818 284 1854 223.5 c 128,-1,150
 1890 163 1890 163 1953 155.5 c 128,-1,151
 2016 148 2016 148 2072 202 c 0,152,153
 2159 286 2159 286 2160 462 c 1,154,155
 2136 665 2136 665 2021 788 c 1,146,147
EndSplineSet
Ligature2: "'psts' Post Base Substitutions in Malay+AQEA-lam/Malay+AQEA-lam2 lookup 5 subtable" k1th1 u2
LCarets2: 1 0 
EndChar

